<?xml version="1.0" encoding="utf-8"?><svg viewBox="0 0 25 25" xmlns="http://www.w3.org/2000/svg" xmlns:xlink="http://www.w3.org/1999/xlink"><style>:root>svg{display:none}:root>svg:target{display:block}</style><svg viewBox="0 0 21 19" id="icon_card-heart" xmlns="http://www.w3.org/2000/svg"><g clip-path="url(#aclip0_274_880)"><path d="M18.375 2.622a5.301 5.301 0 00-7.489 0l-.386.387-.386-.387a5.301 5.301 0 00-7.489 0 5.288 5.288 0 000 7.481l7.832 7.825.043-.043.043.043 7.832-7.825a5.288 5.288 0 000-7.48z" stroke="#336ABB" stroke-width="2" stroke-linecap="round" stroke-linejoin="round"/></g><defs><clipPath id="aclip0_274_880"><path d="M0 0h21v19H0z"/></clipPath></defs></svg><svg viewBox="0 0 15 25" id="slider-arrow_next" xmlns="http://www.w3.org/2000/svg"><path fill-rule="evenodd" clip-rule="evenodd" d="M14.178 12.089L2.088 24.178l-1.45-1.45 10.638-10.639L.638 1.451 2.088 0l10.639 10.637 1.45 1.45z"/></svg><svg viewBox="0 0 25 25" id="slider-arrow_prev" xmlns="http://www.w3.org/2000/svg"><path fill-rule="evenodd" clip-rule="evenodd" d="M0 12.089l12.089 12.089 1.45-1.45L2.903 12.088 13.54 1.451 12.09 0 1.45 10.637 0 12.088z"/></svg></svg>