<svg width="238" height="136" viewBox="0 0 238 136" fill="none" xmlns="http://www.w3.org/2000/svg">
<path fill-rule="evenodd" clip-rule="evenodd" d="M4.52603 136H0L70.558 0H75.084L4.52603 136ZM13.5492 136H9.03281L79.5908 0H84.1168L13.5492 136ZM18.056 136H22.582L93.14 0H88.6236L18.056 136ZM31.6148 136H27.0888L97.6468 0H102.173L31.6148 136ZM36.1216 136H40.6476L111.206 0H106.68L36.1216 136ZM49.6708 136H45.1544L115.712 0H120.238L49.6708 136ZM54.1776 136H58.7036L129.262 0H124.745L54.1776 136ZM67.7364 136H63.2104L133.768 0H138.294L67.7364 136ZM72.2432 136H76.7692L147.327 0H142.801L72.2432 136ZM85.7924 136H81.276L151.834 0H156.35L85.7924 136ZM90.2992 136H94.8252L165.383 0H160.867L90.2992 136ZM103.858 136H99.332L169.89 0H174.416L103.858 136ZM108.365 136H112.881L183.449 0H178.923L108.365 136ZM121.914 136H117.388L187.956 0H192.472L121.914 136ZM126.421 136H130.947L201.505 0H196.979L126.421 136ZM139.98 136H135.454L206.012 0H210.538L139.98 136ZM144.486 136H149.003L219.57 0H215.044L144.486 136ZM158.036 136H153.51L224.077 0H228.594L158.036 136ZM162.542 136H167.068L237.626 0H233.1L162.542 136Z" fill="url(#paint0_linear_34_1331)" fill-opacity="0.35"/>
<defs>
<linearGradient id="paint0_linear_34_1331" x1="89.6703" y1="136" x2="110.593" y2="26.1539" gradientUnits="userSpaceOnUse">
<stop stop-color="#D8D8D8"/>
<stop offset="1" stop-color="#D8D8D8" stop-opacity="0"/>
</linearGradient>
</defs>
</svg>
