<svg width="100" height="100" viewBox="0 0 100 100" fill="none" xmlns="http://www.w3.org/2000/svg"><path d="M48.125 9.277c-.547.371-1.992 2.793-2.266 3.73-.332 1.25.098 2.677 1.133 3.731.469.469.86.957.86 1.094 0 .117-.352.8-.782 1.504-.43.703-.781 1.523-.781 1.816 0 .82.781 1.504 1.738 1.504.898 0 1.348-.449 2.46-2.441.548-.977.704-1.465.704-2.285.02-1.387-.254-2.032-1.328-3.125l-.898-.918.8-1.23c.43-.684.86-1.466.918-1.759.137-.546-.156-1.27-.664-1.66-.43-.332-1.406-.312-1.894.04zm-18.672 7.715c-.176.117-.742.88-1.27 1.7-.82 1.328-.937 1.66-.996 2.792-.098 1.524.195 2.207 1.367 3.38.45.429.704.84.606.976-.078.137-.45.723-.82 1.308-1.231 1.934-.762 3.418 1.035 3.282.683-.059.879-.176 1.523-1.035 1.172-1.543 1.621-2.579 1.602-3.81-.02-1.25-.352-1.972-1.328-2.91-.391-.37-.704-.8-.704-.956 0-.137.352-.84.801-1.563.645-1.074.762-1.426.684-1.992-.059-.371-.293-.84-.528-1.035-.449-.371-1.445-.43-1.972-.137zm37.5 0c-.176.117-.742.88-1.27 1.7-.82 1.328-.937 1.66-.996 2.792-.097 1.524.195 2.207 1.367 3.38.45.429.703.84.606.976-.078.137-.45.723-.82 1.308-1.231 1.934-.762 3.418 1.035 3.282.683-.059.879-.176 1.523-1.035 1.172-1.543 1.621-2.579 1.602-3.81-.02-1.25-.352-1.972-1.329-2.91-.39-.37-.703-.8-.703-.956 0-.137.352-.84.801-1.563.645-1.074.762-1.426.684-1.992-.059-.371-.293-.84-.528-1.035-.449-.371-1.445-.43-1.972-.137zM49.12 32.05c-4.667.606-10.995 2.852-16.386 5.86-2.793 1.543-7.188 4.453-9.297 6.172-3.086 2.46-6.601 6.191-8.848 9.375-3.613 5.117-6.132 11.934-6.503 17.676-.079.996-.215 1.933-.332 2.05-.098.137-.606.254-1.114.254-1.074 0-1.992.528-2.676 1.544-.742 1.093-.605 2.03.82 5.996 1.388 3.75 1.856 4.648 2.891 5.43 1.23.937 2.051 1.093 5.801 1.093h3.477l1.543 2.676c1.699 2.968 2.46 3.867 3.887 4.57l.957.469 27.285.058c27.168.04 27.285.04 28.359-.37 1.563-.567 2.54-1.641 4.297-4.727l1.523-2.676h2.578c2.95 0 3.692-.156 4.825-1.035 1.25-.957 1.465-1.348 2.93-5.313 1.523-4.14 1.66-5.058.898-6.171-.88-1.31-1.485-1.543-4.024-1.543-2.89-.02-2.93-.04-3.418-2.54-1.757-8.867-5.449-14.394-12.03-18.007l-.606-.352.488-.645c.273-.37.508-.761.508-.878 0-.118.078-.254.156-.313.215-.117 8.594-2.46 8.848-2.46.117 0 .37.194.566.448.195.254.82.703 1.406 1.016.84.469 1.27.566 2.305.566 2.832-.02 4.824-1.855 5.04-4.629.116-1.64-.255-2.773-1.31-3.867-.878-.898-.898-.937-.664-1.582.332-.898.313-2.265-.039-3.3-.703-2.032-2.539-3.301-4.785-3.301-2.383 0-4.16 1.347-4.883 3.652l-.332 1.094-4.453 1.23-4.433 1.23-.547-.39c-.645-.488-1.973-.683-2.91-.43-.684.176-.704.157-2.93-2.09-3.36-3.34-6.465-4.98-10.938-5.742-1.992-.332-5.644-.37-7.93-.097zm8.692 3.692c2.05.508 4.395 1.621 6.055 2.89 1.562 1.192 2.656 2.325 2.46 2.52-.077.098-1.21.157-2.519.157-2.246-.02-2.5-.059-4.433-.762-4.707-1.68-9.278-.918-12.617 2.11-2.403 2.167-3.75 5.019-3.926 8.32-.196 3.515.937 6.484 3.457 8.984 3.691 3.71 8.984 4.55 13.867 2.207 1.27-.605 1.836-1.074 4.2-3.477 2.987-3.027 4.16-3.828 6.698-4.59l1.446-.43.918.958c.488.527 1.562 1.309 2.363 1.758 3.281 1.816 5.918 4.863 7.598 8.847.332.782.605 1.485.605 1.582 0 .098-.644.176-1.445.176-1.172 0-1.621.098-2.5.547l-1.075.527-.918-.468c-.488-.254-1.367-.508-1.914-.567-.898-.078-1.113-.195-1.953-1.055-1.347-1.386-2.402-1.816-4.453-1.816-2.05 0-3.105.43-4.492 1.856-.938.957-.977.976-2.11.976-1.25 0-2.5.352-3.3.938l-.508.37-.664-.741c-1.387-1.524-4.102-2.286-6.23-1.758-1.153.293-2.832 1.386-3.399 2.226l-.45.645-1.093-1.094c-2.578-2.598-6.406-2.637-8.965-.098-.566.567-1.074.938-1.133.86-.312-.528-2.207-1.211-3.574-1.309-1.386-.097-1.445-.117-2.207-.937-1.172-1.27-2.558-1.875-4.336-1.895-1.27 0-1.64.078-2.754.625-.761.371-1.503.938-1.875 1.367-.527.664-.722.762-1.66.86-.586.058-1.445.312-1.894.566l-.82.469-.958-.488c-1.23-.625-3.222-.782-4.511-.352l-.88.313.118-.528c.058-.293.45-1.543.86-2.793 3.398-10.312 12.48-19.375 25.292-25.234 4.102-1.875 8.692-3.242 12.598-3.73 1.504-.176 5.41.078 7.031.468zm31.856 1.738c.937.938.644 2.051-.704 2.813-1.347.762-1.62 1.934-.683 2.871.312.313.664.39 1.562.39.996 0 1.27.079 1.66.489 1.036 1.035.293 2.91-1.132 2.91-.742 0-1.7-.684-1.7-1.191 0-.489-.937-1.23-1.542-1.23-.333 0-2.793.605-5.47 1.366-2.695.743-4.921 1.368-4.96 1.368-.195 0-.938-3.184-.781-3.32.078-.079 2.343-.762 5.039-1.485 3.183-.879 5.039-1.484 5.351-1.758.41-.352.469-.566.45-1.543-.02-.996.038-1.172.546-1.68.762-.761 1.602-.761 2.364 0zM58.69 43.848c1.836.625 2.461.761 4.316.84 2.422.097 3.829-.098 6.895-.938 1.133-.313 2.07-.547 2.09-.527.195.195 1.797 6.484 1.68 6.601-.079.059-1.25.43-2.618.82-4.297 1.211-6.133 2.383-9.277 5.919-1.64 1.835-2.852 2.695-4.57 3.222-3.086.957-6.348.059-8.672-2.383-3.184-3.34-3.203-8.164-.059-11.601 2.637-2.871 5.782-3.477 10.215-1.953zM28.613 67.93c.332.195.781.722 1.016 1.191.234.469.585 1.016.78 1.23.352.391.567.391 2.891.06.567-.079.977-.02 1.465.253.742.41 1.563 1.621 1.563 2.324v.45H24.023c-13.809 0-12.695.136-11.914-1.446.508-1.016 1.191-1.504 2.246-1.62.938-.118 1.68.194 2.52 1.093.84.879 1.836.84 2.773-.098.918-.898 1.524-1.113 2.754-.957 1.23.156 1.7-.058 2.188-1.035.937-1.816 2.402-2.344 4.023-1.445zm42.734-.04c.274.196.723.782.996 1.27.586 1.074 1.192 1.387 2.344 1.23 1.211-.175 1.778.02 2.754.919 1.23 1.132 1.934 1.113 3.223-.098.86-.8 1.054-.898 1.894-.898 1.563 0 2.988 1.23 2.988 2.578v.546H72.95c-12.559 0-12.598 0-12.598-.39 0-.684.762-1.953 1.426-2.363.645-.41.84-.41 3.574-.059.88.117 1.035 0 1.836-1.465.684-1.25 1.602-1.836 2.754-1.738.488.058 1.133.254 1.406.469zm-27.265 1.27c.8.293 1.367.918 1.738 1.875.273.703.293.977.098 1.621l-.235.781h-5.41l-.234-.703c-.293-.84-.04-1.855.625-2.715.742-.957 2.207-1.328 3.418-.859zm11.425.215a3.068 3.068 0 011.426 3.633c-.117.41-.234.43-2.851.43h-2.715l-.215-.547c-.273-.704-.098-1.934.371-2.559 1.016-1.387 2.559-1.758 3.984-.957zm37.657 7.285c0 .195-2.13 5.957-2.403 6.484-.644 1.211 2.246 1.133-40.351 1.192-27.559.02-39.16-.02-39.727-.176-.43-.117-.957-.41-1.172-.644-.293-.332-1.855-4.278-2.597-6.622-.098-.312 2.031-.332 43.066-.332 23.75 0 43.184.04 43.184.098zm-12.89 11.953c-1.095 1.934-1.642 2.656-2.345 3.067-.683.41-.8.41-27.05.41s-26.368 0-27.051-.41c-.703-.41-1.211-1.075-2.324-3.067l-.625-1.113h60.02l-.626 1.113z" fill="#915C46"/></svg>