<svg width="424" height="280" viewBox="0 0 424 280" fill="none" xmlns="http://www.w3.org/2000/svg"><g filter="url(#filter0_d_1233_809)"><path d="M235.803 71.151v5.599l.259.663-6.814 4.79-20.51 10.407v-9.477c0-.335-.115-.664-.328-.918l-7.465-9.026a1.353 1.353 0 00-.496-.387l-9.564-4.49-2.455-3.96 10.042-3.278h20.406c.254 0 .507-.07.732-.196l4.894-2.886 1.816 2.886h12.745s-.311 3.578-.622 4.825c-.311 1.247-2.64 5.448-2.64 5.448zm-78.248 133.103c.288 1.155 4.888 11.555 8.993 20.726l-.542.872s-9.95.623-11.812 0c-1.867-.624-5.13 0-5.13 0l-2.024-5.605s-6.836-1.085-7.614-1.864c-.779-.779-10.884 0-10.884 0h-9.327s-9.638-1.402-10.105-1.558c-.467-.156-7.615-2.643-7.615-2.643l-4.82-1.715H87.66l5.13-5.448-.155-4.046-20.522-9.494s-2.017-6.072-2.173-6.533c-.156-.468-2.49-6.228-2.49-6.228l-1.551-11.832 3.418-6.221 5.286-6.851 1.551-5.293-8.082.312-11.033-4.669-8.705-1.553-3.89-9.182 13.212-12.923 10.572-6.533v-12.449l2.646-8.565s.772-13.852.617-14.47c-.15-.623-4.97-6.539-6.215-8.253-1.245-1.708-7.62-5.754-7.62-5.754l-10.878-8.41s-11.973-2.487-12.434-2.643c-.467-.156-7.465-3.734-7.465-3.734L7.913 35.506l4.041-9.338-2.017-12.45-5.782-5.713 53.5 3.728c.318.023.623-.058.883-.23L75.906.218h12.538l3.707 10.556c.178.52.64.889 1.187.952l25.716 3.065 11.252 8.813V38.38l6.687 20.778v22.578l7.961 4.329-1.81 8.345-4.912 7.896-6.704 2.107h-4.329v6.723l4.387 3.55-.277 4.75h8.555l6.808 4.548 6.658-5.333 6.018 8.034c.155.335.305.767.38 1.085a1.506 1.506 0 00-.726 1.12c-.127 1.033-.208 1.668 7.373 4.992v2.332l-3.73 2.984h-7.131l-3.205 6.146h.006c-.19.347-.225.774-.081 1.16l4.664 12.842c.098.26.265.485.484.652l8.295 6.285 1.701 4.514-1.545 2.424c-4.508 2.995-6.405 5.419-5.638 7.209l.444 1.044-3.464 7.59a1.453 1.453 0 00.138 1.443c1.326 1.858 2.848 4.069 3.384 4.957-.196.462-.6 1.264-.911 1.882-1.597 3.174-2.617 5.373-2.231 6.908zm47.454-37.192h1.516l2.283 3.429v2.141l-3.148 4.485 2 4.744-5.845-2.049v9.246l3.465 2.199h-7.777l-5.47-4.848-4.162-7.284 3.487-6.81h.006c1.637-.185 3.395-.312 4.127-.277.635.404 2.018.536 5.811.155a1.438 1.438 0 001.095-.704l2.612-4.427z" fill="#E6E6E6"/><path d="M214.843 205.669l1.505 11.231-6.509.86-6.214-2.649s-5.442 0-5.908-.312c-.467-.306-6.22 1.714-6.22 1.714s-4.041 3.111-4.664 3.579c-.617.467-7.77 2.025-9.171 1.558-1.395-.468-8.082-1.558-8.082-1.558l-1.199 1.927c-4.099-9.182-7.759-17.493-8.024-18.434-.087-.785 1.325-3.596 2.006-4.94 1.095-2.176 1.504-2.99 1.222-3.833-.185-.56-1.343-2.343-3.442-5.304l3.384-7.41c.167-.37.173-.797.012-1.172l-.594-1.391c.403-.785 2.554-2.643 4.727-4.069.167-.11.311-.26.421-.433l2.098-3.295a1.44 1.44 0 00.138-1.282l-2.098-5.575a1.485 1.485 0 00-.478-.646l-8.29-6.28-3.044-8.369.116.07c.23.156.507.236.784.236h5.758l3.984 5.991 6.508 10.943c.19.317.496.554.853.652l4.197 1.166c.467.133.962.017 1.325-.294 5.016-4.335 5.65-5.541 5.794-6.003.282-.513 1.649-2.141 3.251-3.953v12.23l-4.393 8.576 5.165 9.056 6.653 5.887h10.105l10.595 3.468-2.271 8.058z" fill="#E6E6E6"/><path d="M206.11 164.177h-1.92c-.513 0-.986.271-1.245.71l-2.652 4.502c-1.245.104-2.565.161-3.193.121-.525-.375-1.718-.52-5.229-.162v-14.7c0-.594-.363-1.125-.916-1.345a1.443 1.443 0 00-1.58.364c-5.43 5.87-6.197 7.249-6.364 7.728-.386.6-2.438 2.557-4.369 4.26l-2.894-.803-6.232-10.475s-.023-.04-.04-.064l-4.427-6.666a1.44 1.44 0 00-1.199-.64h-6.099l-2.277-1.489 1.787-3.434h6.393l5.603-4.485v-5.61l-.87-.375c-2.093-.906-4.497-2.032-5.84-2.765.352-1.275-.334-2.88-.674-3.561l-8.025-10.752-7.332 5.875-5.782-3.861h-6.37l.191-3.18-4.474-3.613v-2.459h1.891l8.14-2.562 5.741-9.223 2.381-10.955-8.359-4.542V58.702l-6.687-20.778V23.778l21.168-11.098 8.589 11.104c.271.352.692.56 1.136.56h9.28l7.154 8.45 3.955 12.64c.017.057.04.115.063.167l3.493 7.67-6.001 3.394a1.443 1.443 0 00-.513 2.014l7.148 11.52c.15.237.364.427.617.543l9.656 4.536 6.923 8.374V94.96c0 .26.069.508.196.721h-.006l7.742 13.5 3.626 16.795-2.9 18.746c-2.674 1.939-5.672 4.473-5.926 6.222-.161 1.16-1.585 8.599-2.478 13.234z" fill="#E6E6E6"/><path d="M216.399 107.939l-7.096-12.38 21.341-10.827c.063-.03.121-.07.178-.104l6.318-4.444 1.147 2.949 18.187 7.157v8.565l12.44-3.273h3.263s1.245 5.137 1.868 6.383c.616 1.247 0 5.293 0 5.293l3.528 8.634-15.155-3.486-20.441-7.209a1.438 1.438 0 00-1.182.099l-6.67 3.711h-15.247c-.795 0-1.441.646-1.441 1.443v1.979l-.882-4.074a1.48 1.48 0 00-.156-.416z" fill="#E6E6E6"/><path d="M223.628 205.432l-5.695 1.553-.15-1.103 2.859-10.152-6.035-1.974-9.91-6.285v-3.59l8.146 2.851-3.909-9.263 2.756-3.919v-3.93l-2.865-4.312c.49-2.534 2.363-12.276 2.611-13.903.3-.728 2.727-2.898 5.246-4.687.317-.225.53-.566.588-.952l3.02-19.543.012-.069c.012-.069.017-.144.017-.219v-14.042H234.5c.248 0 .484-.064.698-.185l6.433-3.573 19.905 7.018c.052.018.103.035.155.047l16.227 3.734c.364.086.75.023 1.073-.173l5.032-3.077 12.717.133 15.541-3.734s9.016 2.176 9.638 2.488c.26.127 2.271.744 4.531 1.419l-.87.716h-16.268c-.432 0-.836.196-1.112.525l-4.854 5.864-11.253 4.45-12.589 2.892-14.844-4.295a1.457 1.457 0 00-.565-.046l-13.685 1.564-12.532-3.128c-.029 0-.063-.011-.098-.017l-9.206-1.639a1.797 1.797 0 00-.254-.018h-7.926v2.886h7.8l7.897 1.397v3.671l-2.859 7.71-2.398 3.025-4.94 3.261a1.438 1.438 0 00-.635 1.004l-.466 3.376-6.457 2.603a1.444 1.444 0 00-.813 1.83l2.681 7.468c.023.075.058.145.092.208l4.318 7.82c.052.104.121.197.202.283l4.196 4.554c.173.185.386.323.629.398.034.012 3.383 1.051 4.404 1.391.668.225 6.358 2.655 10.324 4.369v3.019c0 .796.646 1.443 1.441 1.443h3.499c.242 0 .479-.064.692-.179l1.383-.762 1.378 1.379v9.558c0 .796.646 1.443 1.441 1.443h21.104c.138 0 .277-.023.404-.058l16.06-4.75 1.994 5.708c.162.456.536.802 1.003.924l5.482 1.396c.116.035.237.047.352.047h9.753v1.552h-9.401c-.398 0-.784.167-1.055.456-.271.294-.41.687-.381 1.091l.369 5.223-6.704 1.102-10.578-6.048a1.417 1.417 0 00-.853-.185l-12.78 1.276-7.356-.347c-.098-.005-.201 0-.299.018l-11.541 1.864c-.052.011-.11.023-.161.04l-7.46 2.101c-.155.041-.305.11-.438.208l-5.107 3.59h-7.459l-3.995-5.27a1.456 1.456 0 00-1.528-.519z" fill="#336ABB"/><path d="M299.974 183.662l-7.863 4.432-17.011 5.033h-19.456v-8.715c0-.381-.15-.75-.421-1.016l-2.565-2.568a1.441 1.441 0 00-1.712-.248l-2.012 1.108h-1.683v-2.528c0-.577-.34-1.097-.87-1.322-1.055-.456-10.348-4.473-11.426-4.831-.853-.288-3.176-1.01-4.087-1.298l-3.816-4.138-4.173-7.567-2.174-6.054 5.938-2.401c.478-.191.818-.624.888-1.137l.495-3.556 4.583-3.024c.133-.086.242-.19.34-.312l2.681-3.382a1.5 1.5 0 00.219-.398l3.032-8.167c.063-.161.092-.334.092-.502v-3.29l10.993 2.742c.167.04.34.052.513.035l13.656-1.565 14.931 4.318a1.5 1.5 0 00.72.023l13.057-2.996c.069-.017.138-.04.207-.069l11.697-4.629c.224-.086.426-.231.582-.421l4.658-5.627h16.111c.335 0 .658-.116.917-.329l2.767-2.286c1.948.566 3.487 1.016 3.487 1.016s21.139-.773 21.762-1.397c.622-.623 13.523.779 13.99.779.133 0 .974.075 2.104.191l3.793 28.379-3.701 2.533a1.444 1.444 0 00-.449 1.882l9.58 17.563-3.187 1.8-4.422-2.499a1.432 1.432 0 00-1.989.6l-2.398 4.681h-14.509c-.565 0-1.084.335-1.314.854l-1.643 3.677-3.021-1.962a1.41 1.41 0 00-.859-.231l-4.427.231c-.144 0-.288.034-.421.086l-6.49 2.378-2.871-2.176a1.438 1.438 0 00-1.903.15l-2.144 2.205H324c-.254 0-.501.069-.72.19l-4.664 2.69a1.44 1.44 0 00-.721 1.247v4.011c0 .381.15.75.421 1.021l1.038 1.033h-7.281l-10.854-4.328a1.446 1.446 0 00-1.245.081z" fill="#E6E6E6"/><path d="M416.279 264.544l-2.957 6.672-.773-.854-4.975-3.267s-4.046-7.001-4.046-7.624c0-.623-5.592-2.649-5.592-2.649l-7.621-6.534-5.13-8.559 3.113-6.227-11.506 3.111h-8.86l-8.394-4.514h-15.702l-1.706-4.236-5.598-2.765-5.597-1.402s-8.238 1.247-8.705 1.247c-.466 0-6.525-.468-6.525-.468l-9.171 3.388s-8.866-.9-9.327-.277c-.467.623-7.465 0-7.465 0h-3.263l-7.31-3.457-5.747-2.142s-11.506-.311-12.128-.779c-.623-.467-9.172-2.649-9.172-2.649l-8.393.623-5.442 2.65-3.418-1.715-9.171 1.091-2.024-4.046-4.375-1.95-.98-7.342 5.13-1.396 3.84 5.061a1.45 1.45 0 001.147.572h8.629c.294 0 .588-.093.83-.266l5.275-3.711 7.148-2.009 11.31-1.829 7.315.34c.069.006.138 0 .208 0l12.428-1.235 10.618 6.072c.283.167.617.225.946.173l8.514-1.402a1.441 1.441 0 001.199-1.53l-.352-4.986h9.293c.795 0 1.441-.647 1.441-1.443v-4.439c0-.796-.646-1.443-1.441-1.443h-11.011l-4.554-1.165-1.798-5.131 6.352-3.584 10.475 4.184c.172.063.351.098.536.098h11.039a1.436 1.436 0 001.014-2.459l-3.072-3.082v-2.574l3.608-2.077h4.975c.392 0 .767-.156 1.038-.439l1.677-1.732 2.479 1.882a1.45 1.45 0 001.366.202l7.021-2.574 3.747-.196 4.041 2.626c.352.231.784.294 1.194.173.403-.121.732-.41.905-.797l1.948-4.357h14.457c.542 0 1.038-.306 1.28-.785l2.116-4.133 3.822 2.165c.444.248.98.248 1.418 0l3.885-2.199 8.849 15.433c.04.075.092.15.149.213l7.927 9.339c.259.306.628.485 1.02.508a1.41 1.41 0 001.066-.393l3.909-3.682 1.493 3.238a1.44 1.44 0 002.19.537l6.14-4.756h4.484l-3.078 8.986c-.109.318-.104.664.017.981l3.148 8.271-8.901 2.147a1.44 1.44 0 00-1.101 1.402v7.175c-.259.294-.605.698-.91 1.148-1.436 2.072-.957 3.284-.3 3.942.334.335 1.06 1.466 1.781 2.672h-2.398a1.44 1.44 0 00-1.038.445 1.458 1.458 0 00-.403 1.056l.461 11.693-1.579 6.095a1.42 1.42 0 000 .715l1.4 5.599c.064.254.196.485.381.675l4.392 4.398 5.431 6.268-.006-.006z" fill="#E6E6E6"/></g><defs><filter id="filter0_d_1233_809" x=".155" y=".219" width="422.914" height="278.997" filterUnits="userSpaceOnUse" color-interpolation-filters="sRGB"><feFlood flood-opacity="0" result="BackgroundImageFix"/><feColorMatrix in="SourceAlpha" values="0 0 0 0 0 0 0 0 0 0 0 0 0 0 0 0 0 0 127 0" result="hardAlpha"/><feOffset dy="4"/><feGaussianBlur stdDeviation="2"/><feComposite in2="hardAlpha" operator="out"/><feColorMatrix values="0 0 0 0 0 0 0 0 0 0 0 0 0 0 0 0 0 0 0.25 0"/><feBlend in2="BackgroundImageFix" result="effect1_dropShadow_1233_809"/><feBlend in="SourceGraphic" in2="effect1_dropShadow_1233_809" result="shape"/></filter></defs></svg>