<svg width="557" height="712" viewBox="0 0 557 712" fill="none" xmlns="http://www.w3.org/2000/svg"><g filter="url(#filter0_d_1210_839)"><path d="M17.758 210.229v-10.307h-8.52L0 177.903l17.406-7.093s4.25 10.289 6.394 10.289c2.142 0 33.74-10.289 33.74-10.289l7.466-22.721h18.477l3.197-27.707 9.59-7.094-1.07-14.205 20.603 4.969 11.364-.369 8.536-4.6h14.21l-1.423 15.258 9.239 4.969s-7.816 3.196-6.763 3.565c1.072.351 6.394 5.671 6.394 5.671l-9.942 17.752 9.239 5.338 11.716-9.938-.352-20.245 5.322-9.236h9.239l11.364 11.009-5.322 9.236-7.465 16.329 9.959 10.307 4.62-15.276s6.745 2.845 7.816 1.774c1.054-1.071 2.828-16.33 2.828-16.33l6.762-6.04 7.096-1.071 1.879-3.863 18.25 6.497v11.413l-31.546 65.985-10.38 41.122v31.131H167.88l-11.891 14.03h-9.432l-28.437 16.136-30.246 15.03-23.905 6.76-3.109-.93-13.98-25.039 13.506-9.236 12.787 9.236 8.519-11.711-15.615-9.956-.72-13.134s15.983-11.712 15.983-12.783c0-1.071-2.476-24.143-2.476-24.143l-6.394-3.915-6.042 7.111-48.67-21.667z" fill="#E6E6E6"/><path d="M140 191.452C140 199.98 130 206 130 206s-10-6.02-10-14.548c0-5.218 4.477-9.452 10-9.452s10 4.234 10 9.452z" stroke="#fff" stroke-width="1.18" stroke-linecap="round" stroke-linejoin="round"/><path d="M130 193a3 3 0 100-6 3 3 0 000 6z" stroke="#fff" stroke-width="1.18" stroke-linecap="round" stroke-linejoin="round"/><path d="M160.046 297.249l.51-.597v17.646l10.24 6.62v19.683l6.481-5.636 15.913 22.282-1.229 15.68-28.56 5.601 8.694 13.151-6.428 7.34h-5.34l-2.353-10.272-8.115 3.547v-.58l-6.007-9.991-3.935 4.917a288.402 288.402 0 00-3.916 4.899 870.85 870.85 0 01-4.62-6.725l3.144-12.414-11.469-11.343-7.272-18.911-11.54-7.515-7.886-9.464 25.784-12.765 26.733-15.153h11.171zm108.794-32.343l5.919-.544 5.778 39.612-93.477 10.834-7.482 6.514v-5.162l-10.24-6.638V286.31l2.617-3.09h35.269v-1.668l25.697-12.484 35.919-4.162z" fill="#E6E6E6"/><path d="M132.927 536.888l-5.041 1.475-7.816-15.276-32.688-3.915-8.167-12.783v-29.112l-22.377-5.689-7.816-10.465h12.436l5.322-6.936 7.464-2.844-8.887-17.278s11.013 1.194 11.013 0-9.59-34.924-9.59-34.924l-12.436-2.827-13.858-38.716 14.578 1.773-1.791-13.836-12.787-1.071-3.548-11.36 14.947-1.194 12.014 3.634 24.01-6.795 10.434 12.519 10.257 6.69 6.938 18.015 9.239 9.148-2.881 11.361 1.107 1.633s2.301 3.371 4.619 6.742c5.849 8.446 6.464 9.324 9.714 8.323l3.108-.966v-1.984c.176-.246.387-.527.633-.843v6.304l10.696-4.671 1.564 6.778h11.434l9.467 21.878h-17.055l30.861 31.377 2.213 9.956-4.04 7.515-14.631 19.735 4.215 14.135-14.016 3.793-13.384 5.215-15.474 15.486z" fill="#E6E6E6"/><path d="M334.583 659.254l4.303.913-9.239.351-3.899 18.472-11.364-14.574-27.717 32.326-15.632 4.969v-19.174l33.39-29.481-1.054-11.009-20.603-32.677-63.231-8.165-13.859-52.201-56.487-6.392-7.974-1.597 12.102-12.098 10.995-4.32 22.465-6.093-5.515-18.541 12.19-16.47 6.094-11.203-3.477-15.609-17.934-18.226h9.468l-14.807-34.239 10.328-11.8-5.164-7.796 22.236-4.354 1.985-25.513-18.249-25.583 6.85-5.952 90.368-10.465v24.6h-5.866l-32.283 28.69 56.627 15.944v18.454l-9.046 8.428 7.799 7.778-12.032 18.279 13.788 11.571 6.675 24.634h1.282l-17.687 20.246 4.443 35.45-49.303 5.953-35.146-17.928 29.965 39.999v11.852l19.76 12.379h17.037l31.879 21.456 23.818 17.84h10.275l-8.554 40.876z" fill="#E6E6E6"/><path d="M267.926 256.18l-37.5 4.337-23.202 11.29V244.38l9.713-38.822 32.213-67.372v-19.595l-22.939-8.165 10.363-.334 2.494-20.596 9.59-7.462h9.942l19.9-26.637h14.21l1.51 2.072-7.201 14.416V81.91l-9.836 6.496h-9.713v20.017l-10.644 6.392V205.4l6.621 19.402 21.376-7.374 7.483 6.18h17.845l-4.198 5.092.913 7.726-5.181 4.899 5.726 11.185-39.485 3.67z" fill="#336ABB"/><path d="M279.817 97.187l15.984-10.553V73.957l4.25-8.499 2.249 3.073 4.619-6.04-1.423-12.414s21.675-14.574 22.026-15.627c.351-1.071 1.071-19.894 1.071-19.894L341.38 0l1.423 17.05 15.632 3.195.703 9.938 23.097 6.743-3.197 9.235-5.339 7.814.351 42.615 12.435-9.587 19.901 8.884s37.289-32.676 38.712-32.676c1.422 0 21.323-2.493 21.323-2.493v12.431l-47.248 28.761-.72 13.151-7.096 1.774-5.322-8.165-13.156 8.516 17.775 17.4-20.972 32.677.334.298-17.16 18.349-23.8 21.825-11.733-2.352-18.882 9.446h-22.974l-8.852-7.304-17.705 6.11-3.302-9.692v-84.158l10.644-6.392V97.187h3.565z" fill="#E6E6E6"/><path d="M557 421.88l-4.971 20.947-16.703 20.596-9.222-8.516-7.816 8.516 2.828 19.894-5.322 6.391h-11.715l-9.59-22.369-4.989 5.671-12.418-13.485-7.465 11.361-5.339-10.307-5.146 1.422-9.766-8.165-14.561 15.627 20.252 20.245h-17.055l-.352 6.041s32.319 34.432 33.39 33.73c1.054-.72 13.858.017 13.858.017l7.799 12.414 15.281 6.743-3.197 10.658h-11.715l-5.34-11.361-2.125 11.361h-5.691l-5.673-17.05-10.662.351-.351 25.566 10.662 48.303 1.053 30.535-15.807 18.12v17.401l-21.482 25.916L404.612 712l-65.726-30.183 4.268-7.094-4.268-14.556 4.303.896 10.75-51.465h-18.144l-21.569-16.153-34.391-23.143h-17.178l-13.507-8.445v-9.939l-9.063-12.08 3.864 1.967 60.702-7.322-5.041-40.297 27.805-31.834h-13.876l-5.638-20.807-9.907-8.322 11.663-17.717-6.428-6.426 5.181-4.829V375.35l-47.582-13.398 17.793-15.82h11.311v-34.397l.615-.07-7.043-48.128 37.605-3.495-8.606-16.856 3.583-3.406-.984-8.376 7.149-8.656h.017l16.282-8.165 13.139 2.634 27.224-24.951 17.67-18.893 14.772 13.064-34.462 25.916-8.167-2.124v20.596h7.816v35.503l-3.917 6.392-11.364-7.445v7.445l7.641 6.76 21.85 22.369h13.489l30.913 49.709 18.478 64.984h28.05l14.93 26.285 11.364-17.752v-15.276l-3.899-19.525 8.518-11.36 19.532 14.205 17.055.702L557 421.88z" fill="#E6E6E6"/></g><defs><filter id="filter0_d_1210_839" x="-4" y="0" width="565" height="720" filterUnits="userSpaceOnUse" color-interpolation-filters="sRGB"><feFlood flood-opacity="0" result="BackgroundImageFix"/><feColorMatrix in="SourceAlpha" values="0 0 0 0 0 0 0 0 0 0 0 0 0 0 0 0 0 0 127 0" result="hardAlpha"/><feOffset dy="4"/><feGaussianBlur stdDeviation="2"/><feComposite in2="hardAlpha" operator="out"/><feColorMatrix values="0 0 0 0 0 0 0 0 0 0 0 0 0 0 0 0 0 0 0.25 0"/><feBlend in2="BackgroundImageFix" result="effect1_dropShadow_1210_839"/><feBlend in="SourceGraphic" in2="effect1_dropShadow_1210_839" result="shape"/></filter></defs></svg>