<svg width="350" height="409" viewBox="0 0 350 409" fill="none" xmlns="http://www.w3.org/2000/svg">
<path d="M156.591 93.2798V102.527C134.993 145.706 132.179 151.548 131.813 152.581H131.789C131.503 153.666 123.093 178.242 117.507 194.497L113.123 224.901L115.28 238.431L112.146 239.925H94.6312L88.5188 243.189L81.495 250.21L62.0069 256.785L61.8236 256.954C60.5034 258.17 58.892 259.603 58.4597 259.908C56.7449 260.505 36.9514 267.422 26.2066 271.179L18.5297 270.419C18.5297 270.419 14.9215 253.037 14.6349 252.657C14.3483 252.276 16.7256 246.96 16.7256 246.96C16.7256 246.96 13.3053 222.835 13.2114 222.548C13.1127 222.262 10.8341 209.821 10.8341 209.821L15.1094 206.97L13.6859 203.932H9.88504L9.31186 192.341C9.31186 192.341 15.6779 190.918 15.9645 191.012C16.2511 191.106 15.49 172.968 15.49 172.588C15.49 172.208 11.9757 171.066 11.9757 171.066L10.928 166.887L4.46802 165.651L12.5442 122.341L30.4068 124.431L41.9033 115.503L65.4695 115.405L67.8467 113.315L70.5059 113.888V104.673L71.7415 102.677V100.207L73.5457 96.788C73.5457 96.788 76.3975 97.1685 76.6841 97.361C76.966 97.5489 78.3942 99.6388 78.5821 100.207C78.7747 100.78 75.2558 102.677 75.2558 102.677L74.5934 105.908L71.7415 110.182C71.7415 110.182 74.0202 113.695 74.4007 114.075C74.7813 114.456 78.1076 114.93 78.1076 114.93L81.5279 118.542L84.7603 115.879V111.417C84.7603 111.417 88.0866 110.943 88.3685 111.037C88.6551 111.131 90.6518 94.2238 90.6518 94.2238C90.6518 94.2238 98.4414 92.9887 99.2965 92.8947C100.152 92.8008 99.2965 94.2238 99.2965 94.7968C99.2965 95.3697 102.148 94.7968 102.529 94.8907C102.909 94.9846 103.003 96.8867 103.003 96.8867C103.003 96.8867 107.185 100.587 107.373 100.968C107.565 101.348 105.475 104.387 105.475 105.148C105.475 105.908 103.666 110.276 103.666 110.563C103.666 110.849 105.094 112.746 105.381 113.033C105.663 113.315 103.952 115.691 103.952 115.691L101.101 122.722C101.101 122.722 107.946 127.089 108.326 127.277C108.702 127.47 110.225 124.332 110.511 124.145C110.793 123.957 112.79 119.49 112.982 119.204C113.17 118.922 115.449 114.456 115.355 114.169C115.261 113.888 122.008 117.307 122.008 117.307H124.479L123.431 114.268C123.431 114.268 123.337 110.943 123.431 110.563C123.525 110.182 125.808 107.425 125.808 107.425V103.438C125.808 103.438 130.178 101.254 130.558 101.254C130.939 101.254 134.74 99.2584 134.74 99.2584L141.012 95.8394V86.7237C141.012 86.7237 142.027 86.6861 142.868 86.6814H142.872C146.617 88.4144 152.358 91.1946 156.591 93.2798Z" fill="#336ABB"/>
<path d="M69.9372 194.099C69.9372 198.293 64.9206 201.254 64.9206 201.254C64.9206 201.254 59.9041 198.293 59.9041 194.099C59.9041 191.533 62.1498 189.45 64.9206 189.45C67.6915 189.45 69.9372 191.533 69.9372 194.099Z" stroke="white" stroke-width="1.18038" stroke-linecap="round" stroke-linejoin="round"/>
<path d="M64.9206 194.983C65.7731 194.983 66.4642 194.323 66.4642 193.508C66.4642 192.693 65.7731 192.032 64.9206 192.032C64.0682 192.032 63.3771 192.693 63.3771 193.508C63.3771 194.323 64.0682 194.983 64.9206 194.983Z" stroke="white" stroke-width="1.18038" stroke-linecap="round" stroke-linejoin="round"/>
<path d="M220.176 188.964L214.402 196.488L214.515 197.019C214.929 198.977 215.37 201.175 215.483 201.856C215.3 202.25 214.759 203.147 214.322 203.824L211.569 207.736L211.767 208.304C212.448 210.272 213.674 213.808 214.055 214.926C213.81 215.452 213.12 216.631 212.443 217.706L186.946 220.552L152.767 223.102L152.569 223.201C144.484 227.108 135.346 231.359 133.565 231.918C132.968 231.767 131.742 231.683 129.013 231.965L128.811 231.988L117.488 237.379L115.496 224.882L119.767 195.154C133.175 156.127 134.049 153.3 134.105 152.891C134.105 153.018 134.073 153.117 134.054 153.173C134.899 151.21 152.17 116.616 158.818 103.33L158.94 103.081V91.8146L158.287 91.4952C158.24 91.4717 153.664 89.2175 149.121 87.0383C147.735 86.3761 146.49 85.7844 145.4 85.2725C145.762 84.8169 146.048 84.4412 146.048 84.4412L149.375 78.8384L154.505 75.9877V73.137L156.403 70.5728L158.019 67.3463L161.44 64.6835L167.9 65.8247V67.2477L174.172 68.5815L176.643 67.3463C176.643 67.3463 180.35 72.7566 180.636 73.0431C180.716 73.1276 181.102 73.2591 181.623 73.4047C180.059 79.463 178.583 85.1457 178.447 85.5824C178.226 86.1883 175.384 92.0306 173.641 95.5764L173.519 95.8206V120.805L169.027 144.25L169.008 172.438L176.906 184.146H190.202L195.741 181.624L204.724 184.179L205.006 184.122C205.006 184.122 206.345 183.845 207.651 183.54C208.952 183.235 209.845 183.028 210.399 182.751C211.668 182.793 216.766 183.366 221.68 183.967L220.176 188.964Z" fill="#E6E6E6"/>
<path d="M82.7682 252.258L87.6919 247.336L86.508 258.062L89.9142 268.803L94.6405 277.125V285.17L95.0023 285.518C102.82 292.933 103.102 292.933 103.67 292.933H106.217L113.137 307.722V317.988L110.013 320.116L112.616 325.315L89.7356 331.378L94.8614 342.682L89.4396 346.81L89.3222 346.312C89.3222 346.312 73.4517 349.731 73.2637 350.206C73.0711 350.68 73.3577 343.175 73.2637 342.513C73.1651 341.846 68.9837 343.65 68.7018 344.791C68.4152 345.932 65.4694 336.906 65.4694 336.906L58.2483 344.791L52.6433 337.666L40.2918 344.791L26.9865 320.665C26.9865 320.665 20.3338 328.645 20.1459 328.076C19.958 327.503 16.7256 328.17 16.439 328.076C16.1571 327.978 15.49 318.101 15.49 318.101L12.8308 314.396L11.6891 306.797H7.79431L9.50446 304.9L0 285.809L7.98224 284.574L18.4357 278.586L28.2221 273.65L28.1939 272.969C39.5354 269.005 58.9389 262.223 59.3148 262.097C59.5591 262.017 59.9255 261.895 63.2331 258.851L82.7682 252.258Z" fill="#E6E6E6"/>
<path d="M109.026 273.523L96.9896 282.347V276.505L92.08 267.859L88.8993 257.828L90.3275 244.884L95.2184 242.273H112.677L129.454 234.28C130.788 234.153 132.367 234.083 132.879 234.162C133.518 234.59 134.321 234.393 143.948 229.898C148.186 227.916 152.428 225.873 153.387 225.413L186.002 222.976L191.292 265.84L155.811 268.869L109.026 273.523Z" fill="#E6E6E6"/>
<path d="M185.584 290.975L163.953 312.696L170.502 317.876L173.171 314.26L178.414 318.331L175.036 321.896L182.361 326.949L182.295 327.921L172.936 324.559C172.936 324.559 171.038 325.888 170.751 326.08C170.465 326.268 168.186 324.751 168.186 324.751L162.295 329.593L159.589 328.551C159.589 328.551 156.976 328.931 156.69 329.025C156.403 329.119 156.215 331.209 156.023 331.495C155.835 331.777 153.269 334.628 153.269 334.914C153.269 335.201 153.457 338.996 153.363 339.282C153.269 339.568 151.179 343.936 151.179 343.936L157.545 347.642C157.545 347.642 154.406 350.967 154.125 350.967C153.843 350.967 151.559 351.629 151.559 351.629L149.276 350.492C149.276 350.492 150.037 348.402 149.75 348.21C149.469 348.022 148.421 346.406 148.421 346.406L142.055 345.265C142.055 345.265 141.674 348.684 141.012 348.971C140.345 349.257 138.635 353.719 138.635 353.719C138.635 353.719 135.975 354.86 135.501 355.146C135.026 355.428 139.302 347.261 139.302 347.261L132.837 347.069L133.218 345.359L131.606 343.936C131.606 343.936 122.863 349.919 122.769 350.394C122.67 350.868 123.525 358.373 123.525 358.946C123.525 359.519 120.772 360.655 120.772 360.655C120.772 360.655 121.815 362.172 121.914 362.459C122.008 362.745 119.348 363.976 118.869 364.074C118.395 364.168 122.008 372.429 122.008 372.429L99.1086 378.131C99.1086 378.131 95.8762 373.284 95.4957 372.622C95.1151 371.955 95.9702 367.113 95.9702 367.113C95.9702 367.113 91.9814 360.463 91.6948 360.082C91.4129 359.702 91.2203 354.292 91.2203 354.292L90.0364 349.309L97.7743 343.42L93.0244 332.937L116.008 326.846L113.034 320.9L115.487 319.228V307.201L107.711 290.585H104.009C103.168 289.923 100.382 287.363 97.6428 284.78L109.9 275.796L156.027 271.208L191.536 268.174L193.34 289.754L185.584 290.975Z" fill="#E6E6E6"/>
<path d="M300.643 378.224V384.208L275.084 380.883L270.616 377.37L263.301 378.511L246.388 355.621L243.536 356.95L239.735 352.103C239.735 352.103 235.84 358.659 235.554 358.946C235.272 359.228 234.318 355.522 234.318 355.522L231.659 354.766L227.097 354.573C227.097 354.573 228.713 361.604 228.619 362.078C228.525 362.553 226.341 365.972 226.341 365.972L221.967 362.078C221.967 362.078 219.876 367.113 219.782 367.399C219.688 367.681 224.344 373.763 224.438 374.425C224.532 375.092 218.927 376.801 218.927 376.801L217.978 366.638L215.887 360.937L211.231 367.301C211.231 367.301 214.557 374.712 214.557 374.998C214.557 375.285 213.416 380.314 213.416 380.314C213.416 380.314 215.413 385.823 215.413 386.11C215.413 386.396 219.307 394.469 219.307 394.469L227.196 398.363L225.199 403.017L222.159 402.256L218.739 404.44L220.637 409C220.637 409 217.217 406.624 216.93 406.53C216.648 406.436 210.376 387.627 210.376 387.627H212.086L211.231 381.93L205.34 378.131L206.669 376.801L204.672 373.763L206.956 372.147L206.383 370.057C206.383 370.057 198.593 365.591 198.306 365.497C198.025 365.403 194.224 354.099 194.224 354.099H199.354L199.26 351.629C199.26 351.629 201.727 348.022 201.727 347.735C201.727 347.449 205.434 354.667 205.434 355.048C205.434 355.428 211.894 350.586 211.894 350.586V344.603L213.984 342.32L199.26 332.157L195.835 334.816L192.701 331.397H188.426C188.252 331.397 186.162 330.157 184.564 329.194L184.799 325.78L178.63 321.52L181.9 318.064L172.706 310.925L170.051 314.527L167.477 312.489L186.707 293.177L195.863 291.736L193.876 267.976L193.777 266.807L188.342 222.76L213.815 219.918L214.121 219.449C216.705 215.428 216.568 215.025 216.399 214.513C216.291 214.193 214.745 209.718 214.186 208.102L216.272 205.139C217.851 202.697 217.851 202.255 217.851 201.969C217.851 201.837 217.851 201.494 216.925 197.061L222.3 190.054L223.879 184.808L224.344 185.221L229.474 179.806L244.297 177.143C244.297 177.143 249.714 179.9 249.902 180.375C250.095 180.849 241.732 187.687 241.544 187.973C241.351 188.26 240.59 184.46 240.59 184.46L236.888 180.468L232.707 186.17L235.746 189.509L238.406 193.482L241.065 192.341L247.623 196.333L260.168 191.012L260.356 200.513L261.878 203.077C261.878 203.077 271.377 199.658 271.664 199.658C271.951 199.658 272.233 201.461 272.233 201.461C272.233 201.461 269.479 204.12 269.287 204.5C269.099 204.88 272.801 216.091 272.801 216.753C272.801 217.415 269.954 220.646 269.954 220.646C269.954 220.646 272.801 226.916 272.801 227.296C272.801 227.677 271.19 230.241 271.19 230.241C271.19 230.241 263.489 226.155 263.207 226.348C262.921 226.535 262.352 229.1 262.352 229.1L259.881 234.327L262.733 236.036L272.233 240.117L274.61 238.887C274.61 238.887 287.149 257.024 287.149 257.311C287.149 257.597 287.816 261.585 287.816 262.059C287.816 262.533 270.522 270.513 270.335 270.893C270.142 271.273 271.284 272.983 271.284 272.983L270.715 274.312L272.425 277.449C272.425 277.449 268.244 278.966 267.769 279.159C267.29 279.346 268.432 275.167 268.432 274.786C268.432 274.406 265.679 272.795 265.679 272.795L262.16 275.547L258.932 273.838L257.123 275.641L250.475 275.073L248.098 272.701L246.768 269.658C246.768 269.658 243.536 266.431 243.254 266.239C242.967 266.051 245.246 266.525 245.533 266.525C245.819 266.525 247.811 264.623 247.91 264.341C248.004 264.055 240.308 248.097 240.308 248.097L241.92 243.349L238.406 240.784L234.605 242.494L235.079 246.199L231.753 248.383L233.942 254.935C233.942 254.935 229.094 262.914 228.906 263.2C228.713 263.487 228.619 271.179 228.619 271.179C228.619 271.179 227.858 276.308 227.858 276.594C227.858 276.881 230.616 280.868 230.616 280.868C230.616 280.868 230.329 287.42 230.329 287.894C230.329 288.368 234.699 292.074 234.699 292.074L233.463 294.45L235.46 297.775L231.184 306.323L239.928 321.994C239.928 321.994 238.598 323.99 238.312 324.465C238.025 324.939 242.493 332.064 242.493 332.064L240.496 341.94L246.007 342.607L248.572 340.804L251.232 344.983C251.232 344.983 257.029 345.646 257.41 345.646C257.79 345.646 259.406 348.022 259.406 348.022C259.406 348.022 258.932 353.437 259.026 353.719C259.12 354.005 263.301 355.902 263.301 355.902H269.573L270.428 353.719L275.084 354.573L297.795 348.496L297.034 362.078C297.034 362.078 294.375 361.13 293.896 361.224C293.421 361.317 290.001 357.33 290.001 357.33L278.124 359.8L277.363 356.377L273.182 358.373L269.667 357.424L265.96 359.894L293.995 369.677L300.643 378.224Z" fill="#E6E6E6"/>
<path d="M349.391 53.0975L329.057 71.5262C329.057 71.5262 324.021 71.4275 323.448 71.6201C322.879 71.8079 279.454 104.96 279.454 104.96H276.602C276.602 104.96 269.099 109.708 268.906 110.182C268.718 110.657 269.005 107.998 269.005 107.998H266.534L262.066 104.105L257.602 107.998L257.123 111.225C257.123 111.225 257.316 117.969 257.316 118.255C257.316 118.542 254.844 121.012 254.558 121.294C254.276 121.58 249.714 121.674 249.239 121.768C248.765 121.867 244.391 126.615 244.391 126.615L240.402 131.649L235.84 135.355C235.84 135.355 236.127 137.919 236.127 138.3C236.127 138.68 229 145.419 228.713 145.8C228.431 146.18 228.145 149.219 227.952 149.599C227.764 149.98 230.517 154.728 230.517 154.728C230.517 154.728 227.477 156.916 227.097 157.39C226.721 157.865 231.659 163.754 231.753 164.036C231.851 164.322 228.332 173.062 228.239 173.537C228.168 173.903 224.386 179.266 222.643 181.722C210.193 180.173 209.732 180.281 209.258 180.689C208.656 180.905 206.613 181.384 204.813 181.765L195.553 179.125L189.69 181.798H178.156L171.357 171.719V144.583L175.868 121.026V96.3654C177.08 93.9045 180.42 87.0806 180.669 86.3339C180.824 85.8737 182.469 79.5288 183.897 73.9683C184.597 74.1233 185.189 74.2454 185.386 74.2783C185.955 74.3722 188.233 72.6627 188.233 72.6627C188.233 72.6627 192.607 70.6714 193.082 70.5728C193.556 70.4789 196.122 67.4403 196.502 66.966C196.883 66.4916 198.973 61.7389 198.973 61.0767C198.973 60.4145 197.926 56.7043 197.832 56.1361C197.738 55.5678 200.303 53.0036 200.303 53.0036C200.303 53.0036 204.484 50.3407 205.053 50.1528C205.626 49.965 206.575 47.5886 206.956 46.6399C207.336 45.6866 209.046 44.9305 209.521 44.8318C209.995 44.7379 211.325 41.9858 211.419 41.4128C211.518 40.8446 213.129 37.4256 213.129 37.4256L215.412 32.2032C215.412 32.2032 217.597 33.2458 217.884 33.4337C218.166 33.6262 219.782 31.6302 220.068 31.4424C220.35 31.2498 222.159 27.4505 222.441 27.07C222.728 26.6896 226.622 26.5018 226.622 26.5018V23.3693L231.278 22.7963L231.753 16.8131L230.235 15.2962L232.707 13.3002V8.64607C232.707 8.64607 234.797 8.35959 235.554 8.35959C236.31 8.35959 235.554 3.04327 235.554 3.04327L238.405 0L245.627 7.03051C245.627 7.03051 248.859 5.79536 249.146 5.88928C249.427 5.98321 254.083 9.21434 254.083 9.21434L256.841 7.21837L256.367 9.30826C256.367 9.30826 255.512 12.2529 255.38 12.6333C255.248 13.0137 257.41 14.3428 257.41 14.3428L256.935 17.8604H260.83L265.105 19.6638L262.921 21.5612L261.972 23.6511C261.972 23.6511 259.787 25.1727 259.312 25.2666C258.833 25.3606 258.077 32.2032 258.077 32.2032C258.077 32.2032 259.787 34.7674 259.975 35.0492C260.167 35.3357 258.551 37.8999 258.551 38.0878C258.551 38.2757 255.38 38.0878 255.38 38.0878C255.38 38.0878 255.887 40.6567 255.446 41.1311C255.004 41.6054 256.935 42.648 256.935 42.648C256.935 42.648 256.649 44.2636 257.316 45.0244C257.978 45.7852 257.79 46.7339 257.79 46.7339C257.79 46.7339 256.268 47.969 255.7 48.6312C255.131 49.2981 255.7 50.7211 255.7 50.7211V53.0975C255.7 53.0975 257.029 54.4266 256.841 54.713C256.649 54.9948 258.359 56.6104 258.457 56.8969C258.551 57.1834 259.406 57.9395 259.406 58.226C259.406 58.5124 259.594 60.4098 259.594 60.6963C259.594 60.9827 256.841 66.1112 256.841 66.1112C256.841 66.1112 258.645 68.9572 259.026 68.8633C259.406 68.7694 256.841 71.9019 256.841 71.9019C256.841 71.9019 259.975 76.7486 259.975 77.129C259.975 77.5094 282.019 68.8633 282.019 68.8633L310.429 67.8207L337.415 48.3494L343.593 52.811L347.014 49.965L349.391 53.0975Z" fill="#E6E6E6"/>
</svg>
