<svg width="27" height="26" viewBox="0 0 27 26" fill="none" xmlns="http://www.w3.org/2000/svg">
<path fill-rule="evenodd" clip-rule="evenodd" d="M2.51172 10.4224C2.51172 5.77731 6.27731 2.01172 10.9224 2.01172C15.5675 2.01172 19.3331 5.77731 19.3331 10.4224C19.3331 15.0675 15.5675 18.8331 10.9224 18.8331C6.27731 18.8331 2.51172 15.0675 2.51172 10.4224ZM10.9224 0.0117188C5.17275 0.0117188 0.511719 4.67275 0.511719 10.4224C0.511719 16.1721 5.17275 20.8331 10.9224 20.8331C13.4372 20.8331 15.7437 19.9415 17.543 18.4571L24.7811 25.6951C25.1716 26.0857 25.8048 26.0857 26.1953 25.6951C26.5858 25.3046 26.5858 24.6715 26.1953 24.2809L18.9572 17.0429C20.4415 15.2435 21.3331 12.9371 21.3331 10.4224C21.3331 4.67275 16.6721 0.0117188 10.9224 0.0117188Z" fill="#CAA57B"/>
</svg>
