<svg width="16" height="16" viewBox="0 0 16 16" fill="none" xmlns="http://www.w3.org/2000/svg">
<g clip-path="url(#clip0_274_590)">
<path d="M8.41417 0.258381L10.6598 4.59004C10.7284 4.72091 10.8486 4.81252 10.989 4.84033L15.6128 5.74003C15.9811 5.81201 16.1278 6.28312 15.8688 6.56776L12.6323 10.1453C12.5339 10.2533 12.4887 10.4021 12.5074 10.551L13.1191 15.4388C13.1675 15.8282 12.7852 16.1193 12.4481 15.9508L8.20194 13.8308C8.07398 13.767 7.92417 13.767 7.7962 13.8308L3.55003 15.9508C3.2114 16.1193 2.82907 15.8282 2.87901 15.4388L3.49073 10.551C3.50946 10.4038 3.46264 10.2533 3.36589 10.1453L0.129373 6.56776C-0.128112 6.28312 0.0170162 5.81201 0.385299 5.74003L5.00912 4.84033C5.14956 4.81252 5.26972 4.72091 5.33839 4.59004L7.58397 0.258381C7.76343 -0.086778 8.23471 -0.086778 8.41417 0.258381Z" fill="#F2C64D"/>
</g>
<defs>
<clipPath id="clip0_274_590">
<rect width="16" height="16" fill="white"/>
</clipPath>
</defs>
</svg>
