<svg width="21" height="14" viewBox="0 0 21 14" fill="none" xmlns="http://www.w3.org/2000/svg">
<g clip-path="url(#clip0_5132_140)">
<path d="M20.9871 5.3597C20.9799 4.96536 20.9458 4.46866 20.8882 3.86624C20.8289 3.26549 20.7462 2.72684 20.6365 2.25363C20.5107 1.72168 20.2392 1.27364 19.8221 0.907827C19.4049 0.543689 18.9177 0.332255 18.3621 0.273523C16.6271 0.0906149 14.0075 0 10.4979 0C6.98833 0 4.37052 0.0906149 2.6355 0.273523C2.07994 0.332255 1.59629 0.543689 1.18276 0.907827C0.769236 1.27196 0.499544 1.72 0.373688 2.25363C0.256821 2.72684 0.168722 3.26549 0.111188 3.86624C0.0518555 4.46866 0.0194925 4.96536 0.0105028 5.3597C0.00331101 5.75405 -0.00208282 6.30109 -0.00208282 7.00084C-0.00208282 7.70059 0.00151307 8.24763 0.0105028 8.64197C0.0176946 9.03632 0.0518555 9.53302 0.111188 10.1338C0.168722 10.7362 0.253225 11.2732 0.3629 11.7481C0.488756 12.28 0.760246 12.728 1.17737 13.0938C1.59449 13.458 2.08174 13.6694 2.6355 13.7282C4.37052 13.9111 6.99192 14.0017 10.4979 14.0017C14.0039 14.0017 16.6271 13.9111 18.3621 13.7282C18.9177 13.6694 19.4013 13.458 19.8167 13.0938C20.2302 12.7297 20.4999 12.28 20.6257 11.7481C20.7426 11.2748 20.8307 10.7362 20.89 10.1338C20.9494 9.53302 20.9817 9.03464 20.9889 8.64197C20.9961 8.24763 21.0015 7.70059 21.0015 7.00084C21.0015 6.30109 20.9979 5.75405 20.9889 5.3597H20.9871ZM14.6476 7.59151L8.64783 11.0903C8.53816 11.1624 8.40511 11.1993 8.25048 11.1993C8.13362 11.1993 8.01316 11.1708 7.8873 11.1121C7.63019 10.9795 7.50074 10.7765 7.50074 10.4996V3.50042C7.50074 3.22354 7.63019 3.01882 7.8873 2.88793C8.1534 2.75704 8.40691 2.76375 8.64783 2.90974L14.6476 6.41016C14.8813 6.53434 15 6.73067 15 7.00084C15 7.27101 14.8831 7.46734 14.6476 7.59151Z" fill="white"/>
</g>
<defs>
<clipPath id="clip0_5132_140">
<rect width="21" height="14" fill="white"/>
</clipPath>
</defs>
</svg>
