<svg width="68" height="75" viewBox="0 0 68 75" fill="none" xmlns="http://www.w3.org/2000/svg"><g clip-path="url(#clip0_68_1248)"><path d="M66.41 33.62h-.18V5.66c0-.41-.33-.75-.75-.75H7.69c-.41 0-.75.34-.75.75v27.96h-.16c-.42 0-.75.33-.75.75v7.25c0 .42.33.75.75.75h.16v14.28c0 .42.34.75.75.75h5.28v4.18h-1.93c-.42 0-.75.34-.75.75v5.1c0 .42.33.75.75.75h5.7v4.17c0 1.31 1.07 2.37 2.38 2.37h4.21c1.31 0 2.37-1.06 2.37-2.37v-4.17h21.77v4.17c0 1.31 1.07 2.37 2.38 2.37h4.21c1.31 0 2.37-1.06 2.37-2.37v-4.17h5.72c.41 0 .75-.33.75-.75v-5.1c0-.41-.34-.75-.75-.75H60.2V57.4h5.28c.42 0 .75-.33.75-.75V42.37h.18c.41 0 .75-.33.75-.75v-7.25c0-.42-.34-.75-.75-.75z" fill="#F2F1E3"/><path d="M11 36.07v3.74h39.12V19.12c0-2.38-1.94-4.31-4.31-4.31h-30.5c-2.38 0-4.3 1.93-4.3 4.31v10.45" stroke="#CAA57B" stroke-width="1.5" stroke-linecap="round" stroke-linejoin="round"/><path d="M11 28.23v-9.11c0-2.38 1.93-4.31 4.3-4.31h30.51c2.37 0 4.31 1.93 4.31 4.31v20.69H11v-2.14m-6.58-.96h3.24m49.05 0h-3.25m-28.55 3.1l-2.45-4.21m-9.13 0h14.92m16.2 4.21L42 35.6m-9.13 0h14.92m8.33 21.82H5.01v5.1h51.11v-5.1z" stroke="#CAA57B" stroke-width="1.5" stroke-linecap="round" stroke-linejoin="round"/><path d="M11.47 62.51h7.46v4.92c0 .89-.73 1.62-1.62 1.62h-4.22c-.89 0-1.62-.73-1.62-1.62v-4.92zm30.73 0h7.46v4.92c0 .89-.73 1.62-1.62 1.62h-4.22c-.89 0-1.62-.73-1.62-1.62v-4.92zM4.42 29.45H.75v7.26h3.67v-7.26zm55.96 0H56.7v7.26h3.68v-7.26zm-12.2 19.6H36.6v5.36h11.58v-5.36zm-23.66 0H12.94v5.36h11.58v-5.36z" stroke="#CAA57B" stroke-width="1.5" stroke-linecap="round" stroke-linejoin="round"/><path d="M11 26.07v-6.94c0-2.38 1.93-4.31 4.3-4.31h30.51c2.37 0 4.31 1.93 4.31 4.31v20.69H11v-4.57m34.81-23.73h-30.5c-4.19 0-7.61 3.4-7.61 7.61v38.29h45.73V19.13a7.6 7.6 0 00-7.61-7.61h-.01zM24.52 54.41H12.94v-5.36h11.58v5.36zm23.66 0H36.6v-5.36h11.58v5.36zM1.66 10.43V.75h40.99" stroke="#CAA57B" stroke-width="1.5" stroke-linecap="round" stroke-linejoin="round"/><path d="M52.91.75h6.55v28.7h-2.75v7.26h2.75v15.03h-6.03V19.13a7.6 7.6 0 00-7.61-7.61H15.31c-4.19 0-7.61 3.4-7.61 7.61v32.61H1.66V36.71h2.75v-7.26H1.66v-8.5" stroke="#CAA57B" stroke-width="1.5" stroke-linecap="round" stroke-linejoin="round"/></g><defs><clipPath id="clip0_68_1248"><path fill="#fff" d="M0 0h67.16v74.72H0z"/></clipPath></defs></svg>