<svg width="101" height="88" viewBox="0 0 101 88" fill="none" xmlns="http://www.w3.org/2000/svg"><g clip-path="url(#clip0_61_863)"><path d="M99.43 43.15c-1.28.19-2.53.43-3.69.71-.35.08-.69.18-1.03.27l.05-3.11c0-.2-.07-.39-.21-.54a.71.71 0 00-.52-.22l-3.47-.06a38.29 38.29 0 00-6.84-17.3l2.49-2.41a.75.75 0 00.22-.53c.01-.2-.07-.39-.21-.54l-6.92-7.15a.71.71 0 00-.52-.22c-.2.02-.39.07-.54.21l-2.49 2.42a38.465 38.465 0 00-17.07-7.39l.06-3.48c0-.2-.08-.39-.22-.54a.71.71 0 00-.52-.22l-9.94-.16a.81.81 0 00-.54.21.75.75 0 00-.22.53l-.05 3.47c-6.23.82-12.2 3.18-17.31 6.84l-2.42-2.5a.754.754 0 00-1.06-.01l-7.14 6.91a.8.8 0 00-.23.52c0 .2.08.4.22.54l2.42 2.5a38.287 38.287 0 00-7.4 17.07l-3.48-.06a.754.754 0 00-.54.21c-.14.14-.22.33-.22.52l-.17 9.94c0 .42.33.76.74.77l3.48.06c.82 6.23 3.18 12.18 6.85 17.29l-2.51 2.42c-.14.14-.22.32-.22.52-.01.2.07.4.21.54l6.92 7.14c.14.15.34.23.53.23s.38-.07.53-.21l2.49-2.42c2.23 1.72 4.64 3.18 7.18 4.34-.03.01-.05.02-.08.03-1.67.53-3.26.92-4.87 1.19-1.58.26-3.21.4-4.85.41-1.6.01-3.24-.12-4.85-.37-1.58-.25-3.22-.63-4.86-1.15-1.59-.49-3.23-1.12-4.88-1.89-1.6-.73-3.25-1.6-4.91-2.6-.42-.25-.83-.5-1.26-.77a.747.747 0 10-.79 1.27c.31.2.62.38.93.57v8.16a.749.749 0 101.5 0v-7.3c1.16.67 2.32 1.29 3.47 1.82v5.48a.749.749 0 101.5 0V80.3c1.16.5 2.33.95 3.46 1.32v3.49c0 .41.34.75.75.75s.75-.34.75-.75v-3.04c1.18.33 2.34.6 3.48.8v2.24a.749.749 0 101.5 0V83.1c1.15.15 2.31.24 3.46.26v1.75c0 .41.34.75.75.75s.75-.34.75-.75v-1.76c1.17-.03 2.33-.13 3.48-.29v2.05a.749.749 0 101.5 0v-2.28c1.14-.21 2.3-.49 3.46-.83v3.11c0 .41.34.75.75.75s.75-.34.75-.75v-3.57c.38-.13.76-.25 1.14-.39h.01c.73.29 1.51.57 2.33.84v3.12a.749.749 0 101.5 0v-2.67c1.15.32 2.31.58 3.46.78v1.89c0 .33.22.6.52.7l-.02.98c0 .2.08.39.22.54.13.14.32.22.52.23l9.94.16h.02c.19 0 .38-.08.52-.22a.76.76 0 00.23-.52l.05-3.48c.98-.12 1.95-.29 2.91-.49v2.1c0 .41.34.75.75.75s.75-.34.75-.75v-2.45c1.16-.29 2.32-.65 3.48-1.07v3.52a.749.749 0 101.5 0v-4.09c1.2-.48 2.35-1.02 3.46-1.6v5.69c0 .41.34.75.75.75s.75-.34.75-.75v-6.53c1.04-.61 2.02-1.25 2.95-1.92l.53.54v7.91a.749.749 0 101.5 0v-6.35l.39.4c.13.14.32.22.52.23h.01c.2 0 .39-.08.53-.21l2.01-1.95v7.88c0 .41.34.75.75.75s.75-.34.75-.75v-9.33l3.48-3.37v12.7a.749.749 0 101.5 0V62.76a38.35 38.35 0 003.46-10.03v32.38c0 .41.34.75.75.75s.75-.34.75-.75V51.66l2.16.04h.02c.19 0 .38-.08.52-.21.14-.14.22-.33.23-.53l.08-5.27.46-.12v39.54c0 .41.34.75.75.75s.75-.34.75-.75V45.2c.97-.22 1.96-.41 2.99-.56.41-.06.7-.44.64-.85a.767.767 0 00-.85-.64zM53.09 12.34l4.75.08h.02c.07 0 .14-.02.21-.04a.64.64 0 00.19-.08c.04-.02.08-.06.12-.09.14-.14.22-.33.23-.53l.05-2.88c5.79.99 11.28 3.37 16 6.93l-2.07 2.01c-.29.29-.3.76 0 1.06l2.56 2.65-17.58 17.58a8.04 8.04 0 00-4.47-1.84V12.34h-.01zM22.78 22.97l2 2.07c.13.14.32.22.52.23.22 0 .39-.08.54-.22l2.64-2.56 17.6 17.6a7.912 7.912 0 00-1.84 4.46H19.38l.07-4.76c0-.2-.07-.39-.21-.54a.71.71 0 00-.52-.22l-2.88-.05a37 37 0 016.94-16.01zm5.73 45.11l-3.31-3.42a.754.754 0 00-1.06-.01l-2.07 2a36.874 36.874 0 01-6.41-16.22l2.87.05h.02c.19 0 .38-.08.52-.22a.76.76 0 00.23-.52l.06-3.68h24.88a7.91 7.91 0 001.84 4.45L28.51 68.08zm11.98 12.33a7.71 7.71 0 01-.26-.09c.09-.04.17-.08.26-.12v.21zm4.96 1.28c-1.17-.21-2.33-.49-3.46-.83v-1.35c1.13-.55 2.28-1.14 3.46-1.82v4zm4.97-3.45l-3.47-.06V76.8c1.14-.68 2.31-1.43 3.47-2.22v3.66zm1.17-6.28c-.28.2-.56.4-.85.6a72.815 72.815 0 01-4.92 3.19c-1.7 1.02-3.31 1.88-4.9 2.62-.95.44-1.87.82-2.75 1.17-2.9-1.2-5.63-2.77-8.14-4.67l2.07-2.01c.29-.28.3-.76.01-1.05l-2.56-2.64 17.59-17.59a8.01 8.01 0 004.45 1.84v18.54zm0-34.78a8.01 8.01 0 00-4.45 1.84L29.57 21.45l3.41-3.3c.29-.29.3-.77.01-1.06L31 15.02a36.755 36.755 0 0116.22-6.41l-.04 2.87c-.01.2.07.4.21.54.13.14.32.22.52.23l3.68.06v24.87zm3.81 41.15l-2.31-.04v-5.56c.81-.58 1.57-1.15 2.31-1.7v7.3zm4.96 3.14c-.95.21-1.92.39-2.89.52l.04-2.88c0-.2-.07-.39-.21-.54a.481.481 0 00-.11-.09.608.608 0 00-.18-.09.202.202 0 00-.11-.03v-8.48c1.2-.92 2.38-1.85 3.46-2.71v14.3zm4.98-1.48c-1.15.43-2.32.8-3.48 1.11V65.96l1.85-1.49c.54-.43 1.08-.87 1.63-1.3v16.82zm.76-19.34l-.48.38c-.96.76-1.91 1.52-2.85 2.29l-2.12 1.7c-1.47 1.17-3.2 2.56-4.97 3.9-.82.64-1.68 1.29-2.59 1.95V53.42a8.04 8.04 0 004.47-1.84l8.84 8.83-.3.24zm4.2 17.06c-1.1.61-2.26 1.18-3.46 1.69V61.98l.19-.16c.15-.11.29-.23.44-.34l2.83 2.84v13.39zm0-15.52l-1.64-1.65c.54-.44 1.09-.86 1.64-1.29v2.94zm1.5 14.64v-3.21l1.9 1.96c-.6.42-1.24.84-1.9 1.25zm0-4.48v-6.54l3.33 3.33-3.33 3.21zm3.48-5.19l-3.48-3.47v-5.6c1.21-.91 2.35-1.74 3.48-2.53v11.6zm4.96-1.28l-.33-.34a.754.754 0 00-1.06-.01l-2.07 2V54.52c1.17-.81 2.33-1.56 3.46-2.27v13.63zm4.98 5.15l-2.25-2.32c.81-1.05 1.56-2.15 2.25-3.27v5.59zm0-8.62c-.95 1.83-2.05 3.57-3.3 5.21l-.18-.18V51.35c1.15-.68 2.31-1.31 3.48-1.9v12.96zm.07-14.7a74.82 74.82 0 00-4.68 2.56c-1.61.96-3.3 2.05-5.01 3.24-1.61 1.1-3.24 2.28-5 3.62-1.02.78-2.02 1.56-3.01 2.35l-8.97-8.97a7.923 7.923 0 001.85-4.45h24.85l-.03 1.65zm.87-7.59a.83.83 0 00-.54.21c-.14.14-.22.33-.22.52l-.06 3.7H60.47a7.924 7.924 0 00-1.85-4.46l17.57-17.57 3.3 3.41c.14.15.34.23.54.23.18 0 .37-.07.52-.21l2.07-2a36.779 36.779 0 016.42 16.21l-2.88-.04zm.56 19.01v-7.56l2.14.04c-.44 2.58-1.16 5.09-2.14 7.52z" fill="#F2F1E3"/><path d="M80.43 68.84l-3.85 3.73-3.29 3.18-1.68-1.74-1.18-1.22-2.61-2.69 3.79-3.67.17-.17 3.18-3.07 1.62 1.67.99 1.02 2.86 2.96zM28.04 14.73l-3.96 3.83-3.18 3.08-2.6-2.69-2.87-2.96 7.14-6.91 2.87 2.96 2.6 2.69z" stroke="#CAA57B" stroke-width="1.5" stroke-linecap="round" stroke-linejoin="round"/><path d="M14.59 24.59c1.07-2 2.31-3.88 3.71-5.64l2.6 2.69 3.18-3.08 3.96-3.83-2.6-2.69a37.54 37.54 0 0118.13-7.16l-.06 3.74 4.42.07 5.51.09.06-3.74c6.69.98 12.82 3.73 17.89 7.74l-2.69 2.61 3.08 3.18 3.83 3.96 2.7-2.61a37.55 37.55 0 014.3 7.43m1.41 3.79c.69 2.22 1.19 4.53 1.46 6.91l-3.75-.06-.07 4.43-.05 2.88-.04 2.63 3.75.06c-.61 4.17-1.91 8.11-3.77 11.72a38.232 38.232 0 01-3.98 6.17l-.99-1.02-1.62-1.67-3.18 3.07-.17.17-3.79 3.67 2.61 2.69a38.448 38.448 0 01-8.76 4.85c-1.61.62-3.27 1.14-4.97 1.54-1.44.35-2.91.61-4.41.78l.06-3.75h-.62l-3.8-.07-1.17-.02-4.34-.07-.06 3.75c-.19-.03-.38-.05-.57-.09-1.7-.27-3.36-.66-4.97-1.16a37.715 37.715 0 01-12.35-6.5l2.69-2.61-3.07-3.18-3.84-3.96-2.69 2.6a37.459 37.459 0 01-7.17-18.12l3.74.06.07-4.42.09-5.52-3.74-.06a38.21 38.21 0 012.21-8.29" stroke="#CAA57B" stroke-width="1.5" stroke-linecap="round" stroke-linejoin="round"/><path d="M89.6 38.12l-.07 4.1-.09 5.84-2.92-.05-1.2-.02-3.75-.06.04-2.63.05-2.88.07-4.43 3.75.06 4.12.07zM.75 72.86c.43.27.85.53 1.28.78 1.69 1.02 3.35 1.9 4.97 2.64 1.69.78 3.35 1.42 4.97 1.92 1.69.53 3.35.92 4.97 1.17 1.7.27 3.35.39 4.97.38 1.69-.01 3.34-.15 4.97-.42 1.69-.28 3.34-.69 4.97-1.21.64-.2 1.27-.42 1.9-.66 1.03-.39 2.06-.83 3.07-1.3 1.68-.78 3.33-1.67 4.97-2.65 1.67-.99 3.33-2.07 4.97-3.22.39-.27.78-.55 1.17-.83 1.27-.91 2.54-1.85 3.8-2.83 1.66-1.27 3.31-2.58 4.97-3.91 1.65-1.32 3.3-2.66 4.97-3.99.48-.38.96-.77 1.44-1.14 1.17-.93 2.34-1.84 3.53-2.75 1.63-1.24 3.29-2.45 4.97-3.6 1.63-1.13 3.29-2.21 4.97-3.21a63.04 63.04 0 014.97-2.7l.06-.03" stroke="#CAA57B" stroke-width="1.5" stroke-linecap="round" stroke-linejoin="round"/><path d="M89.53 42.22c.65-.18 1.3-.36 1.96-.51 1.19-.29 2.4-.52 3.63-.7m-3.63 41.21V41.71m-4.97 40.51V48.01m-4.97 34.21V45.33m-4.97 19.53V48.03m0 34.19v-9.65m-4.97-21.33v15.19m0 15.79v-8.21m-4.97 8.21V54.84m-4.97 27.38v-8.74m0-5.63v-9.12M56.7 82.22v-19.5M51.73 76.2v-9.57m-4.97 9.49v-5.83m-4.97 11.93v-8.71m-4.97 8.71v-6.06m-4.97 6.06v-4.1m-4.97 4.1v-2.89m-4.97 2.89v-2.47m-4.97 2.47v-2.85m-4.97 2.85V78.2M7 82.22v-5.94m-4.97 5.94v-8.58m50.32 2.57l-.06 3.75-.06 4.12-9.94-.16.07-4.12.06-3.75 4.34.07 1.17.02 3.8.06.62.01zm-25.19-6.77l-2.69 2.61-2.96 2.86-6.92-7.14 2.97-2.87 2.69-2.6 3.84 3.96 3.07 3.18zM14.29 36.9l-.09 5.52-.07 4.42-3.74-.06-4.13-.07.16-9.94 4.13.07 3.74.06zM53.57.91l-.07 4.13-.06 3.74-5.51-.09-4.42-.07.06-3.74.06-4.13 9.94.16zm27.7 16.15l-2.96 2.86-2.7 2.61-3.83-3.96-3.08-3.18 2.69-2.61 2.96-2.87 6.92 7.15zM47.93 35.01V8.69m7.41 33.73c0 2.04-.83 3.89-2.17 5.23a7.4 7.4 0 01-10.47 0 7.4 7.4 0 010-10.47 7.4 7.4 0 0110.47 0 7.383 7.383 0 012.17 5.24z" stroke="#CAA57B" stroke-width="1.5" stroke-linecap="round" stroke-linejoin="round"/><path d="M51.44 42.42c0 .97-.39 1.84-1.03 2.48-.64.64-1.51 1.03-2.48 1.03s-1.84-.39-2.48-1.03a3.483 3.483 0 01-1.03-2.48c0-.97.39-1.85 1.03-2.48.63-.63 1.51-1.03 2.48-1.03s1.85.39 2.48 1.03c.63.63 1.03 1.51 1.03 2.48zm20.34-23.85L53.17 37.18m28.49 5.24H62.69m-3.88 0h-3.47m-2.17 5.23l9.94 9.94 3.53 3.53 4.97 4.97.17.17M47.93 49.82v26.32M42.7 47.65l-9.82 9.82m-4.37 4.37l-4.42 4.42m16.44-23.84H14.2m28.5-5.24l-9.09-9.09m-2.99-2.99l-6.54-6.54" stroke="#CAA57B" stroke-width="1.5" stroke-linecap="round" stroke-linejoin="round"/></g><defs><clipPath id="clip0_61_863"><path fill="#fff" d="M0 0h100.29v87.72H0z"/></clipPath></defs></svg>