<svg width="91" height="79" viewBox="0 0 91 79" fill="none" xmlns="http://www.w3.org/2000/svg"><g clip-path="url(#clip0_61_929)"><path d="M48.42 20.767c0 1.68.651 2.548 1.229 3.318.502.675.909 1.2.909 2.345 0 .439.363.803.802.803a.808.808 0 00.802-.803c0-1.68-.652-2.548-1.23-3.319-.503-.674-.909-1.199-.909-2.344 0-1.145.396-1.67.91-2.344.577-.76 1.229-1.627 1.229-3.319 0-1.691-.652-2.547-1.23-3.307-.503-.675-.909-1.2-.909-2.345 0-1.145.396-1.67.91-2.344.577-.76 1.229-1.627 1.229-3.308a.808.808 0 00-.802-.803.808.808 0 00-.802.803c0 1.146-.396 1.67-.91 2.344-.577.76-1.229 1.628-1.229 3.308s.653 2.548 1.23 3.308c.502.674.909 1.199.909 2.344 0 1.146-.396 1.67-.91 2.345-.577.76-1.229 1.627-1.229 3.318zm8.073 0c0 1.68.652 2.548 1.23 3.318.502.675.908 1.2.908 2.345 0 .439.364.803.802.803a.808.808 0 00.802-.803c0-1.68-.652-2.548-1.23-3.319-.502-.674-.909-1.199-.909-2.344 0-1.145.396-1.67.91-2.344.577-.76 1.23-1.627 1.23-3.319 0-1.691-.653-2.547-1.23-3.307-.503-.675-.91-1.2-.91-2.345 0-1.145.396-1.67.91-2.344.577-.76 1.23-1.627 1.23-3.308a.808.808 0 00-.803-.803.808.808 0 00-.802.803c0 1.146-.395 1.67-.909 2.344-.577.76-1.23 1.628-1.23 3.308s.653 2.548 1.23 3.308c.503.674.91 1.199.91 2.344 0 1.146-.396 1.67-.91 2.345-.577.76-1.23 1.627-1.23 3.318zm8.073 0c0 1.68.652 2.548 1.23 3.318.502.675.909 1.2.909 2.345 0 .439.363.803.802.803a.808.808 0 00.802-.803c0-1.68-.653-2.548-1.23-3.319-.503-.674-.909-1.199-.909-2.344 0-1.145.396-1.67.909-2.344.577-.76 1.23-1.627 1.23-3.319 0-1.691-.653-2.547-1.23-3.307-.503-.675-.909-1.2-.909-2.345 0-1.145.396-1.67.909-2.344.577-.76 1.23-1.627 1.23-3.308a.808.808 0 00-.802-.803.808.808 0 00-.802.803c0 1.146-.396 1.67-.91 2.344-.577.76-1.229 1.628-1.229 3.308s.652 2.548 1.23 3.308c.502.674.909 1.199.909 2.344 0 1.146-.396 1.67-.91 2.345-.577.76-1.229 1.627-1.229 3.318z" fill="#F2F1E3"/><path d="M90.198 33.398h-2.951c-.204-3.907-3.444-7.011-7.4-7.011a7.352 7.352 0 00-6.555 3.95 5.63 5.63 0 00-1.797-.279c-2.267 0-4.33 1.317-5.272 3.34h-30.26s-.054-.107-.108-.16l-9.356-9.367a6.731 6.731 0 001.454-4.196c0-1.82-.706-3.522-1.989-4.806L18.03 6.915a6.733 6.733 0 00-4.802-1.99 6.733 6.733 0 00-4.8 1.99c-2.653 2.655-2.653 6.969 0 9.613l7.934 7.943a6.774 6.774 0 004.8 1.99 6.73 6.73 0 004.203-1.455l8.384 8.392H16.96a.801.801 0 00-.803.803v15.95C16.157 66.058 29.087 79 44.977 79H62.18C78.071 79 91 66.058 91 50.151v-15.95a.795.795 0 00-.802-.803z" fill="#F2F1E3"/><path d="M18.96 20.906l9.89 9.902M18.564 12.021l.406.407a5.994 5.994 0 010 8.478 5.978 5.978 0 01-8.47 0l-7.934-7.943a5.994 5.994 0 010-8.478 5.978 5.978 0 018.47 0l2.758 2.762M83.76 39.543H48.837m-4.748 0H32.08m-5.625 0H10.522M44.923.803c0 2.826-2.14 2.826-2.14 5.652s2.14 2.826 2.14 5.652-2.14 2.826-2.14 5.663c0 2.836 2.14 2.826 2.14 5.662M52.996.803c0 2.826-2.139 2.826-2.139 5.652s2.139 2.826 2.139 5.652-2.139 2.826-2.139 5.663c0 2.836 2.139 2.826 2.139 5.662M61.07.803c0 2.826-2.14 2.826-2.14 5.652s2.14 2.826 2.14 5.652-2.14 2.826-2.14 5.663c0 2.836 2.14 2.826 2.14 5.662M10.683 50.097a27.063 27.063 0 01-.16-2.954v-15.95H83.76v15.95c0 15.425-12.608 28.046-28.017 28.046H38.54c-11.774 0-21.91-7.365-26.038-17.727m62.661-33.045a6.62 6.62 0 014.866 6.39c0 .13 0 .258-.022.386H60.31a5.046 5.046 0 014.748-3.34c.791 0 1.54.182 2.203.503a6.595 6.595 0 013.336-3.543" stroke="#CAA57B" stroke-width="1.5" stroke-linecap="round" stroke-linejoin="round"/></g><defs><clipPath id="clip0_61_929"><path fill="#fff" d="M0 0h91v79H0z"/></clipPath></defs></svg>