<svg width="88" height="91" viewBox="0 0 88 91" fill="none" xmlns="http://www.w3.org/2000/svg"><g clip-path="url(#clip0_61_829)"><path d="M73.18 58.72l-17.07-3.5-2.46-1.63a.76.76 0 00-.18-.09v-2.11c6.51-2.58 10.82-8.9 10.82-15.98v-2.6a4.51 4.51 0 001.81-7.75v-8.13c0-3.67-2.05-6.95-5.35-8.57l-3.27-1.6c-4.72-4.83-12.51-3.75-19.52-2.07-7.47 1.81-14.44 5.52-14.74 5.68-.54.28-.78.95-.53 1.52 1.54 3.46 3.95 6 7.21 7.56v4.64a4.5 4.5 0 00-3.35 4.36 4.5 4.5 0 003.35 4.36v2.6c0 7.08 4.32 13.4 10.83 15.98v2.11c-.06.02-.13.06-.19.09l-2.46 1.63-17.07 3.5C12.78 60.41 6.8 68.25 6.8 77.37V89.3c0 .65.53 1.18 1.18 1.18h78.2c.65 0 1.18-.53 1.18-1.18V77.37c0-9.12-5.97-16.95-14.19-18.65h.01zm-8.89-28.69h.27c-.08.07-.18.14-.27.2v-.2z" fill="#F2F1E3"/><path d="M9.06 58.15c1.51-.92 3.17-1.6 4.95-1.96l17.3-3.55-5.91 3.92 5.58 5.71-4.64 3.14L39.86 85.6H.75V73.67c0-3.99 1.21-7.71 3.27-10.71m30.65-7.17c0 .05 0 .11.01.16l-.56-3.9.54-.12v3.86h.01zm.02.16l.16 1.11c-.11-.36-.16-.73-.16-1.11zm10.18 1.11L39.86 85.6l-5.01-28.54c.23.93.7 1.75 1.35 2.4a5.17 5.17 0 003.66 1.51c2.43 0 4.45-1.66 5.01-3.91zm.01-.07l.15-.98c0 .33-.05.66-.15.98zm.7-4.94l-.56 3.9c.01-.05.01-.11.01-.16v-3.86l.54.12h.01zm3.46 19.85l4.34-6.48-4.64-3.14 5.58-5.71-5.91-3.92 17.3 3.55c7.28 1.5 12.67 8.19 13.2 16.18m.04 9.14v4.08H39.86l6.26-9.35" stroke="#CAA57B" stroke-width="1.5" stroke-linecap="round" stroke-linejoin="round"/><path d="M26.34 65.41l4.64-3.14-5.58-5.71 5.91-3.92 2.65-1.76.17 1.18.56 3.9c0 .38.05.76.16 1.11l5.01 28.54-13.52-20.19v-.01z" stroke="#CAA57B" stroke-width="1.5" stroke-linecap="round" stroke-linejoin="round"/><path d="M34.85 57.06c-.11-.36-.16-.73-.16-1.11l.16 1.11zm9.86 21.29l-4.86 7.25 5.01-28.54s.01-.04.01-.07c.09-.32.15-.65.15-.98v-.07l.56-3.9.17-1.18 2.65 1.76 5.91 3.92-5.58 5.71 4.64 3.14-3.38 5.05" stroke="#CAA57B" stroke-width="1.5" stroke-linecap="round" stroke-linejoin="round"/><path d="M45.03 56.01c0 .33-.05.66-.15.98l.15-.98zm10.84-30.87v6.56c0 7.04-4.53 13.02-10.83 15.17a15.9 15.9 0 01-5.18.86c-1.81 0-3.55-.3-5.18-.86-6.3-2.15-10.83-8.13-10.83-15.17V14.98c9.89 4.18 24.27-2 24.27-2 3.23 2.76 4.28 6.56 4.59 9.19.04.33.12.65.25.94.5 1.14 1.63 1.94 2.92 2.03h-.01z" stroke="#CAA57B" stroke-width="1.5" stroke-linecap="round" stroke-linejoin="round"/><path d="M29.93 2.41c.36-.1.72-.19 1.08-.27C38.43.35 45.43-.34 49.54 4.02L53 5.72a8.365 8.365 0 014.68 7.5v11.93h-1.55c-.08 0-.17 0-.25-.01a3.47 3.47 0 01-2.92-2.03 3.26 3.26 0 01-.25-.94c-.3-2.62-1.35-6.43-4.59-9.19 0 0-14.38 6.18-24.27 2-3.05-1.29-5.66-3.55-7.3-7.28 0 0 2.94-1.57 7.01-3.17m.28 16.87v6.68h-.01c-1.84 0-3.34-1.5-3.34-3.34 0-1.84 1.5-3.34 3.34-3.34h.01z" stroke="#CAA57B" stroke-width="1.5" stroke-linecap="round" stroke-linejoin="round"/><path d="M59.21 24.74c0 1.84-1.48 3.34-3.34 3.34v-2.94c.08.01.17.01.25.01h1.55v-3.22c.93.6 1.54 1.63 1.54 2.81zm-28.24-2.51h2.98m11.8 0h2.99m-16.28 4.11v1.62m14.79-1.62v1.62m-2.93 7.11a5.42 5.42 0 01-4.47 2.33c-1.86 0-3.49-.93-4.47-2.33m9.66 11.8v8.92c0 .05 0 .11-.01.16v.07l-.15.98s-.01.04-.01.07a5.16 5.16 0 01-5.01 3.91 5.17 5.17 0 01-3.66-1.51 5.032 5.032 0 01-1.35-2.4l-.16-1.11c-.01-.05-.01-.11-.01-.16v-8.92c1.63.56 3.37.86 5.18.86 1.81 0 3.55-.3 5.18-.86v-.01z" stroke="#CAA57B" stroke-width="1.5" stroke-linecap="round" stroke-linejoin="round"/><path d="M34.69 55.95l.16 1.11c-.11-.36-.16-.73-.16-1.11zm10.34.06c0 .33-.05.66-.15.98l.15-.98zm-20.3 13.78H8.3v8.56h16.43v-8.56zm-8.22-2.52v4.72m7.33-51.09h.65c1.65 0 2.98-1.34 2.98-2.98v-1.86" stroke="#CAA57B" stroke-width="1.5" stroke-linecap="round" stroke-linejoin="round"/></g><defs><clipPath id="clip0_61_829"><path fill="#fff" d="M0 0h87.38v90.48H0z"/></clipPath></defs></svg>