<svg width="80" height="72" viewBox="0 0 80 72" fill="none" xmlns="http://www.w3.org/2000/svg"><g clip-path="url(#clip0_65_1009)"><path d="M78.64 15.65L42.08 3.96a.897.897 0 00-.46 0L5.07 15.65a.75.75 0 00-.52.71v3.88c0 .41.33.75.75.75h4.25v3.12c0 .41.34.75.75.75H13s-.01.05-.01.08v6.21c0 .42.34.75.75.75h1.53v24.39h-1.53c-.41 0-.75.34-.75.75v5.46H10.3c-.41 0-.75.34-.75.75V71c0 .41.34.75.75.75h63.1c.42 0 .75-.34.75-.75v-7.75c0-.41-.33-.75-.75-.75h-2.68v-5.46c0-.41-.34-.75-.75-.75h-1.53V31.9h1.53c.41 0 .75-.33.75-.75v-6.21s0-.05-.01-.08h2.69c.42 0 .75-.34.75-.75v-3.12h4.26c.41 0 .75-.34.75-.75v-3.88a.75.75 0 00-.52-.71zM37.3 56.29c-.41 0-.75.34-.75.75v5.46H23.59v-5.46c0-.41-.33-.75-.75-.75h-1.52V31.9h1.52c.42 0 .75-.33.75-.75v-6.21s0-.05-.01-.08h12.98s-.01.05-.01.08v6.21c0 .42.34.75.75.75h1.53v24.39H37.3zm9.84-31.43h12.98s-.01.05-.01.08v6.21c0 .42.34.75.75.75h1.53v24.39h-1.53c-.41 0-.75.34-.75.75v5.46H47.15v-5.46c0-.41-.33-.75-.75-.75h-1.52V31.9h1.52c.42 0 .75-.33.75-.75v-6.21s0-.05-.01-.08z" fill="#F2F1E3"/><path d="M51.41 59.32h17.44v7.74H5.76v-7.74h38.37m1.01-43.01h23.72v3.87H5.76v-3.87h30.48M20.36 6.17L37.31.75l36.56 11.68v3.87H47.98" stroke="#CAA57B" stroke-width="1.5" stroke-linecap="round" stroke-linejoin="round"/><path d="M35.03 16.31H.75v-3.87l11.02-3.52m6.52 44.19h-9.1v6.21h9.1v-6.21zm0-32.1h-9.1v6.21h9.1v-6.21z" stroke="#CAA57B" stroke-width="1.5" stroke-linecap="round" stroke-linejoin="round"/><path d="M11.47 37.8V27.23h4.55v25.89h-4.55v-9.44m30.39 9.43h-9.1v6.21h9.1v-6.21zm0-32.1h-9.1v6.21h9.1v-6.21z" stroke="#CAA57B" stroke-width="1.5" stroke-linecap="round" stroke-linejoin="round"/><path d="M39.58 27.23h-4.55v25.89h4.55V27.23zm25.84 25.88h-9.1v6.21h9.1v-6.21zm0-32.1h-9.1v6.21h9.1v-6.21zm-2.28 23.27v8.83h-4.55V27.22h4.55V38" stroke="#CAA57B" stroke-width="1.5" stroke-linecap="round" stroke-linejoin="round"/></g><defs><clipPath id="clip0_65_1009"><path fill="#fff" d="M0 0h79.16v71.75H0z"/></clipPath></defs></svg>