<svg width="44" height="76" viewBox="0 0 44 76" fill="none" xmlns="http://www.w3.org/2000/svg"><g clip-path="url(#clip0_68_1173)"><path d="M34.87 29.23h-2.99l-.9-3.19a8.574 8.574 0 002.21-5.77v-8.84c0-2.29-.89-4.44-2.5-6.05a8.472 8.472 0 00-6.05-2.52c-4.72 0-8.56 3.84-8.56 8.57v8.84c0 2.14.77 4.16 2.21 5.74l-.9 3.22H14.4c-4.99 0-9.04 4.05-9.04 9.04v7.43c0 .31.19.59.47.7l6.81 2.66 2.43 10.81c.08.35.38.59.73.59h4.49v3.62H10.11c-.42 0-.75.33-.75.75v9.64c0 .42.33.75.75.75h30.82c.41 0 .75-.33.75-.75v-9.64c0-.42-.34-.75-.75-.75H30.75v-3.62h2.72c.35 0 .66-.24.73-.59l2.43-10.81 6.81-2.66c.29-.11.48-.39.48-.7v-7.43c0-4.99-4.06-9.04-9.05-9.04z" fill="#F2F1E3"/><path d="M11.47 11.68V8.57c0-4.32 3.5-7.81 7.81-7.81 2.16 0 4.1.87 5.52 2.29a7.775 7.775 0 012.28 5.52v8.85c0 2.17-.89 4.13-2.31 5.55a7.788 7.788 0 01-5.5 2.26c-2.15 0-4.1-.87-5.51-2.27a7.783 7.783 0 01-2.31-5.54v-1.41" stroke="#CAA57B" stroke-width="1.5" stroke-linecap="round" stroke-linejoin="round"/><path d="M13.78 22.95l-1.18 4.16H9.04c-1.59 0-3.08.45-4.34 1.23M1.31 32.4c-.36.93-.56 1.95-.56 3.01v7.43l7.18 2.8 2.52 11.2h8.83m5.5-33.87l1.18 4.15h3.56c4.58 0 8.3 3.71 8.3 8.3v7.43l-7.18 2.8-.87 3.85m-1.33 5.91l-.32 1.44h-8.83m5.35 0h-8.96v5.06h8.96v-5.06zm-13.27 5.12h24.2v9.65H4.75v-9.65h3.66" stroke="#CAA57B" stroke-width="1.5" stroke-linecap="round" stroke-linejoin="round"/></g><defs><clipPath id="clip0_68_1173"><path fill="#fff" d="M0 0h43.92v75.22H0z"/></clipPath></defs></svg>