<svg width="100" height="58" viewBox="0 0 100 58" fill="none" xmlns="http://www.w3.org/2000/svg"><g clip-path="url(#clip0_68_1144)"><path d="M99.39 56.31L88.58 38.55a.754.754 0 00-1.39.31l-.77 6.95-16.1-28.67s-.03-.04-.05-.06a.353.353 0 00-.13-.14.452.452 0 00-.17-.11c-.04-.02-.07-.04-.12-.05-.04-.01-.08-.01-.12-.01-.02-.01-.04-.01-.07-.01h-.05s-.08.01-.12.02c-.06.02-.12.04-.18.07-.08.04-.15.1-.2.17a.17.17 0 00-.06.06l-7.66 11.1-1.63-2.75a.768.768 0 00-.65-.36h-4.68L44.08 4.13s-.04-.08-.07-.12c-.03-.03-.06-.07-.1-.1a.574.574 0 00-.23-.15.2.2 0 00-.09-.02.401.401 0 00-.15-.03h-.1c-.1.01-.21.04-.3.09a.36.36 0 00-.12.08l-.05.05c-.07.07-.12.15-.16.24L30.63 26.93l-3.11 5.85h-4.96c-.26 0-.51.14-.65.37L8.53 56.32a.77.77 0 000 .75c.14.23.38.37.65.37h89.57c.27 0 .52-.14.65-.38s.13-.53-.01-.76v.01z" fill="#F2F1E3"/><path d="M52.91 25.87l-2.23-3.76h-5.15l-3.85-7.79m-2.76-5.59L34.98.75 19.54 29.83h-5.4l-3.84 6.64m-3.79 6.56L.75 53h89.57l-3.13-5.14m-3.57-5.87l-4.11-6.75-1.03 9.27-9.59-17.08m-.09-.16l-7.56-13.46-18.51 26.85m-5.02 7.25l-3.51 5.08" stroke="#CAA57B" stroke-width="1.5" stroke-linecap="round" stroke-linejoin="round"/><path d="M8.43 53l10.56-15.79 4.54 7.9 3.69-3.01V53M34.98.75l1.34 23.68-7.12 6.52-1.98-8.58-4.41 1.31m38.42-9.88l.87 11.87m.38 5.09l.34 4.66-6.95 4.63-3.09-6.95-5.76 1.36" stroke="#CAA57B" stroke-width="1.5" stroke-linecap="round" stroke-linejoin="round"/></g><defs><clipPath id="clip0_68_1144"><path fill="#fff" d="M0 0h99.5v57.45H0z"/></clipPath></defs></svg>