<svg width="159" height="91" viewBox="0 0 159 91" fill="none" xmlns="http://www.w3.org/2000/svg"><path fill-rule="evenodd" clip-rule="evenodd" d="M3.028 91H0L47.212 0h3.028L3.028 91zm6.038 0H6.044L53.256 0h3.028L9.066 91zm3.016 0h3.028L62.322 0H59.3L12.082 91zm9.072 0h-3.028L65.337 0h3.029L21.154 91zm3.016 0h3.028L74.41 0h-3.03L24.17 91zm9.066 0h-3.022L77.425 0h3.029L33.236 91zm3.015 0h3.029L86.49 0h-3.02L36.251 91zm9.073 0h-3.029L89.507 0h3.028L45.324 91zm3.015 0h3.029L98.579 0h-3.028L48.339 91zm9.066 0h-3.022l47.212-91h3.022L57.405 91zm3.016 0h3.028l47.212-91h-3.022L60.421 91zm9.072 0h-3.028l47.211-91h3.029L69.493 91zm3.016 0h3.022l47.218-91h-3.029L72.509 91zm9.066 0h-3.029l47.218-91h3.022L81.575 91zm3.015 0h3.029L134.83 0h-3.028L84.59 91zm9.073 0h-3.029l47.212-91h3.028L93.663 91zm3.015 0H99.7l47.218-91h-3.028L96.678 91zm9.066 0h-3.028l47.218-91h3.022l-47.212 91zm3.016 0h3.028L159 0h-3.028L108.76 91z" fill="url(#paint0_linear_491_2071)" fill-opacity=".46"/><defs><linearGradient id="paint0_linear_491_2071" x1="60" y1="91" x2="74" y2="17.5" gradientUnits="userSpaceOnUse"><stop stop-color="#E0E0E0"/><stop offset="1" stop-color="#E0E0E0" stop-opacity="0"/></linearGradient></defs></svg>