<svg width="118" height="68" viewBox="0 0 118 68" fill="none" xmlns="http://www.w3.org/2000/svg">
<path fill-rule="evenodd" clip-rule="evenodd" d="M2.24753 67.9999H0L35.0375 0.465332H37.2851L2.24753 67.9999ZM6.72824 67.9999H4.48549L39.523 0.465332H41.7706L6.72824 67.9999ZM8.9662 67.9999H11.2137L46.2513 0.465332H44.0085L8.9662 67.9999ZM15.6992 67.9999H13.4517L48.4892 0.465332H50.7368L15.6992 67.9999ZM17.9372 67.9999H20.1847L55.2222 0.465332H52.9747L17.9372 67.9999ZM24.6654 67.9999H22.4227L57.4602 0.465332H59.7077L24.6654 67.9999ZM26.9034 67.9999H29.1509L64.1885 0.465332H61.9457L26.9034 67.9999ZM33.6364 67.9999H31.3889L66.4264 0.465332H68.6739L33.6364 67.9999ZM35.8744 67.9999H38.1219L73.1594 0.465332H70.9119L35.8744 67.9999ZM42.6026 67.9999H40.3599L75.3974 0.465332H77.6401L42.6026 67.9999ZM44.8406 67.9999H47.0881L82.1256 0.465332H79.8829L44.8406 67.9999ZM51.5736 67.9999H49.3261L84.3636 0.465332H86.6111L51.5736 67.9999ZM53.8116 67.9999H56.0543L91.0966 0.465332H88.8491L53.8116 67.9999ZM60.5398 67.9999H58.2923L93.3346 0.465332H95.5773L60.5398 67.9999ZM62.7778 67.9999H65.0253L100.063 0.465332H97.8153L62.7778 67.9999ZM69.5108 67.9999H67.2633L102.301 0.465332H104.548L69.5108 67.9999ZM71.7487 67.9999H73.9915L109.034 0.465332H106.786L71.7487 67.9999ZM78.477 67.9999H76.2295L111.272 0.465332H113.515L78.477 67.9999ZM80.7149 67.9999H82.9625L118 0.465332H115.752L80.7149 67.9999Z" fill="url(#paint0_linear_515_617)" fill-opacity="0.35"/>
<defs>
<linearGradient id="paint0_linear_515_617" x1="44.5283" y1="67.9999" x2="54.9182" y2="13.4528" gradientUnits="userSpaceOnUse">
<stop stop-color="#D8D8D8"/>
<stop offset="1" stop-color="#D8D8D8" stop-opacity="0"/>
</linearGradient>
</defs>
</svg>
