<svg width="10" height="18" viewBox="0 0 10 18" fill="none" xmlns="http://www.w3.org/2000/svg">
<g clip-path="url(#clip0_5132_132)">
<mask id="mask0_5132_132" style="mask-type:luminance" maskUnits="userSpaceOnUse" x="0" y="0" width="10" height="18">
<path d="M10 0.0233765H0V18H10V0.0233765Z" fill="white"/>
</mask>
<g mask="url(#mask0_5132_132)">
<path d="M9.52619 0.0023217H7.15238C4.48571 -1.59664e-05 2.7619 1.73453 2.7619 4.42284V6.46362H0.37381C0.169048 6.46362 0 6.62726 0 6.83063V9.78544C0 9.98648 0.166667 10.1525 0.37381 10.1525H2.7619V17.6096C2.7619 17.8106 2.92857 17.9766 3.13571 17.9766H6.25C6.45714 17.9766 6.62381 17.813 6.62381 17.6096V10.1525H9.41429C9.62143 10.1525 9.7881 9.98882 9.7881 9.78544V6.83063C9.7881 6.73479 9.75 6.64128 9.68095 6.57115C9.61191 6.50336 9.51667 6.46362 9.41667 6.46362H6.62381V4.73375C6.62381 3.90388 6.82619 3.48076 7.92857 3.48076H9.52857C9.73571 3.48076 9.90238 3.31479 9.90238 3.11375V0.371672C9.90238 0.168296 9.73571 0.00465936 9.53095 0.00465936L9.52619 0.0023217Z" fill="white"/>
</g>
</g>
<defs>
<clipPath id="clip0_5132_132">
<rect width="10" height="18" fill="white"/>
</clipPath>
</defs>
</svg>
