<svg width="21" height="21" viewBox="0 0 21 21" fill="none" xmlns="http://www.w3.org/2000/svg">
<g clip-path="url(#clip0_5132_127)">
<path d="M15.2038 0H5.7946C2.59919 0 0 2.60074 0 5.79616V15.2054C0 18.4008 2.59919 21 5.7946 21H15.2038C18.3993 21 21 18.4008 21 15.2054V5.79616C21 2.60074 18.3993 0 15.2038 0ZM19.1368 15.2054C19.1368 17.3745 17.3729 19.1368 15.2038 19.1368H5.7946C3.62551 19.1368 1.86322 17.3745 1.86322 15.2054V5.79616C1.86322 3.62706 3.62551 1.86322 5.7946 1.86322H15.2038C17.3729 1.86322 19.1368 3.62706 19.1368 5.79616V15.2054Z" fill="white"/>
<path d="M15.2038 1.86322H5.7946C3.62551 1.86322 1.86322 3.62707 1.86322 5.79616V15.2054C1.86322 17.3745 3.62551 19.1368 5.7946 19.1368H15.2038C17.3729 19.1368 19.1368 17.3745 19.1368 15.2054V5.79616C19.1368 3.62707 17.3729 1.86322 15.2038 1.86322ZM10.4992 15.9119C7.51497 15.9119 5.08813 13.485 5.08813 10.5008C5.08813 7.51653 7.51497 5.08969 10.4992 5.08969C13.4835 5.08969 15.9103 7.51808 15.9103 10.5008C15.9103 13.4835 13.4835 15.9119 10.4992 15.9119ZM17.1043 5.84274C16.8497 6.09583 16.4972 6.24178 16.137 6.24178C15.7768 6.24178 15.4259 6.09583 15.1728 5.84274C14.9197 5.58965 14.7706 5.23564 14.7706 4.87697C14.7706 4.5183 14.9166 4.16274 15.1728 3.90965C15.4259 3.65501 15.7783 3.51061 16.137 3.51061C16.4957 3.51061 16.8497 3.65501 17.1043 3.90965C17.359 4.16274 17.5034 4.51675 17.5034 4.87697C17.5034 5.23719 17.359 5.5881 17.1043 5.84274Z" fill="white"/>
</g>
<defs>
<clipPath id="clip0_5132_127">
<rect width="21" height="21" fill="white"/>
</clipPath>
</defs>
</svg>
