<svg width="29" height="34" viewBox="0 0 29 34" fill="none" xmlns="http://www.w3.org/2000/svg"><g clip-path="url(#clip0_135_2233)"><path d="M24.225 18.06c.053 5.146 4.73 6.862 4.784 6.88-.036.122-.75 2.436-2.463 4.837-1.482 2.068-3.026 4.135-5.454 4.179-2.383.044-3.15-1.346-5.882-1.346-2.732 0-3.58 1.31-5.838 1.39-2.338.088-4.123-2.243-5.623-4.302-3.061-4.222-5.4-11.928-2.258-17.136 1.562-2.586 4.347-4.223 7.373-4.258 2.302-.044 4.471 1.478 5.882 1.478 1.41 0 4.043-1.83 6.819-1.557 1.16.044 4.418.449 6.516 3.37-.17.096-3.892 2.163-3.847 6.465M19.735 5.428c1.24-1.434 2.08-3.44 1.857-5.428-1.794.07-3.963 1.144-5.249 2.577-1.151 1.276-2.16 3.308-1.892 5.261 2 .15 4.043-.968 5.284-2.41z" fill="#010101"/></g><defs><clipPath id="clip0_135_2233"><path fill="#fff" d="M0 0h29v34H0z"/></clipPath></defs></svg>