<svg width="40" height="40" viewBox="0 0 40 40" fill="none" xmlns="http://www.w3.org/2000/svg">
<g clip-path="url(#clip0_135_1000)">
<path d="M26.6667 9.33331H13.3333C12.5333 9.33331 12 9.86665 12 10.6666C12 11.4666 12.5333 12 13.3333 12H26.6667C27.3333 12 28 11.4666 28 10.6666C28 9.86665 27.3333 9.33331 26.6667 9.33331ZM26.6667 14.6666H13.3333C12.5333 14.6666 12 15.2 12 16C12 16.8 12.5333 17.3333 13.3333 17.3333H18.6667V29.3333C18.6667 30 19.2 30.6666 20 30.6666C20.6667 30.6666 21.3333 30 21.3333 29.3333V17.3333H26.6667C27.3333 17.3333 28 16.8 28 16C28 15.2 27.3333 14.6666 26.6667 14.6666Z" fill="#336ABB"/>
<path d="M20 0C8.93333 0 0 8.93333 0 20C0 31.0667 8.93333 40 20 40C31.0667 40 40 31.0667 40 20C40 8.93333 31.0667 0 20 0ZM20 37.3333C10.4 37.3333 2.66667 29.6 2.66667 20C2.66667 10.4 10.4 2.66667 20 2.66667C29.6 2.66667 37.3333 10.4 37.3333 20C37.3333 29.6 29.6 37.3333 20 37.3333Z" fill="#336ABB"/>
</g>
<defs>
<clipPath id="clip0_135_1000">
<rect width="40" height="40" fill="white"/>
</clipPath>
</defs>
</svg>
