<svg width="40" height="40" viewBox="0 0 40 40" fill="none" xmlns="http://www.w3.org/2000/svg"><g clip-path="url(#clip0_135_1000)" fill="#336ABB"><path d="M26.667 9.333H13.333c-.8 0-1.333.534-1.333 1.334S12.533 12 13.333 12h13.334c.666 0 1.333-.533 1.333-1.333 0-.8-.667-1.334-1.333-1.334zm0 5.334H13.333c-.8 0-1.333.533-1.333 1.333 0 .8.533 1.333 1.333 1.333h5.334v12c0 .667.533 1.334 1.333 1.334.667 0 1.333-.667 1.333-1.334v-12h5.334C27.333 17.333 28 16.8 28 16c0-.8-.667-1.333-1.333-1.333z"/><path d="M20 0C8.933 0 0 8.933 0 20s8.933 20 20 20 20-8.933 20-20S31.067 0 20 0zm0 37.333C10.4 37.333 2.667 29.6 2.667 20 2.667 10.4 10.4 2.667 20 2.667c9.6 0 17.333 7.733 17.333 17.333 0 9.6-7.733 17.333-17.333 17.333z"/></g><defs><clipPath id="clip0_135_1000"><path fill="#fff" d="M0 0h40v40H0z"/></clipPath></defs></svg>