<svg width="180" height="42" viewBox="0 0 180 42" fill="none" xmlns="http://www.w3.org/2000/svg"><g clip-path="url(#clip0_135_982)"><path fill-rule="evenodd" clip-rule="evenodd" d="M21.532 22.477c3.68.566 4.18 2.739 4.476 4.76l.048.343.032.235.18 1.188c.352 2.272 1.084 6.984 1.084 9.443 0 .614-.056 1.089-.152 1.348-.164.399-.648.781-1.312 1.104a21.033 21.033 0 01-5.02.606c-.184 0-.364-.008-.544-.016-.7-.2-1.224-.53-1.504-.98-.84-1.364-.892-4.406-.908-7.954v-.41l-.008-1.064c-.028-3.76-.052-7 1.32-8.164.532-.447 1.284-.595 2.308-.435v-.004zm-8.028 8.184c.796-.044 1.312 3.867 1.416 6.833.072 2.065-.144 2.914-.492 3.22-.392-.13-.78-.27-1.16-.426-.256-.458-.448-1.184-.572-2.133-.376-2.977-.048-7.442.812-7.494h-.004zm20.004 5.844c-.048.271-.12.482-.208.658a19.99 19.99 0 01-2.148 1.499c-.24.04-.452.012-.556-.164-.996-1.742-1.368-7.203-.404-7.681 1.256-.606 3.504 4.743 3.316 5.688zM20.572.5c11.204 0 20.312 8.842 20.564 19.844v.379l.004.175c-.02 4.971-1.856 9.516-4.88 13.036-.108-.056-.308-.235-.672-.773-.376-.543-3.608-5.506-3.608-11.19 0-1.116 1.612-2.859 3.04-4.39 1.068-1.151 2.08-2.236 2.452-3.089.476-1.1.144-1.87-.384-2.133-.476-.23-1.188-.063-1.688.826-.82 1.435-1.084 1.702-2.284 2.663-1.18.96-3.052 1.925-3.052.673 0-.673 1.044-2.2 1.56-3.273.528-1.084-.04-1.865-1.128-1.865-2.136 0-3.552 2.71-3.552 3.651 0 .941.456 1.073.456 2.165s-2.344 2.527-4.548 2.527-3.356-.43-3.868-1.634l-.064-.171-.148-.435c-.524-1.527-.9-2.631-1.552-3.787-.348-.61-.884-1.037-1.344-1.407-.604-.47-.92-.901-.984-1.224-.06-.319-.092-.92.944-2.308 1.032-1.38 1.176-2.42.66-2.958-.188-.191-.508-.315-.916-.315-.724 0-1.732.383-2.772 1.435-1.616 1.65-.7 3.213-.7 3.903s-.296 1.076-1.264 2.009c-.976.937-1.312 1.742-1.424 4.979-.044 1.666-.336 2.627-.6 3.476-.228.745-.44 1.447-.448 2.46-.02 1.12.168 1.845.388 2.678.216.77.444 1.655.588 3.134.232 2.288.152 4.221-.272 6.199l-.112.494-.028.143c-.088.347-.188.77-.328.93C3.396 33.634 0 27.614 0 20.81 0 9.597 9.208.5 20.572.5z" fill="#F14635"/><path d="M119.708 14.556c2.036 0 3.616.718 4.748 2.157 1.128 1.435 1.696 3.412 1.696 5.923v.236c0 2.455-.576 4.413-1.732 5.88-1.156 1.466-2.716 2.2-4.68 2.2-1.516 0-2.764-.53-3.74-1.59v7.976h-5.144V14.855h4.808l.152 1.459c.988-1.168 2.284-1.754 3.892-1.754v-.004zm-35.872 0c2.108 0 3.772.49 4.992 1.475 1.22.985 1.848 2.332 1.876 4.046v6.996c.02 1.451.256 2.564.704 3.333v.247h-5.144c-.184-.323-.344-.793-.488-1.415-.948 1.14-2.268 1.71-3.968 1.71-1.556 0-2.88-.45-3.968-1.351s-1.632-2.033-1.632-3.397c0-1.714.66-3.01 1.984-3.886 1.324-.878 3.248-1.316 5.768-1.316h1.588v-.833c0-1.451-.656-2.177-1.968-2.177-1.22 0-1.832.574-1.832 1.722h-5.144c0-1.53.68-2.77 2.036-3.727 1.36-.953 3.092-1.431 5.196-1.431v.004zm16.744 0c2.176 0 3.928.474 5.252 1.415 1.324.945 1.984 2.189 1.984 3.727h-5.16c0-1.267-.696-1.897-2.092-1.897-.54 0-.992.143-1.36.43-.368.287-.548.646-.548 1.073 0 .426.224.793.672 1.068.448.271 1.164.498 2.144.674.98.175 1.844.387 2.588.63 2.484.817 3.724 2.284 3.724 4.397 0 1.443-.668 2.615-2.008 3.52-1.34.905-3.072 1.359-5.196 1.359-1.416 0-2.676-.243-3.784-.73-1.108-.486-1.976-1.148-2.596-1.985-.62-.837-.932-1.718-.932-2.643h4.808c.02.73.276 1.264.764 1.599.488.335 1.116.502 1.876.502.704 0 1.228-.135 1.58-.41.352-.271.528-.63.528-1.069 0-.438-.228-.753-.688-1.008-.456-.255-1.328-.519-2.612-.79-1.284-.27-2.34-.63-3.176-1.072-.836-.442-1.472-.98-1.908-1.614-.436-.634-.656-1.36-.656-2.177 0-1.451.624-2.647 1.876-3.588 1.252-.94 2.892-1.411 4.916-1.411h.004zM61.932 8.19v10.576l7.28-10.576h6.624L67.7 18.794l7.512 11.863H68.86l-4.732-7.917-2.2 2.308v5.609h-5.356V8.19h5.36zm72.536 6.661v15.806h-5.16V14.851h5.16zm45.364 0v2.659l-7.356 9.348H180v3.799h-14.028V27.91l7.328-9.264h-8.632l3.436-3.799h11.728v.004zm-38.468 10.707c1.408 0 2.548 1.097 2.548 2.448 0 1.352-1.14 2.448-2.548 2.448-1.408 0-2.548-1.096-2.548-2.448 0-1.351 1.14-2.448 2.548-2.448zM153.312 8.19v11.807l.52-.65 3.888-4.572h6.184l-5.8 6.438 6.184 9.217h-5.908l-3.612-5.832-1.456 1.375v4.457h-5.16V8.19h5.16zM85.548 23.629h-1.496c-1.792 0-2.688.77-2.688 2.308 0 .447.156.81.472 1.088.316.28.716.415 1.204.415.64 0 1.172-.132 1.596-.395.424-.263.724-.558.908-.893v-2.527l.004.004zm32.892-5.274c-1.22 0-2.036.419-2.444 1.256v6.223c.448.877 1.272 1.315 2.472 1.315 1.64 0 2.484-1.355 2.532-4.062v-.526c0-2.807-.856-4.206-2.564-4.206h.004zM131.96 8.19a2.555 2.555 0 012.548 2.563 2.555 2.555 0 01-2.548 2.563 2.555 2.555 0 01-2.548-2.563 2.555 2.555 0 012.548-2.563z" fill="#000"/></g><defs><clipPath id="clip0_135_982"><path fill="#fff" transform="translate(0 .5)" d="M0 0h180v41H0z"/></clipPath></defs></svg>