<svg width="129" height="24" viewBox="0 0 129 24" fill="none" xmlns="http://www.w3.org/2000/svg"><path fill-rule="evenodd" clip-rule="evenodd" d="M50.54 12v12h.745V0h-.746v12zm10.605-4.776v7.066h1.988V1.816h10.356v12.473h2.072V.159H61.145v7.066zm17.73 0v7.066h2.071v-1.971l11.579-.021 11.578-.022.608-.211c.883-.308 1.451-.663 2.075-1.297.536-.545 1.038-1.356 1.139-1.841.043-.205.085-.227.515-.274.716-.078 1.205-.262 1.617-.607.982-.824 1.142-2.266.36-3.242-.485-.607-1.017-.864-2.026-.98-.335-.038-.435-.08-.435-.184 0-.075-.152-.434-.337-.8-.45-.885-1.346-1.747-2.241-2.155-1.214-.553-.525-.527-14.196-.527H78.875v7.066zm35.377 0v7.066l1.181-.002h1.181l5.095-5.776 5.095-5.775.022 5.776.021 5.777h2.07V.154l-1.189.021-1.189.022-5.087 5.763-5.087 5.763-.021-5.782-.021-5.783h-2.071v7.066zm-9.633-5.142c.634.28 1.272.898 1.576 1.53.168.347.227.615.254 1.139l.035.685 1.158.025c1.151.026 1.158.027 1.357.247a.76.76 0 01-.043 1.088l-.242.23h-2.229l-.036.691c-.028.534-.088.8-.265 1.173-.276.582-.904 1.195-1.542 1.506l-.456.222-11.62.021-11.62.021V1.814l11.579.02 11.578.021.516.227zM0 11.96v4.856h.994v-4.5h1.18l1.181.002 1.811 2.249 1.811 2.249h.578c.335 0 .567-.032.55-.076-.015-.042-.897-1.163-1.96-2.49-1.064-1.329-1.917-2.458-1.896-2.51.022-.053.845-1.1 1.83-2.326.986-1.227 1.792-2.25 1.792-2.273 0-.024-.252-.032-.56-.02l-.559.024-1.698 2.151-1.699 2.151H.995V7.105H0v4.855zm11.033-2.19c-.055 1.465-.137 2.948-.183 3.296-.264 2.002-.786 2.827-1.805 2.854l-.47.013-.024.432-.025.432.377.054c1.771.253 2.656-1.018 2.937-4.22.048-.542.112-1.812.142-2.822l.056-1.835h4.947v8.849l.517-.023.518-.024.022-4.835.02-4.836h-6.929l-.1 2.665zm9.232-2.408c.075.14.996 1.814 2.046 3.718l1.91 3.462-.2.354c-.379.666-1.156 1.207-1.737 1.209-.07 0-.315-.046-.545-.103l-.418-.104-.146.39c-.17.459-.155.478.526.613a2.735 2.735 0 002.529-.808c.399-.423.486-.569 3.388-5.695l1.868-3.3-.542.024-.541.023-1.77 3.196c-.973 1.758-1.8 3.205-1.836 3.215-.036.011-.849-1.435-1.806-3.214l-1.74-3.234-.561-.001-.561-.002.136.257zm10.97 4.607v4.865l2.59-.039c2.073-.03 2.687-.064 3.085-.17 1.07-.284 1.72-.736 2.086-1.45.209-.407.231-.533.23-1.28 0-.714-.028-.883-.2-1.216-.269-.523-.676-.892-1.28-1.16-.724-.32-1.332-.386-3.55-.387h-1.97l.022-1.6.023-1.598 3.21-.02 3.21-.021v-.788h-7.456v4.864zm5.043.035c1.31.202 1.919.822 1.915 1.947-.003.881-.357 1.405-1.2 1.775-.393.173-.524.183-2.589.207l-2.175.026v-4.038h1.76c.97.001 1.999.038 2.289.083zm24.867 4.337v.475h3.645v7.026h1.16v-7.026h3.654l-.025-.454-.025-.454-4.205-.02-4.205-.021v.474zm11.824-.387c-1.4.196-2.164 1-2.17 2.283-.004 1.057.535 1.782 1.596 2.147.215.074.38.176.365.228-.013.053-.435.75-.937 1.551-.502.801-.933 1.507-.958 1.568-.036.09.074.11.565.11l.61-.002.994-1.616.994-1.615 1.802-.002h1.802v3.236h1.16v-7.974l-2.672.01c-1.47.005-2.888.04-3.151.076zm7.314.431c0 .487.009.509.228.559.492.113.895.388 1.871 1.276.67.61 1.18 1.004 1.5 1.157l.485.232-.424.137c-1.195.388-2.398 1.248-3.049 2.182-.306.44-.708 1.282-.81 1.697l-.053.217h1.22l.104-.335c.333-1.074 1.371-2.233 2.414-2.695a9.61 9.61 0 01.802-.324l.186-.051v3.405h1.16v-3.405l.187.05c.102.027.463.177.801.332 1.054.484 2.02 1.579 2.405 2.727l.1.296h1.22l-.128-.414c-.274-.88-.963-1.913-1.693-2.538-.5-.429-1.274-.858-1.956-1.086a5.455 5.455 0 01-.507-.185c-.014-.014.207-.143.492-.288.323-.164.866-.58 1.436-1.098 1.071-.975 1.293-1.133 1.766-1.254l.351-.09v-1.011l-.31.043c-.745.102-1.306.45-2.364 1.467-.557.535-1.19 1.088-1.404 1.23l-.392.256-.023-1.483-.022-1.483-.56-.024-.559-.023v3.016l-.268-.142c-.148-.079-.791-.633-1.43-1.233-1.206-1.134-1.759-1.488-2.465-1.582l-.31-.042v.507zm11.738-.464c-.03.029-.056 1.823-.056 3.987v3.934h7.54v-.868H93.12l.023-1.362.023-1.362 2.962-.02 2.962-.021v-.867h-5.966v-2.526h6.298v-.948h-3.673c-2.02 0-3.698.024-3.728.053zm9.224 3.934v3.987h1.16V20.21l2.92.02 2.921.021.022 1.796.022 1.796h1.159l-.022-3.967-.021-3.967-.56-.024-.559-.023v3.481h-5.882v-3.474h-1.16v3.987zm10.08-3.934c-.03.029-.055 1.823-.055 3.987v3.934h1.379l2.852-3.232 2.853-3.232.021 3.232.022 3.232h1.158v-7.974l-.642.002-.642.002-2.9 3.288-2.9 3.287-.022-3.29-.021-3.289h-.524c-.288 0-.549.024-.579.053zm10.136 3.934v3.987H129v-.868h-6.38V20.21h5.966v-.869h-5.966v-2.526h6.297v-.948h-7.456v3.987zM77.632 18.24v1.425l-2.397-.023c-2.271-.022-2.409-.032-2.625-.186-.514-.366-.716-.944-.576-1.65.07-.358.482-.81.822-.904.143-.04 1.277-.075 2.518-.08l2.258-.006v1.424z" fill="#fff"/></svg>