<svg width="260" height="51" viewBox="0 0 260 51" fill="none" xmlns="http://www.w3.org/2000/svg"><path fill-rule="evenodd" clip-rule="evenodd" d="M101.863 25.5v25h1.502V.5h-1.502v25zm21.374-9.95v14.72h4.008V4.283h20.873V30.27h4.175V.829h-29.056v14.72zm35.735 0v14.72h4.175v-4.104l23.337-.045 23.336-.045 1.225-.441c1.78-.64 2.925-1.38 4.183-2.702 1.079-1.134 2.091-2.824 2.296-3.835.087-.427.171-.473 1.038-.57 1.442-.164 2.428-.547 3.259-1.266 1.978-1.715 2.301-4.72.726-6.755-.979-1.264-2.051-1.799-4.085-2.04-.675-.08-.877-.168-.877-.384 0-.155-.306-.904-.679-1.665-.906-1.846-2.713-3.642-4.516-4.49-2.446-1.152-1.058-1.1-28.613-1.1h-24.805V15.55zm71.304 0v14.72l2.38-.003 2.379-.002 10.27-12.031 10.27-12.032.043 12.034.042 12.034h4.173V.82l-2.397.046-2.397.045-10.252 12.007-10.253 12.006-.042-12.047-.043-12.048h-4.173v14.72zM210.859 4.837c1.279.582 2.564 1.87 3.178 3.186.337.724.458 1.283.511 2.373l.071 1.428 2.333.053c2.321.053 2.335.055 2.735.514a1.621 1.621 0 01-.085 2.265l-.488.481h-4.494l-.072 1.44c-.057 1.112-.177 1.666-.534 2.443-.556 1.212-1.821 2.49-3.108 3.138l-.919.463-23.42.043-23.42.043V4.278l23.337.044 23.336.043 1.039.473zM0 25.418v10.115h2.004v-9.375l2.38.002 2.379.003 3.65 4.685 3.65 4.685h1.164c.675 0 1.142-.067 1.11-.159-.03-.087-1.81-2.422-3.953-5.189-2.143-2.766-3.862-5.119-3.82-5.228.043-.108 1.703-2.288 3.69-4.844 1.985-2.556 3.61-4.688 3.61-4.736 0-.05-.507-.068-1.127-.04l-1.127.048-3.424 4.482-3.423 4.481h-4.76v-9.045H0v10.115zm22.237-4.564c-.11 3.053-.277 6.143-.37 6.866-.532 4.171-1.583 5.891-3.636 5.947l-.948.027-.05.9-.049.9.76.111c3.57.528 5.354-2.12 5.92-8.79.096-1.13.225-3.776.287-5.88l.112-3.823h9.97v18.436l1.043-.048 1.044-.05.043-10.073.043-10.074H22.44l-.203 5.55zm18.607-5.017c.15.294 2.007 3.78 4.124 7.747l3.85 7.212-.404.737c-.763 1.387-2.329 2.514-3.5 2.519-.14 0-.635-.096-1.099-.215l-.843-.215-.294.813c-.344.955-.312.993 1.06 1.276 1.87.385 3.787-.248 5.097-1.683.804-.882.98-1.186 6.828-11.866l3.765-6.874-1.091.048-1.091.049-3.567 6.658c-1.962 3.663-3.627 6.677-3.7 6.7-.073.022-1.711-2.992-3.64-6.697l-3.507-6.737-1.131-.003-1.132-.003.275.534zm22.11 9.6V35.57l5.219-.08c4.18-.063 5.418-.134 6.22-.354 2.156-.592 3.467-1.534 4.203-3.02.42-.85.466-1.11.465-2.669-.002-1.486-.058-1.839-.403-2.532-.542-1.09-1.364-1.86-2.58-2.416-1.46-.667-2.686-.806-7.157-.807l-3.97-.001.046-3.33.045-3.331 6.47-.044 6.471-.042v-1.641H62.954v10.133zm10.164.07c2.64.423 3.867 1.713 3.86 4.058-.006 1.836-.72 2.927-2.418 3.698-.793.36-1.056.381-5.218.432l-4.384.053v-8.413l3.549.002c1.951 0 4.026.078 4.61.17zm50.119 9.038v.988h7.347v14.639h2.338v-14.64h7.364l-.05-.945-.05-.946-8.474-.042-8.475-.043v.989zm23.832-.806c-2.82.406-4.362 2.082-4.373 4.754-.009 2.202 1.078 3.714 3.217 4.473.432.154.763.368.736.477-.028.108-.878 1.562-1.89 3.23-1.012 1.67-1.88 3.139-1.93 3.267-.073.186.15.23 1.138.228l1.229-.004L147.2 46.8l2.004-3.366 3.632-.003 3.632-.002v6.743h2.337V33.56l-5.385.02c-2.962.011-5.82.083-6.351.16zm14.742.897c0 1.015.018 1.06.459 1.164.991.234 1.805.808 3.772 2.659 1.35 1.27 2.379 2.09 3.023 2.41l.976.483-.853.286c-2.41.807-4.835 2.6-6.146 4.546-.617.916-1.427 2.67-1.631 3.535l-.107.452h2.458l.21-.699c.67-2.236 2.763-4.651 4.866-5.614.681-.313 1.408-.616 1.615-.675l.376-.106v7.094h2.337v-7.094l.376.103c.207.058.934.37 1.616.693 2.125 1.008 4.071 3.289 4.848 5.681l.2.617h2.461l-.26-.863c-.552-1.832-1.942-3.986-3.413-5.288-1.007-.893-2.566-1.787-3.941-2.262-.532-.184-.992-.357-1.022-.386-.029-.028.417-.298.992-.6.65-.34 1.745-1.206 2.893-2.286 2.159-2.032 2.606-2.36 3.559-2.613l.709-.188V33.58l-.627.089c-1.5.213-2.63.938-4.762 3.055-1.123 1.115-2.398 2.268-2.832 2.562l-.789.534-.046-3.09-.045-3.089-1.127-.048-1.127-.049v6.284l-.542-.297c-.298-.164-1.594-1.32-2.88-2.569-2.433-2.361-3.546-3.1-4.97-3.296l-.626-.086v1.056zm23.657-.967c-.061.06-.112 3.798-.112 8.306v8.196h15.196v-1.809h-12.866l.046-2.837.046-2.837 5.97-.044 5.969-.043v-1.805h-12.023v-5.263h12.691v-1.974h-7.403c-4.072 0-7.453.05-7.514.11zm18.591 8.196v8.306h2.338v-7.57l5.886.043 5.887.044.044 3.741.045 3.742h2.335l-.043-8.265-.044-8.265-1.127-.048-1.127-.049v7.252h-11.856V33.56h-2.338v8.306zm20.317-8.196c-.061.06-.111 3.798-.111 8.306v8.196h2.779l5.749-6.734 5.749-6.734.044 6.734.043 6.734h2.334V33.56l-1.294.004-1.294.004-5.844 6.85-5.845 6.848-.044-6.853-.043-6.853h-1.056c-.581 0-1.106.05-1.167.11zm20.428 8.196v8.306H260v-1.809h-12.858v-5.757h12.023v-1.809h-12.023v-5.263h12.691v-1.974h-15.029v8.306zm-88.336-3.364v2.967l-4.831-.048c-4.578-.046-4.855-.066-5.292-.387-1.035-.762-1.442-1.966-1.161-3.438.141-.744.972-1.687 1.657-1.883.289-.082 2.573-.156 5.076-.164l4.551-.015V38.5z" fill="#fff"/></svg>