<svg width="18" height="22" viewBox="0 0 18 22" fill="none" xmlns="http://www.w3.org/2000/svg"><path d="M3.72 3.97C4.103 1.723 5.589.496 8.27.215c.174-.018.77-.03 1.322-.025.818.007 1.048.02 1.23.071.77.218 1.264.725 1.314 1.348l.02.237h.196c.387 0 .807.192 1.117.511.333.342.573.937.668 1.656.09.682.072 1.798-.039 2.384-.018.1-.003.125.146.23.358.25.463.617.396 1.38-.08.918-.242 1.457-.536 1.78-.243.27-.551.343-.799.193a.423.423 0 00-.133-.065 9.486 9.486 0 00-.129.36c-.415 1.201-1.26 2.359-2.156 2.951-.148.099-.27.195-.27.215 0 .06.188.41.336.627.141.206.52.588.726.731.074.052.287.11.635.174 1.512.276 2.615.77 3.562 1.596.374.326.533.531.758.979.164.326.41 1.023.452 1.28l.022.133-.444.327a12.774 12.774 0 01-7.012 2.505 12.82 12.82 0 01-8.415-2.572c-.201-.151-.345-.286-.345-.324 0-.12.222-.808.37-1.148.203-.468.444-.813.772-1.108.982-.88 2.139-1.404 3.72-1.683.381-.068.472-.098.615-.203a3.59 3.59 0 00.65-.665c.132-.174.356-.58.356-.644 0-.016-.147-.133-.326-.26-.918-.645-1.708-1.744-2.118-2.944l-.113-.327a.433.433 0 00-.13.065.613.613 0 01-.27.076c-.404 0-.747-.397-.92-1.066-.096-.371-.196-1.343-.166-1.609.03-.263.173-.558.342-.706l.134-.116-.066-.36a8.116 8.116 0 01-.083-1.065c-.015-.601-.006-.774.06-1.164z" fill="#915C46"/></svg>