<svg width="100" height="100" viewBox="0 0 100 100" fill="none" xmlns="http://www.w3.org/2000/svg"><path d="M41.66 2.734c-.742.313-.84.801-.84 4.57v3.633h-3.183c-3.965 0-3.946-.02-3.809 2.325.215 3.75 3.047 6.699 6.992 7.285l1.367.195v2.54c0 4.16.489 7.48 1.934 12.948.293 1.172.605 2.579.664 3.125l.098.977h-2.95c-2.5 0-3.203.078-4.492.45-2.988.859-5.879 2.714-7.754 4.98-1.25 1.504-2.793 4.668-3.203 6.523-.37 1.719-.39 4.98-.039 6.68l.254 1.25-.586.976c-.742 1.172-.937 2.95-.488 4.278.176.468 1.406 2.578 2.754 4.726l2.46 3.867-1.073 1.407c-2.227 2.87-3.399 6.23-3.399 9.687 0 4.844 2.383 8.79 6.602 10.918 2.617 1.309 2.265 1.29 16.64 1.29 14.532 0 14.082.038 16.895-1.427 2.636-1.386 4.55-3.632 5.683-6.68.489-1.308.547-1.718.547-4.003.02-3.047-.39-4.707-1.797-7.403-1.523-2.91-3.574-4.863-7.539-7.168-1.328-.78-2.93-2.44-3.633-3.73l-.468-.918.41-.45c1.66-1.816 1.387-5.058-.527-6.327-.704-.469-.723-.528-.84-1.934-.078-.82-.235-1.894-.352-2.402-.332-1.348-1.562-3.887-2.48-5.117-.82-1.055-.82-1.075-.82-2.735v-1.68l1.62.254c.88.137 2.833.254 4.336.254 3.067.02 4.766-.254 6.426-1.093 2.715-1.348 4.707-4.727 5.098-8.614.117-1.308.176-1.445.8-1.914 1.329-1.015 1.504-1.66 1.602-6.094.078-3.789.078-3.964-.351-4.863a3.382 3.382 0 00-1.29-1.426c-.722-.43-.84-.605-.859-1.152-.02-1.816-2.52-1.894-2.851-.078-.098.508-.391.938-.977 1.465-1.21 1.054-1.406 1.797-1.543 5.82-.156 4.14-.02 4.805 1.152 5.938.43.43.977.879 1.172.996.352.195.371.293.157 1.601-.274 1.582-.88 3.067-1.758 4.278-1.64 2.207-5.684 2.832-11.856 1.816-.644-.098-1.21-.195-1.25-.195-.039 0-.02-.938.04-2.11.097-1.543.331-2.851.917-5.02 1.114-4.16 1.563-7.05 1.7-11.073l.117-3.438 1.328-.195c2.383-.352 4.336-1.563 5.644-3.457 1.192-1.739 1.758-4.727 1.055-5.723-.293-.41-.41-.43-3.496-.43h-3.203l-.059-3.808c-.058-3.34-.097-3.848-.41-4.14-.312-.333-.957-.352-8.105-.391-4.258-.02-7.95.039-8.184.136zm13.809 5.371v2.637h-11.72V5.47h11.72v2.636zm6.836 5.918c0 1.133-2.051 3.106-3.711 3.555-.391.117-4.16.195-9.004.195-9.278 0-9.63-.039-11.075-1.289-.8-.664-1.19-1.25-1.601-2.324l-.195-.488h12.793c12.207 0 12.793.02 12.793.351zM54.1 23.047c0 3.886-.605 7.89-1.757 11.816-.47 1.602-.977 4.688-.977 6.016v.937l-.703-.136c-.39-.078-1.152-.235-1.719-.352-1.133-.254-1.035-.059-1.465-3.34-.097-.86-.43-2.363-.703-3.32-1.172-4.004-1.66-7.305-1.66-11.27v-2.695H54.1v2.344zm17.149 1.289c.41.293.43.41.43 3.496 0 3.32-.137 4.101-.801 4.297-.508.176-1.133-.215-1.27-.801-.078-.273-.078-1.875 0-3.555.117-2.754.176-3.105.547-3.418.488-.41.547-.41 1.094-.02zM43.789 43.28l.879.117-.098 2.676-.078 2.656-.723.977c-1.757 2.344-2.695 4.805-2.89 7.383-.117 1.582-.117 1.601-.86 2.129-1.875 1.328-2.226 4.18-.742 6.054l.586.743-.41.78c-.215.43-.43.782-.469.782-.039 0-1.093-1.621-2.363-3.613-2.852-4.532-3.613-5.157-6.191-5.176-.625 0-1.133-.059-1.133-.156-.02-.078-.098-.782-.176-1.563-.45-3.886 1.016-7.773 3.965-10.547 1.386-1.289 3.828-2.636 5.527-3.047 1.211-.292 3.73-.39 5.176-.195zm6.21 1.211l1.661.352.059 1.504.058 1.504h-4.551l.137-1.524c.156-1.914.254-2.188.645-2.188.175.02 1.074.176 1.992.352zm3.126 7.012c1.21 1.484 2.324 4.492 2.344 6.348v.546h-11.72v-.742c.02-1.855 1.114-4.765 2.364-6.191l.606-.684h5.8l.606.723zm4.472 10.332c.528.664.508.918-.058 1.582l-.469.547-6.914.058c-3.789.04-7.187 0-7.539-.058-1.308-.235-1.797-1.328-.976-2.188l.41-.449h15.156l.39.508zm-25.605.605c.371.41 1.621 2.246 2.774 4.102 1.933 3.066 2.09 3.379 1.796 3.633-.527.449-3.203 1.914-3.398 1.855-.098-.039-1.23-1.719-2.5-3.77-2.715-4.277-2.832-4.726-1.68-5.878.547-.547.801-.664 1.504-.664s.918.097 1.504.722zm25.293 5.938c1.016 2.11 2.734 3.808 5.293 5.254 2.363 1.328 3.906 2.695 5.176 4.61 1.738 2.577 2.539 6.23 1.972 8.925-.527 2.558-2.265 4.883-4.609 6.133-2.324 1.25-2.48 1.25-16.152 1.191-12.266-.059-12.344-.059-13.516-.508-2.441-.918-4.219-2.52-5.293-4.804-1.426-2.989-1.191-6.368.664-9.98 1.035-2.013 3.496-4.395 5.82-5.626 2.618-1.406 5.04-3.965 5.743-6.113l.234-.664 6.953.02h6.973l.742 1.562z" fill="#915C46"/></svg>