<svg width="24" height="24" viewBox="0 0 24 24" fill="none" xmlns="http://www.w3.org/2000/svg"><g clip-path="url(#clip0_3107_764)"><path d="M8.734 5.599c-.287.143-.61.48-.588.62.009.08.076.116.332.202.562.175.863.543.961 1.154.14.867.13 2.673-.018 3.378-.224 1.092-.777 1.1-1.599.014-.746-.984-1.63-2.56-2.268-4.03-.247-.57-.4-.781-.665-.92-.18-.09-.243-.095-2.035-.09-1.959 0-2.076.008-2.264.21-.086.095-.1.144-.081.369.018.216.117.463.57 1.429 1.016 2.156 1.968 3.89 2.938 5.345 1.59 2.381 2.866 3.634 4.501 4.425 1.25.602 2.395.831 4.003.804.732-.018.822-.027 1.015-.121.301-.148.382-.342.44-1.029.059-.656.135-.975.328-1.361.23-.463.562-.606.966-.418.18.081.764.652 1.712 1.667.638.687.975.948 1.442 1.132l.292.112 2.098.014c2.326.013 2.304.018 2.529-.279.152-.202.197-.588.099-.871-.207-.589-.872-1.402-2.305-2.817-1.316-1.298-1.402-1.41-1.348-1.833.036-.305.149-.48 1.343-2.089a78.592 78.592 0 001.375-1.895c.651-.962.993-1.716.993-2.184 0-.215-.018-.27-.126-.377-.238-.234-.341-.247-2.66-.247-2.007 0-2.142.005-2.304.085-.22.108-.337.288-.593.926-.66 1.617-1.603 3.239-2.448 4.209-.597.687-.813.768-1.123.431-.31-.328-.314-.377-.314-2.861 0-2.363-.023-2.615-.234-2.911a.732.732 0 00-.279-.22c-.17-.077-.332-.086-2.322-.086H8.963l-.229.113z" fill="#fff" fill-opacity=".7"/></g><defs><clipPath id="clip0_3107_764"><path fill="#fff" transform="translate(.5 .5)" d="M0 0h23v23H0z"/></clipPath></defs></svg>