<svg width="141" height="140" viewBox="0 0 141 140" fill="none" xmlns="http://www.w3.org/2000/svg"><path d="M69.68 2.68c-.492.41-.683.93-.847 2.351-.273 2.242-1.285 4.211-2.926 5.66-1.394 1.204-3.691 2.16-5.277 2.16-2.051 0-3.145 2.051-1.887 3.61.41.547.875.738 2.16.875.93.11 2.324.52 3.282 1.012 2.706 1.367 4.183 3.5 4.62 6.78.301 2.052.876 2.763 2.243 2.763 1.504 0 1.914-.465 2.351-2.707.492-2.625 1.23-4.102 2.735-5.497 1.394-1.285 2.433-1.777 4.539-2.214a37.865 37.865 0 002.05-.41c.793-.165 1.504-1.532 1.286-2.407-.274-1.066-1.094-1.613-2.899-1.86-4.293-.573-7.219-3.608-7.738-7.956-.164-1.23-.356-1.695-.902-2.106-.848-.683-1.996-.71-2.79-.054zm3.145 13.918c-.82.793-1.504 1.586-1.504 1.722 0 .137-.765-.52-1.695-1.449l-1.723-1.695 1.613-1.64 1.641-1.641 1.559 1.613 1.586 1.613-1.477 1.477zM128.66 6.344c-.601.465-1.012 1.668-1.012 2.98v1.067h-1.503c-1.887 0-2.598.601-2.598 2.16 0 1.449.93 2.215 2.734 2.215h1.285l.164 1.558c.137 1.258.329 1.723.875 2.188.985.847 1.942.793 2.899-.164.656-.684.793-1.012.793-2.188v-1.394h1.34c1.832 0 2.871-.848 2.871-2.325 0-1.421-.82-2.05-2.707-2.05h-1.449l-.11-1.668c-.109-1.34-.246-1.805-.738-2.188-.738-.601-2.188-.683-2.844-.191zM12.286 13.015c-.41.547-.575 1.122-.575 2.188v1.477h-1.613c-1.422 0-1.695.082-2.187.71-.657.82-.711 1.422-.274 2.38.383.874 1.34 1.285 2.844 1.285h1.23v1.449c0 2.27 1.477 3.445 3.227 2.543.984-.492 1.148-.903 1.148-2.625v-1.313l1.668-.11c1.942-.136 2.707-.765 2.707-2.241 0-1.45-.82-2.078-2.734-2.078h-1.64v-1.641c0-2.024-.547-2.734-2.16-2.734-.848 0-1.204.164-1.641.71zm93.624 2.298c-.301.328-.601 1.257-.738 2.269-.602 4.375-3.445 7.191-7.903 7.82-1.913.246-2.707.903-2.707 2.215 0 1.367.876 2.078 2.79 2.297 4.265.438 7.218 3.39 7.82 7.793.301 2.05.875 2.762 2.242 2.762 1.559 0 1.941-.465 2.352-2.844.574-3.336 2.214-5.633 4.922-6.89.765-.356 1.996-.739 2.734-.82.738-.083 1.613-.274 1.941-.438.821-.41 1.231-1.641.875-2.653-.328-.902-1.066-1.258-3.117-1.531-3.855-.52-6.945-3.8-7.41-7.848-.109-.957-.383-1.777-.711-2.105-.684-.766-2.406-.766-3.09-.027zM109 25.977l1.641 1.64-1.586 1.613-1.614 1.614-1.613-1.614-1.586-1.585 1.449-1.422c.793-.793 1.45-1.532 1.45-1.668 0-.41.191-.246 1.859 1.422zm-72.816-.575c-.738.465-5.715 3.637-11.047 7.055l-9.652 6.234-6.7 10.391c-3.69 5.715-6.863 10.746-7.054 11.211-.274.656-.191 2.762.492 11.348.82 10.992.93 11.511 2.188 12.03.601.247 58.023 6.016 59.828 6.016 1.586 0 2.27-.738 2.215-2.351-.028-1.75-5.77-58.79-5.961-59.637-.329-1.258-.875-1.367-10.774-2.105-5.195-.383-10.035-.766-10.8-.848-1.176-.137-1.56-.027-2.735.656zm15.203 4.785l3.418.301-2.023 3.828a1833.938 1833.938 0 00-3.528 6.672l-1.53 2.844-.602-1.477c-.329-.82-1.723-4.046-3.118-7.19l-2.46-5.716 3.199.219c1.75.11 4.758.328 6.644.52zm-10.691 8.641c1.695 3.938 3.008 7.191 2.926 7.274-.137.164-15.422-1.778-16.133-2.051-.438-.164-.137-.657 2.16-3.446 6.07-7.437 7.547-9.16 7.738-9.023.137.055 1.614 3.336 3.309 7.246zm19.851 34.125c-.054.028-.793-1.559-1.64-3.555-.875-1.996-2.133-4.867-2.79-6.37-.656-1.505-2.269-5.25-3.609-8.34l-2.433-5.606.601-1.094c.328-.601 1.504-2.816 2.598-4.922 1.887-3.636 3.144-5.96 3.5-6.562.11-.164 1.012 7.957 1.996 18.047 1.012 10.062 1.805 18.347 1.777 18.402zM26.012 37.926c-.601.738-1.969 2.379-3.035 3.691-1.121 1.367-3.363 3.555-5.195 5.031-1.75 1.477-3.5 2.899-3.856 3.227-.656.574-.328.027 3.309-5.605 1.476-2.297 1.558-2.38 5.578-4.95 2.242-1.476 4.129-2.652 4.156-2.652.055-.027-.383.547-.957 1.258zm8.067 11.566c4.593.63 8.394 1.149 8.449 1.176.027.055-3.39 3.527-7.574 7.71-4.211 4.212-7.657 7.466-7.657 7.22 0-.22-.492-4.157-1.093-8.723-.602-4.566-1.094-8.34-1.094-8.395 0-.136.465-.109 8.969 1.012zm-12.114 9.242c.575 4.403.957 8.067.903 8.149-.082.082-3.473-1.313-7.52-3.063l-7.41-3.199.738-.602c6.59-5.496 11.922-9.68 12.059-9.515.11.11.656 3.828 1.23 8.23zm31.446 9.325c3.554 8.175 6.398 14.902 6.37 14.957-.054.027-6.808-2.844-15.038-6.426l-14.957-6.48 8.53-8.532c4.677-4.676 8.532-8.476 8.587-8.45.027.056 2.953 6.755 6.508 14.93zm-40.606-.438c2.926 1.258 5.88 2.543 6.563 2.844l1.23.52-2.871 1.53c-1.586.848-4.512 2.407-6.535 3.473-2.024 1.067-3.774 1.942-3.856 1.942-.109 0-.328-2.133-.52-4.73-.163-2.571-.41-5.552-.491-6.563l-.164-1.86.656.274c.355.136 3.062 1.285 5.988 2.57zm25.348 11.02c6.508 2.816 11.812 5.168 11.758 5.195-.192.164-36.313-3.61-36.313-3.828 0-.301 12.113-6.727 12.469-6.59.164.027 5.605 2.379 12.086 5.223zm44.324-44.625c-.63.464-1.04 1.613-1.04 2.925v1.067h-1.394c-1.695 0-2.297.3-2.68 1.367-.328.957-.191 1.531.602 2.379.437.492.848.629 1.996.629h1.422l.11 1.558c.109 1.258.273 1.668.874 2.188 1.805 1.531 3.719.164 3.719-2.68v-1.066h1.34c1.832 0 2.762-.739 2.762-2.215 0-1.559-.711-2.16-2.598-2.16h-1.504v-1.23c0-1.395-.547-2.708-1.23-2.981-.739-.274-1.887-.164-2.38.219zm43.339 3.444c-.847.33-1.175 1.122-1.175 2.708v1.395h-1.504c-1.914 0-2.871.792-2.871 2.324 0 1.476.738 2.05 2.734 2.05h1.641v1.641c0 1.996.574 2.734 2.05 2.734 1.532 0 2.325-.956 2.325-2.87v-1.505h1.586c1.804 0 2.378-.41 2.679-1.859.137-.71.028-.984-.656-1.695-.711-.684-1.039-.82-2.215-.82h-1.394v-1.395c0-1.176-.137-1.504-.793-2.188-.821-.82-1.368-.93-2.407-.52zM90.762 52.746l-9.105.738-.656.738c-.356.438-.657.93-.657 1.149 0 .219-1.285 13.289-2.898 29.039-1.586 15.75-2.899 29.231-2.899 29.941-.027 1.368.329 2.051 1.34 2.434.547.191 58.926-5.469 60.731-5.906.355-.082.793-.52 1.011-1.039.493-1.094 2.079-21.356 1.75-22.258-.109-.328-3.281-5.36-7.054-11.211l-6.836-10.61-10.774-6.917-10.8-6.891-1.997.027c-1.121.028-6.125.356-11.156.766zm8.094 5.277c-.355.793-1.723 3.992-3.09 7.11-1.34 3.117-2.516 5.55-2.652 5.441-.465-.437-6.754-12.687-6.617-12.852.164-.136 9.379-.984 11.949-1.093l1.039-.027-.63 1.421zm10.309 7.055c2.652 3.227 4.812 5.961 4.812 6.043 0 .082-1.695.356-3.746.629a533.82 533.82 0 00-8.449 1.094l-4.703.601.902-2.05c.492-1.149 1.723-3.993 2.734-6.317 1.012-2.324 2.078-4.785 2.379-5.441.438-1.04.574-1.149.903-.82.191.218 2.515 3.035 5.168 6.261zm-21.602 4.813c1.75 3.308 3.172 6.206 3.172 6.425 0 .383-10.2 24.035-10.309 23.926-.027-.027.766-8.312 1.778-18.43 1.011-10.09 1.914-18.265 2.023-18.156.082.11 1.586 2.899 3.336 6.235zm37.434 3.417c1.476 2.297 2.543 4.047 2.324 3.883-4.293-3.363-7.547-6.316-9.488-8.668-4.375-5.304-4.375-5.113.273-2.105l4.184 2.68 2.707 4.21zm-9.188 3.036c-.082.492-.629 4.511-1.203 8.941l-1.012 8.04-7.601-7.767-7.575-7.765 1.559-.219c9.406-1.258 15.285-2.05 15.613-2.078.274-.027.328.219.219.848zm10.746 6.097c7.328 5.934 6.754 5.14 4.485 6.18a805.93 805.93 0 01-7.411 3.254c-4.347 1.887-5.55 2.297-5.55 1.941 0-.656 1.941-15.695 2.078-16.133.109-.328.191-.3.601.028.246.219 2.871 2.351 5.797 4.73zm-15.394 14.793c-.082.082-21.93 9.625-26.989 11.785a139.261 139.261 0 00-3.035 1.313c-.082.082 2.79-6.699 6.426-15.04l6.59-15.175 8.531 8.531c4.703 4.704 8.504 8.559 8.477 8.586zm23.16 1.313c-.274 3.554-.574 6.453-.711 6.453-.356 0-12.797-6.617-12.797-6.809 0-.191 13.727-6.261 13.891-6.152.054.027-.11 2.98-.383 6.508zm-12.524 5.414c5.004 2.652 6.207 3.39 5.633 3.445-6.644.738-35.984 3.582-36.066 3.527-.055-.054 1.86-.957 4.21-1.968a4367.31 4367.31 0 0111.704-5.086c4.074-1.778 7.547-3.227 7.738-3.254.219 0 3.254 1.504 6.781 3.336zm-81.293-7.848c-.93.383-1.012.602-1.313 3.008-.52 3.828-3.773 6.891-7.847 7.383-1.887.246-2.68.875-2.68 2.16 0 1.504.738 2.133 2.816 2.379 4.266.52 7.22 3.5 7.793 7.875.274 1.996.93 2.762 2.297 2.762 1.04 0 2.133-1.094 2.133-2.133 0-.465.246-1.641.547-2.625 1.012-3.254 4.457-5.906 7.629-5.906 1.531 0 2.488-.848 2.488-2.215 0-1.477-.656-2.051-2.625-2.297-4.238-.492-7.328-3.5-7.902-7.656-.274-2.051-.383-2.297-1.23-2.735-.958-.492-.985-.492-2.106 0zm2.598 11.047l1.668 1.613-1.668 1.668-1.668 1.641-.547-.684c-.301-.382-1.012-1.121-1.559-1.64l-1.039-.957 1.559-1.586c.847-.875 1.558-1.613 1.558-1.641.028 0 .793.711 1.696 1.586zm70.027 14.055c-.684.519-1.066 1.449-1.066 2.625v1.121h-1.094c-1.559 0-2.652.629-2.871 1.641-.41 1.832.82 3.007 3.035 3.007.902 0 .93.028.93 1.094 0 1.395.437 2.324 1.285 2.707.984.465 1.613.356 2.433-.328.547-.492.766-.957.848-2.023l.137-1.395 1.394-.137c2.461-.218 3.418-2.187 1.86-3.773-.657-.629-1.039-.793-2.024-.793h-1.203l-.164-1.449c-.137-1.067-.355-1.586-.875-2.051-.766-.656-1.941-.766-2.625-.246zm-95.649 4.047c-1.011.41-1.367 1.066-1.394 2.625v1.449h-1.504c-1.832 0-2.598.602-2.598 2.051 0 1.504.985 2.324 2.735 2.324h1.367v1.367c0 1.695.848 2.734 2.187 2.734 1.34 0 2.188-1.039 2.188-2.734v-1.367h1.367c1.75 0 2.735-.82 2.735-2.324 0-1.449-.766-2.051-2.598-2.051H20.46v-1.504c0-1.148-.137-1.641-.547-2.051-.3-.301-.656-.547-.793-.547s-.41-.054-.629-.109c-.191-.082-.656 0-1.012.137zm52.063.027c-.957.52-1.23 1.094-1.23 2.598v1.449h-1.504c-1.887 0-2.598.602-2.598 2.16 0 1.477.93 2.215 2.762 2.215h1.34v1.367c0 1.695.847 2.734 2.187 2.734 1.34 0 2.188-1.039 2.188-2.734v-1.367h1.34c1.831 0 2.761-.738 2.761-2.215 0-1.558-.71-2.16-2.598-2.16h-1.504v-1.34c0-1.75-.164-2.16-1.12-2.625-.903-.492-1.286-.492-2.024-.082z" fill="#915C46"/></svg>