<svg width="100" height="100" viewBox="0 0 100 100" fill="none" xmlns="http://www.w3.org/2000/svg"><path d="M40.742 20.918c-2.441.566-5.41 2.754-6.719 4.902-1.62 2.715-2.129 6.465-1.289 9.473.118.43.078.45-1.406.45-.86 0-3.437.097-5.762.214-9.55.508-14.55-.977-19.863-5.938-1.523-1.445-1.621-1.503-2.539-1.503-.742 0-1.035.097-1.387.468-.566.606-.703 1.153-1.23 5.098-.371 2.871-.43 4.2-.45 9.863 0 7.168.157 8.887 1.27 13.184.703 2.715 1.348 4.375 2.578 6.816 3.243 6.27 8.536 10.39 15.45 11.973 1.875.43 7.5.43 11.972 0 4.102-.41 6.25-.41 8.672-.059 2.559.391 4.805 1.133 7.207 2.383 2.598 1.348 2.93 1.348 5.313.098 3.457-1.836 7.207-2.754 11.113-2.754 1.016 0 3.887.176 6.347.39 5.196.45 6.563.47 8.985.176 7.285-.898 13.535-5.37 17.05-12.226 1.7-3.32 2.735-6.64 3.477-11.094.43-2.637.586-11.152.293-14.824-.273-3.106-.918-8.028-1.113-8.38-.469-.82-.957-1.112-1.875-1.112s-1.016.058-2.54 1.504c-5.312 4.96-10.39 6.464-19.94 5.937-2.286-.117-4.825-.215-5.684-.215-1.484 0-1.524-.02-1.406-.449.332-1.211.488-3.36.312-4.707-.351-2.852-1.309-4.785-3.3-6.758-2.188-2.168-4.551-3.125-7.735-3.125-2.09 0-3.418.332-5.234 1.25l-1.328.684-1.212-.664c-.663-.352-1.757-.801-2.402-.957-1.328-.332-4.375-.391-5.625-.098zm4.961 4.2c.488.155 1.328.624 1.856 1.054 2.011 1.601 2.773 1.66 4.336.371 1.21-.996 2.304-1.523 3.613-1.738 3.027-.489 6.465 1.543 7.617 4.492 1.445 3.789-.8 9.2-5.977 14.375-1.953 1.953-4.277 3.77-6.035 4.668L50 48.926l-1.113-.586c-2.793-1.446-6.719-4.98-8.965-8.008-3.906-5.313-4.531-9.922-1.758-13.086 1.914-2.207 4.746-3.008 7.54-2.129zM6.367 35.877c1.64 1.153 4.922 2.696 6.953 3.263 3.399.976 6.309 1.113 15.684.82l5.469-.176.898 1.348c3.047 4.57 7.637 8.828 11.875 10.976 2.285 1.153 3.047 1.192 5 .274 4.16-1.973 9.102-6.406 12.148-10.918l1.133-1.68 5.079.176c9.96.352 13.203.137 16.933-1.094 2.07-.703 4.707-2.011 6.406-3.203.86-.605 1.309-.8 1.387-.645.078.137.234 1.544.371 3.165.352 4.218.176 11.601-.351 14.57-1.211 6.758-3.301 11.113-6.973 14.59-4.336 4.101-10.078 5.586-17.637 4.59-3.535-.45-10.098-.47-12.402 0-2.227.449-4.844 1.308-6.758 2.226l-1.543.742-1.621-.761a32.933 32.933 0 00-6.758-2.207c-2.383-.47-8.672-.47-12.558.02-7.91.995-13.79-.684-18.086-5.177-5.567-5.859-7.93-16.093-6.7-29.18.118-1.19.254-2.304.293-2.5.118-.37.079-.39 1.758.782z" fill="#915C46"/><path d="M25.097 49.14c-1.933.47-4.297 1.758-5.722 3.126-1.25 1.191-1.27 1.23-1.172 2.07.156 1.309 1.21 3.633 2.363 5.137 2.656 3.476 6.523 5.37 10.977 5.37 3.515 0 6.836-1.23 9.18-3.398l1.132-1.054-.098-1.153c-.058-.859-.293-1.601-.937-2.91-.703-1.426-1.172-2.05-2.637-3.496-2.87-2.89-5.625-4.004-9.765-3.984-1.172 0-2.676.136-3.32.293zm5.86 4.024c1.308.332 3.047 1.309 4.16 2.363.996.957 2.187 2.676 2.187 3.204 0 .136-.39.468-.879.761-2.949 1.719-7.109 1.68-9.921-.097-1.27-.82-2.52-2.13-3.243-3.36-.332-.586-.605-1.113-.605-1.191 0-.078.723-.488 1.62-.938 2.247-1.113 4.298-1.347 6.68-.742zm37.109-4.024c-.644.157-1.914.645-2.832 1.094-1.347.664-1.992 1.153-3.418 2.598-1.464 1.445-1.933 2.07-2.636 3.496-.645 1.309-.88 2.05-.938 2.91l-.097 1.153 1.035.957c2.343 2.187 5.078 3.3 8.535 3.457 6.289.254 11.601-3.164 13.652-8.868.742-2.011.664-2.324-.781-3.71-1.426-1.368-3.79-2.637-5.781-3.106-1.602-.371-5.157-.352-6.739.02zm5.86 4.024c.84.215 3.418 1.484 3.418 1.7 0 .058-.274.585-.606 1.171-2.597 4.512-8.632 6.094-13.164 3.457-.488-.293-.879-.625-.879-.761 0-.528 1.192-2.247 2.227-3.223 2.402-2.285 5.762-3.145 9.004-2.344z" fill="#915C46"/></svg>