<svg width="20" height="21" viewBox="0 0 20 21" fill="none" xmlns="http://www.w3.org/2000/svg"><g clip-path="url(#clip0_3107_743)"><path d="M3.496.555a2.77 2.77 0 00-.84.472C2.25 1.36.816 2.836.594 3.152a3.427 3.427 0 00-.5 1.188c-.078.37-.078 1.312.004 1.812.257 1.614 1.113 3.606 2.343 5.48 1.707 2.595 3.922 4.821 6.375 6.4 2.512 1.616 4.762 2.468 6.52 2.468.898 0 1.484-.18 2.09-.637.328-.246 2.043-2.02 2.222-2.297a1.91 1.91 0 00.317-1.074c.004-.379-.047-.574-.23-.933-.122-.243-.313-.45-1.606-1.754-1.79-1.801-1.95-1.922-2.66-1.965a1.796 1.796 0 00-1.024.215c-.246.12-.402.258-1.175 1.02l-.895.882-.336-.176c-.84-.437-1.894-1.234-2.797-2.11-1.168-1.136-2.062-2.273-2.535-3.218l-.172-.348.828-.824c.473-.472.895-.93.989-1.074a1.927 1.927 0 00-.004-2.164C8.128 3.711 5.457 1.035 5.12.82 4.773.59 4.45.5 4.008.504a2.27 2.27 0 00-.512.05zM4.41 1.64c.274.125 2.965 2.824 3.11 3.113a.809.809 0 01-.051.851c-.067.106-.52.582-1.004 1.063-.516.512-.918.941-.965 1.031-.137.274-.09.54.215 1.153.52 1.046 1.281 2.066 2.43 3.246 1.156 1.191 2.3 2.066 3.507 2.695.47.242.563.277.746.277.114 0 .278-.027.36-.062.101-.043.46-.367 1.09-.992.586-.582 1.004-.965 1.113-1.02a.823.823 0 01.785.016c.094.054.809.738 1.586 1.52 1.516 1.519 1.57 1.59 1.574 1.964 0 .367-.113.527-1.023 1.457-1.168 1.188-1.211 1.223-1.711 1.39-.531.177-1.078.173-2.008-.019-1.601-.328-3.984-1.52-5.844-2.926-2.55-1.93-4.777-4.582-6.074-7.246-1.2-2.46-1.476-4.277-.812-5.332.195-.308 1.976-2.074 2.199-2.18a.932.932 0 01.777 0z" fill="#fff"/></g><defs><clipPath id="clip0_3107_743"><path fill="#fff" transform="translate(0 .5)" d="M0 0h20v20H0z"/></clipPath></defs></svg>