<svg width="34" height="34" viewBox="0 0 34 34" fill="none" xmlns="http://www.w3.org/2000/svg"><g clip-path="url(#clip0_3002_479)"><path d="M15.74 4.26c-2.373.255-4.546 1.112-6.485 2.563-.633.474-1.934 1.775-2.408 2.408-1.296 1.73-2.093 3.58-2.452 5.683-.135.778-.185 2.572-.095 3.385.23 2.134.927 4.063 2.094 5.793l.259.384-.803 2.373a135.173 135.173 0 00-.787 2.383c.005.01 1.087-.33 2.402-.753 1.316-.424 2.438-.773 2.488-.773.05 0 .21.07.349.16 1.595.997 3.44 1.625 5.398 1.834.813.09 2.607.04 3.385-.095a12.826 12.826 0 005.683-2.452c.633-.474 1.934-1.775 2.407-2.408 1.316-1.76 2.119-3.65 2.483-5.838.13-.788.13-3.05 0-3.838-.364-2.189-1.167-4.078-2.483-5.838-.473-.633-1.774-1.934-2.407-2.408a12.89 12.89 0 00-5.683-2.453c-.483-.084-.857-.11-1.874-.12-.698-.01-1.361-.004-1.47.01zM13 10.179c.13.055.204.145.319.374.289.568 1.35 3.18 1.35 3.32 0 .234-.194.543-.677 1.097a9.214 9.214 0 00-.519.618c-.134.254-.005.593.494 1.301 1.091 1.55 2.338 2.637 3.908 3.39 1.246.603 1.4.564 2.203-.548.578-.803.807-.992 1.141-.918.34.075 3.246 1.491 3.37 1.646.18.214.02 1.39-.269 1.954-.414.817-1.695 1.57-2.861 1.68-1.212.12-4.098-.887-5.807-2.024-1.73-1.152-3.51-3.036-4.896-5.175-.697-1.077-1.121-2.323-1.121-3.295 0-1.047.324-1.934.997-2.727.309-.374.598-.578.962-.688.289-.095 1.186-.095 1.406-.005z" fill="#080808"/></g><defs><clipPath id="clip0_3002_479"><path fill="#fff" transform="translate(4.25 4.25)" d="M0 0h25.5v25.5H0z"/></clipPath></defs></svg>