<svg width="20" height="18" viewBox="0 0 20 18" fill="none" xmlns="http://www.w3.org/2000/svg"><path d="M19.004.383c-.129.031-2.274.855-4.766 1.832-2.492.976-6.578 2.582-9.082 3.562-2.504.98-4.62 1.825-4.71 1.875a1.567 1.567 0 00-.301.25C.02 8.043 0 8.086 0 8.258c0 .336.195.601.578.797.07.039 1.121.402 2.336.808l2.207.742 5.672-3.601c3.121-1.984 5.754-3.637 5.852-3.68.25-.105.386-.07.386.098 0 .105-.05.176-.328.437-.18.176-2.254 2.047-4.605 4.164-3.989 3.586-4.274 3.852-4.215 3.91.226.223 7.32 5.602 7.449 5.649.215.082.703.082.887 0 .199-.086.511-.387.59-.563C16.894 16.82 20 1.134 20 .9c0-.215-.082-.376-.234-.465-.153-.09-.489-.114-.762-.051z" fill="#fff" fill-opacity=".7"/></svg>