<svg width="100" height="100" viewBox="0 0 100 100" fill="none" xmlns="http://www.w3.org/2000/svg"><path fill-rule="evenodd" clip-rule="evenodd" d="M6.145 15c-2.792.89-5.164 3.174-5.987 5.988-.276.94 0 4.405 0 28.941 0 26.45-.355 27.805 0 28.941.883 2.834 3.134 5.157 5.987 5.988.95.277 5.818 0 43.912 0 41.638 0 42.687.377 43.91 0 .685-.21 1.495-.666 1.996-.998 1.809-1.195 3.716-4.265 3.992-5.988-.093 0 .065-.4 0 0 .096 0 .01-12.243 0-27.943-.008-15.29.061-28.098 0-27.943-.062.156-.847-.41-.998-.998-.338-1.32-.86-1.784-1.995-2.994-1.056-1.126-1.404-2.5-2.994-2.994-1.14-.354-2.866-.01-43.912 0-40.617.01-42.842-.34-43.91 0zm1.996 5.988c-.715.318-1.72 1.269-1.996 1.996-.12.315 0 1.928 0 3.991v3.992h87.822v-3.991c-.065-4.237.3-5.021-.997-5.988H50.057c-34.513-.035-41.433-.215-41.916 0zM.158 49.929c0 15.317-.029 21.63 0 13.972.028-7.659.028-20.285 0-27.944-.029-7.659 0-1.345 0 13.972zm5.987 6.986c.051 20.224-.398 20.425 0 20.957.221.295.703.778.998.998H92.97c.295-.22-.221-.703 0-.998.398-.532.947-.733.998-20.957V35.957H6.146v20.958zM23.111 43.94c-1.331.403-1.996 1.288-1.996 1.996 0 .662 6.6 23.365 6.986 23.952 1.064 1.619 5.574 1.585 6.986 0 .431-.485 6.986-23.038 6.986-23.952 0-.82-.635-1.601-1.996-1.996-1.307-.379-2.462.388-2.994.998-.267.306-1.272 3.605-2.994 9.98-1.627 6.025-1.903 9.198-1.996 8.982-.08-.185-1.76-4.446-2.994-8.982-1.235-4.537-1.836-8.423-1.996-8.982-.222-.775-.564-1.772-.998-1.996-.607-.313-2.18-.246-2.994 0zm25.948 0c-1.489.53-1.943-.477-1.996 12.974-.038 9.409-.192 12.595 0 12.974.358.708 1.703.997 2.993.998 1.264 0 2.427-.432 2.994-.998.392-.39 0 .162 0-11.976V44.939c-.826-.768-2.613-1.488-3.991-.998zm11.975 0c-.34.147-.882.783-.998.998-.227.424-.224 24.368 0 24.95.353.915 2.568 1.59 3.992.998 1.235-.515 1.996-.402 1.996-4.99v-4.99h1.996c4.231-.005 6.148.008 7.984-1.996 1.496-1.633 1.988-2.727 1.996-5.988.005-2.4.398-3.006 0-3.992-.728-1.801-2.357-3.197-3.992-3.992-.785-.381-1.295-.889-1.996-.998-1.973-.307-10.222-.328-10.978 0zm4.99 8.982v3.992h1.996c2.754 0 3.303-.678 3.992-1.996.388-.741.052-.543 0-1.996-.064-1.808.094-2.181-.998-2.994-.444-.33-.94-.93-2.994-.998h-1.996v3.992zm12.974 13.972c-1.047.219-1.571.978-1.996 1.996-.627 1.502.48 3.36 1.996 3.991.876.366 5.112.366 5.988 0 2.17-.904 2.995-3.758.998-4.99-.65-.4-.82-.95-2.994-.997-1.35-.03-3.584-.086-3.992 0z" fill="#915C46"/></svg>