<svg width="100" height="100" viewBox="0 0 100 100" fill="none" xmlns="http://www.w3.org/2000/svg"><path fill-rule="evenodd" clip-rule="evenodd" d="M36 10c-8.149.67-8.958.95-11 4-1.221 1.824-3.036 6.811-4 10-1.644 5.436-2.71 5-6 5-4.029 0-3.537.813-4 4-.271 1.872-.318 1.687 2 2l3 1-4 4-4 4v20c-.367 23.548-.012 24 8 24 5.155 0 8-2.245 8-6 0-1.941 1.825-2 26-2s26 .059 26 2c0 3.755 2.845 6 8 6 8.012 0 8.367-.452 8-24V44l-4-4-4-4 3-1c2.319-.313 2.272-.128 2-2-.462-3.18-.095-4-4-4-3.217 0-3.324.304-6-7-1.553-4.238-3.837-9.131-5-10-2.534-1.891-24.846-3.08-38-2zm-7 5c-1.974.983-3.593 5.472-6 13l-1 3h56l-2-5c-3.494-11.213-2.519-11.708-25-12-10.916-.142-20.847.426-22 1zM16 41l-4 5v9c.086 13.354 1.186 17.762 4 19 2.15.945 1.647.44 1-2-1.426-5.378-.96-8.295 0-9 .54-.397 2.819-.301 6 1 5.044 2.064 8.929 3 27 3 18.152 0 21.875-.903 27-3 4.595-1.88 5.35-2.178 6-1 .783 1.423.486 2.631-1 9-.566 2.426-.136 2.939 2 2 2.814-1.237 3.914-5.665 4-19v-9l-5-5-4-5H20l-4 5zm-2 7c-1.028 4.677 2.104 8.647 4 5 .34-.655 1.7-1 3-1 2.978 0 6-.674 6-2 0-.923-2.508-2.004-10-4-2.125-.567-2.546-.064-3 2zm65-1c-2.91.838-5.62 1.547-6 2-1.037 1.232 1.934 2.978 5 3 1.483.01 3.66.345 4 1 .993 1.91 2.931 1.376 4-1 .985-2.189.2-7.192-1-7-.349.056-3.09 1.161-6 2zm-41 4l-6 1 7 1c3.814.55 7.992 1.252 9 2 1.386 1.03 2.54 1.086 4 0 1.064-.791 5.243-1.495 9-2l7-1-7-1c-7.751-.919-14.83-.958-23 0zM20 69c.226.82 2.17 2.526 4 4 3.205 2.583 4.377 3 26 3 23.235 0 25.639-.183 29-5 2.075-2.974.721-4.021-5-2-7.341 2.593-40.892 3.564-48 1-6.015-2.17-6.523-2.894-6-1zm-8 11c0 2.83.349 3 4 3 3.34 0 4-.014 4-2 0-1.727-.245-3-2-3-1.332 0-3.128.398-4 0-1.195-.546-2-.343-2 2zm71-2c-2.414.356-3 1.29-3 3 0 1.898.704 2 4 2 3.607 0 4-.319 4-3 0-1.638-.587-3.105-1-3-.413.105-2.21.737-4 1z" fill="#915C46"/></svg>