<svg width="100" height="100" viewBox="0 0 100 100" fill="none" xmlns="http://www.w3.org/2000/svg"><path d="M46.022.387c-1.748.467-3.418 1.743-4.972 2.988-2.39 1.926-4.222 2.479-6.961 1.992-4.605-.817-8.534.619-11.934 3.985-1.477 1.46-2.167 2.938-2.983 4.98-1.166 2.977-2.136 3.853-4.973 4.981-2.778 1.11-4.412 1.942-5.966 3.985-2.507 3.288-3.644 6.871-2.984 10.957.466 2.86-.182 4.93-1.989 6.973C2.153 42.493.627 45.473.277 47.205c-.37 1.751-.37 4.226 0 5.977.35 1.731 1.876 4.712 2.983 5.977 1.807 2.043 2.455 4.112 1.99 6.973-.525 3.17-.405 5.128.994 7.968 1.632 3.328 4.07 5.514 7.955 6.974 2.274.836 3.865 2.14 4.973 4.98.777 2.004 1.584 3.6 2.983 4.98 3.342 3.367 7.173 4.725 11.934 3.985 2.972-.467 4.532.027 6.96 1.993C43.713 99.152 46.523 100 50 100c3.478 0 6.288-.848 8.95-2.988 2.448-1.966 3.892-2.46 6.961-1.993 1.788.292 2.58.175 3.978 0 3.245-.428 5.547-1.747 7.956-3.984 1.73-1.635 2.129-2.802 2.983-4.98 1.108-2.842 2.7-4.145 4.973-4.982 6.897-2.587 10.018-7.84 8.95-14.941-.467-3.036.026-4.62 1.989-6.973 1.204-1.46 2.595-4.168 2.983-5.977.369-1.751.369-4.226 0-5.977-.388-1.81-1.779-4.518-2.983-5.977-1.963-2.354-2.456-3.938-1.99-6.973.467-3.132.289-5.284-.994-7.969-1.593-3.366-4.05-5.494-7.955-6.973-2.273-.836-3.865-2.14-4.973-4.98-.816-2.043-1.507-3.522-2.983-4.981-3.4-3.366-7.329-4.802-11.934-3.985-2.74.487-4.571-.066-6.96-1.992C57.375 2.091 55.784.854 53.977.387c-2.001-.526-5.974-.506-7.956 0zm6.961 5.977c.603.233 1.115 1.31 1.99 1.992 3.633 2.763 6.722 3.61 10.938 2.988 1.807-.253 2.129-.175 2.984 0 2.972.603 6.009 2.199 6.961 4.98 1.321 3.834 4.128 6.647 7.956 7.97 2.797.973 4.409 3.977 4.972 6.973.155.895.272 1.198 0 2.988-.31 2.101-.291 2.331 0 3.985.37 2.237 1.507 4.148 2.983 5.977.603.739.704 2.365.995 2.988.466.973.994 1.179.994 2.988 0 1.81-.528 2.016-.994 2.989-.291.622-.392 2.249-.995 2.988-1.476 1.829-2.614 3.74-2.983 5.977-.291 1.654-.31 1.883 0 3.985.272 1.79.155 2.093 0 2.988-.563 2.996-2.175 6-4.972 6.973-3.828 1.323-6.635 4.136-7.956 7.969-.952 2.782-3.989 4.377-6.961 4.98-.855.176-1.177.254-2.984 0-4.216-.622-7.325.226-10.939 2.989-2.06 1.576-2.796 1.875-4.972 1.992-2.254.098-2.757-.28-4.972-1.992-3.633-2.763-6.723-3.611-10.94-2.989-1.806.254-2.128.176-2.983 0-2.972-.603-6.009-2.198-6.961-4.98-.68-1.985-1.487-3.483-2.983-4.98-1.496-1.499-2.836-2.191-4.973-2.99-2.914-1.07-4.409-3.956-4.972-6.972-.155-.876-.253-1.276 0-2.989.583-4.105-.438-6.79-2.983-9.96-.583-.72-.703-2.367-.995-2.99-.466-.972-.994-1.178-.994-2.988s.528-2.015.994-2.988c.292-.623.412-2.269.995-2.988 1.748-2.16 2.633-3.35 2.983-5.977.175-1.343.272-2.234 0-3.985-.253-1.692-.175-2.093 0-2.988.563-3.035 2.039-5.883 4.972-6.973 3.983-1.479 6.635-4.136 7.956-7.97.952-2.781 3.989-4.377 6.961-4.98.855-.175 1.177-.253 2.984 0 4.196.623 7.46-.284 10.939-2.988C47.068 6.78 47.979 6.383 50 6.364c1.166 0 2.187-.292 2.983 0z" fill="#915C46"/><path d="M44.75 31.876c-3.36.802-6.125 3.552-6.96 6.973-.24 1.036 0 3.566 0 11.954 0 6.022-.12 10.195 0 10.957.457 2.835 2.565 5.82 4.972 6.973 5.53 2.66 12.43-.385 13.922-5.977.259-.977 0-2.549 0-11.953 0-10.44.358-11.835 0-12.95-1.451-4.614-7.1-7.13-11.933-5.977zm3.979 6.973c1.074.548 1.77.878 1.989 1.992.218 1.115.218 18.809 0 19.923-.24 1.134-.876 2.421-1.99 2.988-.755.372-1.252.118-1.988 0-1.134-.156-2.665-.916-2.984-1.992-.338-1.056-.318-20.976 0-21.915.458-1.29 2.685-1.972 3.978-1.992.338 0 .517.762.995.996zM26.85 32.872c-1.33.404-1.988 2.005-1.988 3.985v.996h-.995c-.95.154-1.628 1.089-1.989 1.992-.399 1.02-.456 1.97 0 2.989.285.634 1.362.707 1.99.996.455.211.804 0 .994 0 .304 0 0 .677 0 9.961v9.962h-.995c-2.64.422-2.431 4.804 0 5.976.722.365.75 0 3.978 0 3.267 0 3.2.365 3.978 0 2.412-1.192 2.64-5.554 0-5.977h-.995V33.868c-.664-1.21-2.591-1.419-3.977-.996zm35.801-.996c-1.312.694-1.989 1.21-1.989 3.985 0 1.811-.27 2.468 0 2.988.483.964 1.807 1.915 2.984 1.992 1.331.097 2.366-.855 2.983-1.992.424-.79.058-.83 0-2.988-.058-2.004.347-2.545 0-2.989-1.003-1.368-2.57-1.747-3.978-.996zm12.929 0c-.32.135-.737.746-.995.996-.696.75-13.923 31.911-13.923 32.873 0 1.096.975 2.469 1.99 2.988 1.352.693 2.008.023 2.983-.996.636-.673 13.922-32.007 13.922-32.872 0-2.04-2.049-3.816-3.978-2.989zm0 27.892c-.368.194-1.739.59-1.99.996-.406.697-.038 1.719 0 3.985.058 2.653-.184 3.093.995 3.984.696.523 3.127.504 3.978 0 1.12-.678.994-1.39.994-3.984 0-2.537-.028-4.284-.994-4.981-.754-.562-2.114-.484-2.984 0z" fill="#915C46"/></svg>