<svg width="100" height="100" viewBox="0 0 100 100" fill="none" xmlns="http://www.w3.org/2000/svg"><path d="M34 5.186c-15.4 5.993-20 9.643-20 15.969 0 2.552-.5 3.547-3 4.99C3.6 30.25 0 36.23 0 44.11c0 4.439 1.9 8.524 11 27.945 5.8 12.54 11 23.508 12 24.95 1.5 1.998 2.8 2.995 6 2.995 4 0 5.5-.435 16-11.977l11-11.976 18-7.984c23-9.988 26-13.742 26-26.948 0-6.325-1-10.31-4-13.972-2.8-3.33-27.6-22.288-33-24.951-6.9-3.44-13.2-3.11-29 2.994zM75 18.16c8.7 6.548 17 13.196 18 14.971 4 6.659 1.2 18.406-5 21.957-1.5.888-9.2 4.211-18 7.984L54 70.06 42 83.033c-8.6 9.322-11.8 12.532-13 11.977-.9-.444-4.3-6.095-7-11.977-2.6-5.881-7.7-16.074-11-22.955-6.5-13.539-6.9-17.96-4-22.955 1.4-2.22 5.5-5.988 7-5.988.2 0 1 1.884 2 3.992 1.2 2.553 6.4 6.87 17 14.97 14.5 10.987 16.2 11.645 22 11.977 5.4.444 7 .115 19-4.99 17.3-7.324 18-7.87 18-12.974 0-5.216-2.8-7.985-7-7.985-3.2 0-22.6 6.985-25 8.983-1.7 1.553-.5 3.992 2 3.992 1.1 0 6.8-1.884 12-3.992 10.9-4.44 13.5-4.77 13-1.996-.4 2.663-25.6 13.972-31 13.972-3.3-.11-7-1.878-19-10.978C20.7 33.787 20.1 32.47 19 27.143c-1.2-5.882.7-9.757 6-11.977C56.2 2.293 53.5 2.291 75 18.16z" fill="#915C46"/></svg>