<svg width="20" height="20" viewBox="0 0 20 20" fill="none" xmlns="http://www.w3.org/2000/svg"><path d="M5.171.684a6.185 6.185 0 00-2.19.87c-1.005.657-1.857 1.871-2.2 3.125-.076.281-.114.57-.114.861v8.874c0 .325.045.65.134.964.264.94.732 1.746 1.404 2.418a5.435 5.435 0 002.419 1.403c.314.09.638.134.964.134h8.891c.281 0 .561-.038.832-.114a5.509 5.509 0 002.484-1.423 5.433 5.433 0 001.404-2.418 3.54 3.54 0 00.134-.965v-8.82c0-.325-.045-.65-.134-.963C18.67 2.754 17.292 1.365 15.4.808a3.2 3.2 0 00-.916-.135L10.125.67C7.47.664 5.24.669 5.17.684zM15.78 3.799c.12.064.289.214.368.328.2.284.214.721.03 1.015-.413.667-1.384.617-1.702-.09-.378-.825.508-1.671 1.304-1.253zm-4.614 1.95c1.289.373 2.23 1.165 2.797 2.339.339.696.433 1.12.433 1.916 0 .816-.094 1.234-.458 1.965a4.207 4.207 0 01-1.97 1.97c-.738.364-1.15.463-1.967.458-.797 0-1.225-.094-1.917-.433-1.17-.562-1.95-1.492-2.344-2.796-.12-.393-.135-.522-.135-1.14 0-.76.08-1.179.349-1.78.304-.703.93-1.469 1.523-1.872a5.195 5.195 0 011.892-.756c.473-.075 1.309-.015 1.797.13z" fill="#fff" fill-opacity=".7"/><path d="M9.412 6.77c-.413.074-.97.313-1.319.561-.572.408-.966.946-1.21 1.652-.124.354-.139.468-.139 1.02 0 .538.02.677.135 1.02.328.99 1.085 1.742 2.1 2.095.354.125.468.14 1.02.14.553 0 .668-.015 1.021-.14 1.03-.358 1.762-1.09 2.096-2.1.13-.393.144-.512.144-1.04-.005-.522-.025-.646-.144-.995-.354-1.02-1.066-1.736-2.061-2.08-.473-.159-1.165-.218-1.643-.134z" fill="#fff" fill-opacity=".7"/></svg>