<svg width="100" height="100" viewBox="0 0 100 100" fill="none" xmlns="http://www.w3.org/2000/svg"><path d="M34.313 2.329c-2.806.32-5.399 1.435-6.942 2.956-.471.493-1.414 1.157-2.057 1.522-4.435 2.378-6.406 7.52-6.428 16.691v2.357l-.621.428c-1.243.836-1.521 1.672-1.521 4.736s.235 3.857 1.478 5.27c.75.858 2.593 1.886 3.386 1.886.407 0 .492.107.492.622 0 1.071 1.007 4.628 1.8 6.342 1.736 3.728 5.057 7.264 8.55 9.02.556.28 1.006.6 1.006.708 0 .085-.514.171-1.135.171-1.307 0-2.614.6-3.407 1.521-.364.429-.943.75-1.8.986-3.6 1.028-6.556 2.657-9.128 5.035-2.25 2.079-3.62 3.921-4.906 6.557-1.757 3.578-2.036 5.1-2.657 14.527-.536 8.014-.536 8.185-.15 8.72l.407.536 37.582.065c25.755.043 37.818 0 38.354-.172 1.135-.321 2.271-1.65 2.442-2.85.258-1.714-.707-3.535-2.185-4.156-.407-.15-.75-.407-.793-.557-.043-.15-.193-.879-.343-1.65-.771-4.2-3.792-8.4-7.67-10.714-1.307-.77-3.643-1.67-5.207-2.014-.514-.107-.579-.235-.664-1.392-.064-.965-.236-1.457-.686-2.057-.686-.9-2.035-1.586-3.085-1.607-.6 0-.965-.279-2.657-2.036-2.936-3.064-6.471-5.228-10.178-6.192-.878-.236-1.435-.557-2.121-1.221-1.007-.986-2.464-1.5-3.664-1.307-1.136.17-.814-.215.857-1.072 5.1-2.635 9.085-8.506 9.75-14.334l.15-1.286 1.113-.386c3.129-1.05 4.5-3.556 4.307-7.842-.086-2.164-.536-3.235-1.65-3.878l-.6-.364-.128-3.557c-.086-2.55-.236-4.028-.557-5.207-1.972-7.52-7.671-13.006-15.128-14.548-1.607-.343-2.806-.386-7.392-.365-3 .022-5.806.065-6.214.108zm13.82 3.578c5.679 1.628 10.071 6.02 11.678 11.699.343 1.178.493 2.485.579 4.906l.128 3.3-1.692-.15c-3.9-.343-11.25-1.735-16.028-3.043-6.578-1.8-10.092-3.406-11.977-5.463-.921-.964-1.329-1.264-1.8-1.264-.835 0-2.55 1.35-3.557 2.785-.964 1.393-1.414 2.807-1.607 5.185l-.15 1.779-.793.064-.814.064v-2.1c0-8.292 1.543-12.427 5.228-14.205.793-.365 1.586-.943 1.993-1.436.857-1.093 2.55-1.971 4.414-2.336 2.357-.428 12.663-.278 14.399.215zM30.179 20.97c4.243 2.914 13.52 5.763 23.527 7.22 1.307.193 2.678.408 3.064.472l.685.107v4.371c0 5.014-.214 6.985-1.05 9.32-.857 2.443-1.82 3.943-3.878 6-2.935 2.957-6.3 4.435-10.499 4.65-1.821.085-2.614.021-4.114-.343-6.02-1.436-10.563-5.957-12.192-12.128-.364-1.414-.471-2.592-.557-6.878-.128-5.142-.128-5.185.322-5.313.964-.322 1.371-1.286 1.542-3.729.108-1.264.279-2.57.408-2.914.257-.621 1.05-1.842 1.22-1.842.044 0 .73.45 1.522 1.007zM22.1 31.962c0 1.65-.085 3-.193 3-.342 0-1.307-.9-1.65-1.522-.364-.728-.642-3.107-.428-3.921.129-.514.236-.557 1.2-.557H22.1v3zm40.668-1.5c.043.771 0 1.692-.064 2.078-.129.729-.964 1.864-1.629 2.228-.385.193-.407.086-.407-2.806V28.94l1.029.065 1.007.064.064 1.393zM41.278 56.28c1.306 0 2.87-.086 3.492-.172.985-.15 1.114-.128 1.114.215 0 .214-.343.578-.814.835-.707.407-.857.429-1.436.172-.9-.386-3.921-.386-4.67.021-.558.279-.687.279-1.458-.171-.493-.279-.836-.643-.836-.857 0-.365.108-.386 1.136-.215.6.086 2.186.172 3.471.172zm-6.365 3.17l1.757 1.03v2.72l-1.928 1.093c-2.185 1.243-2.785 1.329-3.407.536-.386-.493-.45-.878-.45-2.893 0-2.57.214-3.3 1.05-3.578.686-.236.771-.214 2.978 1.093zm16.392-.663c.3.364.364.857.364 2.957 0 2.228-.043 2.57-.45 3.085-.236.3-.643.557-.9.557-.236 0-1.35-.493-2.443-1.114l-2.014-1.114.129-2.743 2.035-1.157c2.122-1.221 2.572-1.285 3.279-.471zm-8.678 2.807c.086 1.542-.15 1.864-1.328 1.864-1.179 0-1.415-.279-1.415-1.607 0-1.393.258-1.65 1.607-1.564l1.072.064.064 1.243zm-14.913 1.478c.086 2.614.579 3.728 2.057 4.778.857.579 1.093.643 2.743.664l1.82.022 5.315 8.313.021 6.471v6.493H22.1V63.48l.643-.45c.836-.6 4.093-2.121 4.521-2.142.3 0 .364.342.45 2.185zm29.033-1.65c.707.279 1.886.857 2.614 1.286l1.307.771v8.335l-1.114.557c-1.521.75-3.964 2.636-4.907 3.771-1.992 2.4-3.106 4.693-3.75 7.607-.364 1.757-.385 1.778-1.306 2.228-1.114.536-1.993 1.886-1.993 3.043v.793h-4.714v-12.77l2.743-4.308 2.72-4.328 1.33.129c1.756.171 3-.3 4.028-1.5.942-1.093 1.178-1.928 1.178-4.285 0-1.415.064-1.864.279-1.864.171 0 .878.235 1.585.535zM39.135 66.35c1.135.407 3.064.407 4.263 0 .9-.3 1.029-.3 1.522.022.3.193.535.385.535.45 0 .128-3.664 5.913-3.942 6.213-.193.215-.707-.45-2.164-2.742-1.072-1.671-1.993-3.171-2.1-3.321-.107-.193.043-.386.428-.6.343-.172.6-.322.6-.322 0-.021.386.129.858.3zM18.886 78.136v11.678h-5.57v-.708c0-.364.192-3.492.428-6.92.471-6.836.771-8.528 2.036-11.164.9-1.928 2.656-4.564 3.042-4.564.043 0 .064 5.25.064 11.678zm45.703-9.492c-.171.493-.257 1.178-.192 1.5.085.45.042.6-.193.6-.257 0-.322-.386-.322-2.1l.022-2.078.492.578c.493.557.515.6.193 1.5zm4.178.643c.365.364.322.964-.085 1.114-.536.214-.707.15-.943-.279-.15-.321-.129-.492.129-.75.407-.407.557-.428.9-.085zm3.322 4.756c4.82.922 8.913 4.629 10.306 9.321.193.643.343 1.393.343 1.671v.493H53.812l.128-.6c.557-2.464 1.265-4.07 2.593-5.87 1.671-2.315 4.885-4.35 7.8-4.972 1.82-.407 5.763-.428 7.756-.043zm13.584 14.935c.129.128.193.386.129.535-.086.258-2.914.3-17.42.3-11.85 0-17.377-.064-17.463-.214-.086-.128-.086-.364-.021-.535.107-.279 2.485-.322 17.334-.322 12.427 0 17.27.064 17.441.236z" fill="#915C46"/><path d="M32.042 30.483c-.343.365-.407.793-.407 2.272 0 1.714.021 1.842.6 2.335.728.622 1.414.664 2.164.064.535-.407.557-.535.557-2.356 0-1.629-.064-1.972-.429-2.336-.6-.6-1.928-.578-2.485.021zm15.984-.021c-.364.364-.428.707-.428 2.25 0 1.671.043 1.885.535 2.357.515.514 1.222.664 1.929.407.6-.236.964-1.286.964-2.828 0-1.907-.472-2.614-1.736-2.614-.557 0-.985.15-1.264.428zM35.171 40.468c-1.242.45-1.392 1.735-.45 3.385 2.786 4.843 9.557 5.143 12.813.579 1.372-1.886 1.393-3.343.065-3.9-.857-.364-1.672.086-2.293 1.264-.664 1.264-1.071 1.693-2.078 2.207-2.207 1.114-4.928.043-6.021-2.4-.257-.557-.579-.9-1.029-1.05-.343-.128-.642-.235-.664-.214-.021 0-.171.065-.343.129zm5.057 27.298c-.75.6-.772 1.714-.022 2.443 1.05 1.05 2.679.343 2.679-1.179 0-.643-.129-.921-.557-1.264-.322-.257-.793-.45-1.05-.45-.258 0-.729.193-1.05.45z" fill="#915C46"/></svg>