<svg width="34" height="34" viewBox="0 0 34 34" fill="none" xmlns="http://www.w3.org/2000/svg"><path d="M28.48 4.302c-.164.046-2.899 1.261-6.076 2.7-3.178 1.44-8.387 3.808-11.58 5.253-3.192 1.446-5.892 2.69-6.006 2.764-.11.075-.284.242-.384.37-.16.206-.184.27-.184.523 0 .495.249.887.737 1.175.09.058 1.43.593 2.978 1.192l2.814 1.094 7.232-5.31c3.98-2.925 7.336-5.361 7.46-5.425.32-.155.494-.103.494.144 0 .156-.065.26-.418.645-.23.26-2.874 3.018-5.873 6.14-5.085 5.287-5.448 5.678-5.373 5.765.288.328 9.333 8.258 9.497 8.327.274.121.897.121 1.13 0 .255-.126.653-.57.753-.829.11-.294 4.069-23.422 4.069-23.768 0-.317-.105-.553-.299-.685-.194-.133-.622-.167-.971-.075z" fill="#080808"/></svg>