<svg width="20" height="20" viewBox="0 0 20 20" fill="none" xmlns="http://www.w3.org/2000/svg"><g clip-path="url(#clip0_3107_760)"><path d="M9.004.028c-1.86.199-3.563.87-5.082 2.007-.496.371-1.516 1.39-1.887 1.887A10.07 10.07 0 00.113 8.375c-.105.61-.144 2.016-.074 2.652a9.877 9.877 0 001.64 4.54l.204.3-.63 1.86a106.14 106.14 0 00-.616 1.867c.003.008.851-.258 1.882-.59 1.032-.332 1.91-.605 1.95-.605.039 0 .164.054.273.125a9.969 9.969 0 004.23 1.437c.637.07 2.043.031 2.653-.074a10.051 10.051 0 004.453-1.922c.496-.371 1.516-1.39 1.887-1.887a10.222 10.222 0 001.945-4.574c.102-.617.102-2.39 0-3.008a10.222 10.222 0 00-1.945-4.574c-.371-.496-1.39-1.516-1.887-1.887A10.101 10.101 0 0011.625.113c-.38-.066-.672-.085-1.469-.093a17.786 17.786 0 00-1.152.008zM6.855 4.664c.102.043.16.114.25.293.227.446 1.059 2.492 1.059 2.602 0 .183-.152.426-.531.86a6.91 6.91 0 00-.407.484c-.105.199-.004.464.387 1.019.856 1.215 1.832 2.066 3.063 2.656.976.473 1.097.442 1.726-.43.453-.628.633-.777.895-.718.265.058 2.543 1.168 2.64 1.289.141.168.016 1.09-.21 1.531-.325.64-1.329 1.23-2.243 1.317-.949.093-3.21-.696-4.55-1.586-1.356-.903-2.75-2.38-3.837-4.055-.546-.844-.878-1.82-.878-2.582 0-.82.253-1.516.78-2.137.243-.293.47-.453.755-.539.226-.074.93-.074 1.101-.004z" fill="#fff" fill-opacity=".7"/></g><defs><clipPath id="clip0_3107_760"><path fill="#fff" d="M0 0h20v20H0z"/></clipPath></defs></svg>