<svg width="102" height="59" viewBox="0 0 102 59" fill="none" xmlns="http://www.w3.org/2000/svg">
<path fill-rule="evenodd" clip-rule="evenodd" d="M100.057 6.86646e-05H102L71.7133 58.3774H69.7705L100.057 6.86646e-05ZM96.1841 6.86646e-05H98.1227L67.836 58.3774H65.8932L96.1841 6.86646e-05ZM94.2496 6.86646e-05H92.3068L62.0201 58.3774H63.9587L94.2496 6.86646e-05ZM88.4295 6.86646e-05H90.3723L60.0856 58.3774H58.1428L88.4295 6.86646e-05ZM86.495 6.86646e-05H84.5522L54.2655 58.3774H56.2083L86.495 6.86646e-05ZM80.679 6.86646e-05H82.6177L52.331 58.3774H50.3882L80.679 6.86646e-05ZM78.7445 6.86646e-05H76.8017L46.5151 58.3774H48.4537L78.7445 6.86646e-05ZM72.9245 6.86646e-05H74.8672L44.5806 58.3774H42.6378L72.9245 6.86646e-05ZM70.9899 6.86646e-05H69.0472L38.7605 58.3774H40.7033L70.9899 6.86646e-05ZM65.174 6.86646e-05H67.1126L36.826 58.3774H34.8873L65.174 6.86646e-05ZM63.2395 6.86646e-05H61.2967L31.01 58.3774H32.9487L63.2395 6.86646e-05ZM57.4194 6.86646e-05H59.3622L29.0755 58.3774H27.1327L57.4194 6.86646e-05ZM55.4849 6.86646e-05H53.5463L23.2555 58.3774H25.1982L55.4849 6.86646e-05ZM49.669 6.86646e-05H51.6118L21.3209 58.3774H19.3823L49.669 6.86646e-05ZM47.7345 6.86646e-05H45.7917L15.505 58.3774H17.4478L47.7345 6.86646e-05ZM41.9144 6.86646e-05H43.8572L13.5705 58.3774H11.6277L41.9144 6.86646e-05ZM39.9799 6.86646e-05H38.0412L7.75043 58.3774H9.6932L39.9799 6.86646e-05ZM34.1639 6.86646e-05H36.1067L5.81591 58.3774H3.87727L34.1639 6.86646e-05ZM32.2294 6.86646e-05H30.2867L-1.52588e-05 58.3774H1.94276L32.2294 6.86646e-05Z" fill="url(#paint0_linear_5029_557)"/>
<defs>
<linearGradient id="paint0_linear_5029_557" x1="63.5094" y1="6.72969e-05" x2="54.5283" y2="47.151" gradientUnits="userSpaceOnUse">
<stop stop-color="#336ABB"/>
<stop offset="1" stop-color="#336ABB" stop-opacity="0"/>
</linearGradient>
</defs>
</svg>
