<svg width="94" height="25" viewBox="0 0 94 25" fill="none" xmlns="http://www.w3.org/2000/svg">
<g clip-path="url(#clip0_5029_582)">
<path d="M32.0924 13.485L21.0227 25.003H0L23.9975 0C27.746 3.90034 30.4541 8.52952 32.0924 13.485Z" fill="#CAA57B"/>
<path d="M54.944 25H33.9359C33.9359 21.0997 33.3409 17.1963 32.0924 13.4819L45.0056 0C51.6409 6.90412 54.944 15.9612 54.944 25Z" fill="#CAA57B"/>
<path d="M0 5.69651L0.222742 5.58368C2.46481 4.44621 4.27313 2.56465 5.36339 0.231764L5.47183 0L5.48941 0.0365943C6.59726 2.52501 8.51988 4.52549 10.9114 5.67821L10.9466 5.69651C8.52574 6.85228 6.58554 8.87411 5.47476 11.393L5.36632 11.1613C4.27606 8.83142 2.46481 6.94682 0.225673 5.81239L0.00293081 5.69956L0 5.69651Z" fill="#6595BD"/>
<path d="M61.9721 4.41162L60.6327 8.97066H61.4299L61.7611 7.7722H63.2734L63.6397 8.97066H64.4515L63.0447 4.41162H61.975H61.9721ZM61.9369 7.11655L62.5055 4.98798L63.0858 7.11655H61.9369Z" fill="white"/>
<path d="M65.9902 4.41162H65.2018V8.97066H67.7662V8.30281H65.9902V4.41162Z" fill="white"/>
<path d="M71.6731 4.42077L70.5711 7.62582L69.5014 4.41162H68.4814V8.97066H69.1966V5.55214L70.1374 8.31806H70.9638L70.958 8.31196L71.8783 5.65583V8.97066H72.6344V4.41162H71.6672L71.6731 4.42077Z" fill="white"/>
<path d="M74.724 4.41162L73.3876 8.97066H74.1818L74.513 7.7722H76.0282L76.3917 8.97066H77.2064L75.7967 4.41162H74.727H74.724ZM74.6918 7.11655L75.2574 4.98798L75.8407 7.11655H74.6918Z" fill="white"/>
<path d="M77.1625 5.04592H78.3963V8.97066H79.1877V5.04592H80.4098V4.41162H77.1625V5.04592Z" fill="white"/>
<path d="M83.326 4.41162L82.3501 6.47615L81.3565 4.41162H80.53L81.931 7.11655V8.97066H82.7252V7.11655L84.1203 4.41162H83.326Z" fill="white"/>
<path d="M60.6268 11.7733H61.8607V15.7011H62.6491V11.7733H63.8742V11.1421H60.6268V11.7733Z" fill="white"/>
<path d="M67.104 11.2944C66.8431 11.1419 66.5295 11.0626 66.1544 11.0596H66.087C65.7089 11.0596 65.3894 11.1389 65.1227 11.2944C64.856 11.4469 64.6538 11.6695 64.519 11.95C64.3842 12.2275 64.3138 12.5508 64.3138 12.9137V13.9353C64.3138 14.2951 64.3842 14.6153 64.519 14.8928C64.6538 15.1673 64.856 15.3868 65.1227 15.5454C65.1433 15.5576 65.1638 15.5698 65.1843 15.579C65.4422 15.7192 65.7499 15.7863 66.1134 15.7863H66.1544C66.5295 15.7802 66.8402 15.704 67.104 15.5485C67.3736 15.3899 67.5758 15.1703 67.7107 14.8959C67.8455 14.6184 67.9158 14.2982 67.9158 13.9383V12.9167C67.9158 12.5538 67.8455 12.2306 67.7107 11.9531C67.5758 11.6725 67.3736 11.4499 67.104 11.2974V11.2944ZM67.1186 13.9475C67.1186 14.3226 67.0366 14.6184 66.8695 14.8288C66.7054 15.0361 66.468 15.1429 66.1573 15.149C66.1456 15.149 66.1309 15.149 66.1192 15.149H66.0928C65.7675 15.1429 65.5243 15.0362 65.3631 14.8257C65.1931 14.6123 65.111 14.3165 65.111 13.9444V12.9045C65.111 12.5264 65.1931 12.2275 65.3631 12.0141C65.5243 11.8006 65.7675 11.6939 66.0928 11.6878H66.1192C66.1192 11.6878 66.1456 11.6878 66.1573 11.6878C66.468 11.6939 66.7054 11.8006 66.8695 12.011C67.0366 12.2275 67.1186 12.5264 67.1186 12.9015V13.9414V13.9475Z" fill="white"/>
<path d="M71.4357 14.2282C71.4357 14.5179 71.3624 14.7466 71.2159 14.9113C71.0693 15.0729 70.8407 15.1522 70.5359 15.1522C70.2311 15.1522 69.9996 15.0729 69.8589 14.9113C69.7124 14.7466 69.642 14.521 69.642 14.2282V11.1421H68.8448V14.2282C68.8448 14.5271 68.9093 14.7924 69.0324 15.0272C69.1584 15.262 69.346 15.445 69.601 15.5791C69.856 15.7133 70.1666 15.7835 70.5359 15.7835C71.084 15.7835 71.506 15.6432 71.7933 15.3535C72.0805 15.0668 72.2241 14.6917 72.2241 14.2282V11.1421H71.4357V14.2282Z" fill="white"/>
<path d="M76.2041 13.3316C76.3418 13.1487 76.4151 12.9352 76.4151 12.6851V12.3497C76.4151 11.9746 76.2744 11.6788 75.996 11.4653C75.7176 11.2488 75.3453 11.1421 74.8823 11.1421H73.4081V15.7011H74.1965V13.9019H74.8588L75.7674 15.7011H76.629L75.6208 13.7525C75.8729 13.6518 76.0663 13.5116 76.207 13.3316H76.2041ZM75.4157 13.1212C75.2809 13.228 75.0933 13.2829 74.8588 13.2829H74.1965V11.7611H74.853C75.0874 11.7611 75.2779 11.816 75.4128 11.9258C75.5534 12.0326 75.6208 12.1881 75.6208 12.3863V12.6669C75.6208 12.862 75.5534 13.0145 75.4157 13.1212Z" fill="white"/>
<path d="M77.3032 11.7733H77.863V15.0668H77.3032V15.7011H79.217V15.0668H78.6514V11.7733H79.217V11.1421H77.3032V11.7733Z" fill="white"/>
<path d="M82.0745 13.0998L81.4912 12.9047C81.245 12.8254 81.0692 12.74 80.9578 12.6485C80.8494 12.5509 80.7937 12.4442 80.7937 12.3283V12.2185C80.7937 12.0721 80.864 11.9502 80.9989 11.8434C81.1366 11.7367 81.3388 11.6818 81.5997 11.6818C81.8224 11.6818 82.0129 11.7123 82.1771 11.7702C82.3383 11.8343 82.52 11.9441 82.7193 12.0965L83.1032 11.6482C82.901 11.4531 82.6753 11.3037 82.4232 11.2091C82.1771 11.1085 81.8898 11.0566 81.5704 11.0566C81.2509 11.0566 80.9696 11.1115 80.7322 11.2183C80.4977 11.3219 80.316 11.4653 80.1929 11.6421C80.0698 11.819 80.0082 12.0142 80.0082 12.2216V12.3679C80.0082 12.9077 80.3512 13.2919 81.037 13.5237L81.6847 13.7463C81.9426 13.8317 82.1184 13.9232 82.2093 14.0177C82.3031 14.1153 82.3529 14.2434 82.3529 14.4081V14.4904C82.3529 14.6612 82.2738 14.8076 82.1126 14.9356C81.9543 15.0607 81.7286 15.1278 81.4268 15.1278C81.2392 15.1278 81.078 15.1095 80.9461 15.0759C80.8142 15.0424 80.697 14.9966 80.6032 14.9417C80.5065 14.8868 80.3775 14.8076 80.2193 14.7008L79.8265 15.1887C80.2369 15.5791 80.782 15.7804 81.4678 15.7804C81.7931 15.7804 82.0803 15.7255 82.3324 15.6218C82.5815 15.515 82.7808 15.3626 82.9215 15.1674C83.0651 14.9722 83.1354 14.7527 83.1354 14.4996V14.3196C83.1354 13.9964 83.0446 13.7402 82.8599 13.5481C82.6724 13.356 82.4144 13.2066 82.0803 13.0968L82.0745 13.0998Z" fill="white"/>
<path d="M87.3207 11.1421L87.3265 11.1482L86.2275 14.3563L85.1577 11.1421H84.1407V15.7011H84.85V12.2796L85.7908 15.0485H86.6202L86.6173 15.0394L87.5346 12.3863V15.7011H88.2937V11.1421H87.3207Z" fill="white"/>
<path d="M63.4551 20.2206C63.6368 20.1718 63.7892 20.0864 63.9152 19.9614C64.0383 19.8363 64.1028 19.6625 64.1028 19.446V19.1593C64.1028 18.8056 63.9621 18.5281 63.6837 18.3268C63.4053 18.1255 63.0272 18.0249 62.5524 18.0249H61.2013V22.5839H62.5465C62.8894 22.5839 63.1884 22.5321 63.4404 22.4345C63.6925 22.3339 63.8918 22.1967 64.0325 22.0198C64.1702 21.8399 64.2435 21.6355 64.2435 21.4068V21.1476C64.2435 20.8732 64.1643 20.6566 64.0061 20.5072C63.8478 20.3608 63.6661 20.2663 63.4609 20.2236L63.4551 20.2206ZM61.9838 18.6257H62.5553C62.7898 18.6257 62.9744 18.6745 63.1063 18.7659C63.2382 18.8635 63.3027 19.0068 63.3027 19.2051V19.4429C63.3027 19.6259 63.247 19.7631 63.1356 19.8577C63.0243 19.9461 62.8689 19.9949 62.6696 19.9949H61.9838V18.6226V18.6257ZM63.4522 21.3641C63.4522 21.5684 63.373 21.7209 63.2177 21.8246C63.0594 21.9283 62.8396 21.9832 62.5583 21.9832H61.9867V20.5774H62.7136C62.951 20.5774 63.1327 20.6261 63.2558 20.7207C63.3847 20.8183 63.4522 20.9555 63.4522 21.1263V21.3611V21.3641Z" fill="white"/>
<path d="M67.7252 21.1108C67.7252 21.4005 67.6549 21.6292 67.5054 21.7939C67.3589 21.9555 67.1332 22.0317 66.8255 22.0317C66.5177 22.0317 66.3009 21.9555 66.1543 21.8C66.1543 21.8 66.1543 21.7939 66.1485 21.7908C66.0078 21.6261 65.9316 21.4005 65.9316 21.1077V18.0216H65.1344V21.1077C65.1344 21.4096 65.2018 21.6719 65.3249 21.9097C65.448 22.1446 65.6414 22.3245 65.8935 22.4587C65.9726 22.5014 66.0605 22.5379 66.1514 22.5654C66.3478 22.6294 66.5734 22.6599 66.8225 22.6599C67.3735 22.6599 67.7926 22.5197 68.0828 22.2299C68.37 21.9433 68.5136 21.5713 68.5136 21.1047V18.0186H67.7223V21.1047L67.7252 21.1108Z" fill="white"/>
<path d="M72.4967 20.214C72.6344 20.031 72.7077 19.8175 72.7077 19.5675V19.229C72.7077 18.8569 72.5641 18.5611 72.2886 18.3477C72.0072 18.1311 71.635 18.0244 71.172 18.0244H69.6978V22.5835H70.4861V20.7812H71.1485L72.0571 22.5835H72.9187L71.9134 20.6348C72.1626 20.5342 72.356 20.3939 72.4996 20.214H72.4967ZM71.7083 20.0036C71.5705 20.1133 71.383 20.1682 71.1456 20.1682H70.4832V18.6435H71.1397C71.3771 18.6435 71.5647 18.7014 71.7054 18.8081C71.8402 18.9149 71.9105 19.0704 71.9105 19.2686V19.5492C71.9105 19.7443 71.8431 19.8968 71.7083 20.0036Z" fill="white"/>
<path d="M73.8156 22.5804H76.3742V21.9431H74.6039V20.583H76.2393V19.9517H74.6039V18.6557H76.3742V18.0244H73.8156V22.5804Z" fill="white"/>
<path d="M78.1707 18.0244L76.8342 22.5835H77.6285L77.9597 21.388H79.4749L79.8354 22.5835H80.6531L79.2434 18.0244H78.1736H78.1707ZM78.1355 20.7232L78.7041 18.5977L79.2844 20.7232H78.1355Z" fill="white"/>
<path d="M83.7949 18.0244V21.1105C83.7949 21.4002 83.7217 21.629 83.5722 21.7936C83.4286 21.9553 83.2 22.0315 82.8922 22.0315C82.5845 22.0315 82.3618 21.9522 82.2152 21.7936C82.0745 21.629 81.9983 21.4033 81.9983 21.1105V18.0244H81.2041V21.1105C81.2041 21.4124 81.2686 21.6747 81.3946 21.9126C81.5177 22.1474 81.7082 22.3273 81.9632 22.4615C82.2123 22.5957 82.5259 22.6658 82.8922 22.6658C83.4432 22.6658 83.8623 22.5255 84.1525 22.2358C84.4397 21.9492 84.5833 21.5771 84.5833 21.1105V18.0244H83.7949Z" fill="white"/>
</g>
<defs>
<clipPath id="clip0_5029_582">
<rect width="94" height="25" fill="white"/>
</clipPath>
</defs>
</svg>
