<svg width="238" height="136" viewBox="0 0 238 136" fill="none" xmlns="http://www.w3.org/2000/svg">
<path fill-rule="evenodd" clip-rule="evenodd" d="M233.1 0H237.626L167.068 136H162.542L233.1 0ZM224.077 0H228.594L158.036 136H153.51L224.077 0ZM219.57 0H215.044L144.486 136H149.003L219.57 0ZM206.012 0H210.538L139.98 136H135.454L206.012 0ZM201.505 0H196.979L126.421 136H130.947L201.505 0ZM187.956 0H192.472L121.914 136H117.388L187.956 0ZM183.449 0H178.923L108.365 136H112.881L183.449 0ZM169.89 0H174.416L103.858 136H99.332L169.89 0ZM165.383 0H160.857L90.2991 136H94.8252L165.383 0ZM151.834 0H156.35L85.7924 136H81.276L151.834 0ZM147.327 0H142.801L72.2431 136H76.7596L147.327 0ZM133.768 0H138.294L67.7364 136H63.2104L133.768 0ZM129.262 0H124.745L54.1776 136H58.7036L129.262 0ZM115.712 0H120.238L49.6708 136H45.1544L115.712 0ZM111.206 0H106.68L36.1216 136H40.6476L111.206 0ZM97.6467 0H102.173L31.6148 136H27.0888L97.6467 0ZM93.14 0H88.6236L18.056 136H22.582L93.14 0ZM79.5907 0H84.1168L13.5492 136H9.03278L79.5907 0ZM75.084 0H70.5579L-1.52588e-05 136H4.52602L75.084 0Z" fill="url(#paint0_linear_28_959)"/>
<defs>
<linearGradient id="paint0_linear_28_959" x1="147.956" y1="-3.18621e-06" x2="127.033" y2="109.846" gradientUnits="userSpaceOnUse">
<stop stop-color="#336ABB"/>
<stop offset="1" stop-color="#336ABB" stop-opacity="0"/>
</linearGradient>
</defs>
</svg>
