<svg width="694" height="622" viewBox="0 0 694 622" fill="none" xmlns="http://www.w3.org/2000/svg">
<path d="M329.184 505.24L329.433 509.281L329.184 507.522V505.24Z" fill="#E6E6E6"/>
<path d="M306.396 461.816L312.669 457.751L314.404 461.575H316.067L311.521 466.837V484.4L314.991 487.003V490.168L319.24 498.403H325.168V507.659L326.365 516.086L315.481 518.336L305.087 514.761L292.412 517.356L284.291 524.827L269.993 523.205L268.941 523.614L261.206 504.831L260.362 490.12L261.19 477.282L271.576 459.349L258.7 453.147L251.575 431.029H251.72L264.363 441.707L269.19 445.21L276.789 459.832L283.263 458.779L288.195 448.455L294.597 442.831L295.657 443.731L298.324 458.642L306.396 461.816Z" fill="#E6E6E6"/>
<path d="M321.658 446.109L332.71 407.184L339.683 405.127L345.859 407.297L349.289 410.992L344.992 417.114V426.313L340.028 429.037L336.14 435.52L329.072 439.296V455.686L335.49 461.575H339.466V466.154L351.506 470.67H358.711C358.189 476.237 359.121 476.936 359.764 477.418C360.631 478.077 363.892 480.471 363.892 480.471L365.089 481.339L367.459 479.587V493.856H405.026L415.934 487.814L421.581 496.885H443.654V497.857H431.276L426.384 502.019L421.918 506.47L413.155 503.802L402.07 499.817L379.098 499.142L363.611 504.083L354.35 509.466L344.839 511.941L340.823 508.301L335.763 503.995L329.184 505.24V495.624L321.272 486.826V493.583L319.007 489.196V484.994L315.537 482.391V480.23L319.007 484.127V474.55L315.537 471.079V468.332L324.855 457.558H316.991L315.818 454.979L321.658 446.109Z" fill="#E6E6E6"/>
<path d="M208.312 272.01L213.381 274.782V293.244L227.751 324.168V342.614L228.169 343.152C230.908 346.695 235.631 352.681 237.165 353.894C237.872 354.753 239.767 359.229 241.181 363.077V374.839L228.867 380.214H222.466L220.216 392.024L228.249 399.6L243.96 404.501L248.193 398.732L266.09 416.632L258.218 427.012H246.065L255.406 456.015L265.921 461.085L257.246 476.084L256.338 490.104L257.23 505.73L265.198 525.084L262.523 526.129L257.326 531.656H246.924L243.029 524.506H233.928L232.627 518.336L218.337 524.506L206.312 516.705L193.637 513.459L184.545 516.705L168.946 512.158L179.348 502.734L163.749 495.905L148.479 492.337L148.158 485.187L143.933 478.358L148.8 471.208H143.282L137.916 457.558L156.6 442.614L154.656 438.059H144.254L141.981 431.889H125.739L116.309 423.437L116.96 417.918L137.916 394.514H145.877L143.603 382.166L149.451 372.42L149.78 349.347L134.181 336.998L129.956 327.574H119.562L115.337 321.725H100.718L76.6773 304.5L76.348 298.973L71.151 295.076L75.0468 277.2L68.2915 268.813H137.153L153.708 255.757L169.853 261.775L173.91 268.7L208.312 272.01Z" fill="#E6E6E6"/>
<path d="M286.982 334.13H287.174L296.725 347.073L308.798 341.112L315.69 359.622V374.421L321.866 387.983L313.481 404.935L324.075 414.053L327.361 411.298L317.963 444.422L312.083 453.34L305.938 457.317L301.882 455.726L299.352 441.602L294.556 437.521L284.933 445.981L280.548 455.148L279.014 455.397L272.315 442.51L266.901 438.589L257.945 431.029H260.218L271.407 416.271L247.719 392.578L242.418 399.809L230.329 396.041L224.57 390.618L225.791 384.231H229.711L245.197 377.474V362.37L245.077 362.041C241.382 351.885 239.992 350.953 239.574 350.68C238.795 350.062 235.004 345.41 231.767 341.24V323.284L217.397 292.353V276.983L222.425 279.739L252.442 267.792L271.19 282.551L280.917 294.168L285.431 305.456L289.753 311.635V316.841L285.174 320.159L283.102 326.795L286.982 334.13Z" fill="#E6E6E6"/>
<path d="M395.411 387.693L395.925 389.099L386.479 390.995L366.35 385.693L344.992 381.274V387.147H333.2L324.774 391.357L328.775 404.87L324.108 408.783L318.461 403.922L326.317 388.055L319.706 373.553V358.891L311.007 335.536L297.962 341.979L292.163 334.13H295.962L304.886 327.976L316.549 334.283L338.357 327.944L354.792 332.122L347 341.224L351.217 346.093L347 350.648L352.197 353.573L369.467 361.044L373.965 373.393L388.263 368.516L397.355 374.694L393.781 378.591L395.411 387.693Z" fill="#E6E6E6"/>
<path d="M525.102 454.778L518.243 460.587H507.246L497.937 464.057H481.511L480.94 464.556C479.021 466.243 476.643 468.219 475.743 468.822H468.49C467.341 468.484 464.241 467.777 462.257 469.199C461.068 470.043 456.385 471.698 455.124 471.875C453.445 472.116 449.269 474.221 447.55 475.112L446.465 475.675V480.953H442.827L439.244 483.637L430.36 476.02L417.372 482.512L415.733 483.331L403.99 489.839H371.475V471.61L365.081 476.35C364.286 475.771 363.274 475.024 362.623 474.542C362.527 473.57 362.663 471.152 362.96 468.926L363.258 466.652H352.237L343.482 463.375V457.558H337.056L333.088 453.918V441.707L339.008 438.541L342.919 432.034L349.008 428.691V418.392L354.446 410.647L348.133 403.834L339.795 400.909L334.004 402.605L332.429 403.071L332.132 402.066L329.578 393.446L334.148 391.164H349.008V386.207L365.378 389.597L386.359 395.117L397.323 392.916L398.978 397.439L404.833 393.864H420.754L454.216 391.919L473.382 396.145L510.427 399.712L511.761 399.399L515.134 409.209V430.258L511.014 435.344L519.914 450.255L525.102 454.778Z" fill="#336ABB"/>
<path d="M560.606 512.656L557.875 523.655L559.16 531.914L562.453 533.922L558.148 535.722C556.316 536.308 553.361 537.618 553.361 539.996C553.361 541.257 553.152 550.906 553.144 551.003V551.453L557.835 561.977L561.931 573.579L567.907 577.563L563.578 583.621L557.537 578.126L545.842 566.428L533.496 541.731H505.873L479.88 534.902L462.988 527.76L445.766 531.657H401.58L381.435 527.109L364.213 521.903L350.896 527.431L336.277 522.883L330.839 519.075H330.831L329.433 509.282L334.622 508.293L338.172 511.314L343.739 516.376L355.892 513.218L365.25 507.779L379.66 503.184L401.307 503.81L411.838 507.603L423.051 511.017L429.043 505.024L432.754 501.874H447.67V492.868H423.814L419.509 485.943L429.766 480.809L439.075 488.787L444.16 484.97H450.481V478.125C452.682 477.025 455.052 475.956 455.695 475.852C457.51 475.595 462.787 473.747 464.586 472.469C464.964 472.236 466.434 472.373 467.55 472.734L467.864 472.839H476.201C476.932 472.839 477.567 472.839 483.021 468.075H498.66L507.969 464.604H519.713L527.432 458.072L531.36 466.974L534.484 480.367L548.878 494.266L555.104 488.224H572.775L567.329 501.979L569.401 509.306L560.606 512.656Z" fill="#E6E6E6"/>
<path d="M442.5 435.876C442.5 442.983 434 448 434 448C434 448 425.5 442.983 425.5 435.876C425.5 431.528 429.305 428 434 428C438.695 428 442.5 431.528 442.5 435.876Z" stroke="white" stroke-width="2" stroke-linecap="round" stroke-linejoin="round"/>
<path d="M434 437.375C435.444 437.375 436.615 436.256 436.615 434.875C436.615 433.494 435.444 432.375 434 432.375C432.555 432.375 431.385 433.494 431.385 434.875C431.385 436.256 432.555 437.375 434 437.375Z" stroke="white" stroke-width="2" stroke-linecap="round" stroke-linejoin="round"/>
</svg>
