<svg width="104" height="72" viewBox="0 0 104 72" fill="none" xmlns="http://www.w3.org/2000/svg"><g clip-path="url(#clip0_129_592)"><path d="M37.985 14.902a7.037 7.037 0 007.03-7.03c0-.58-.07-1.16-.22-1.74-.96-3.76-4.79-6.03-8.55-5.08-3.76.95-6.04 4.79-5.08 8.55.81 3.18 3.68 5.3 6.82 5.3z" fill="#F2F1E3"/><path d="M77.795 66.612l-19.83-36.31c.83-1.25.83-2.88-.03-4.14a3.744 3.744 0 00-3.11-1.62l-3.69-6.76a.763.763 0 00-1.02-.3c-.36.2-.49.66-.3 1.02l3.49 6.39c-.19.08-.37.18-.54.3l-5.87 4.02-2.91-4.26a24.98 24.98 0 01-2.21-3.93 5.367 5.367 0 00-2.29-2.51c-.01-.01-.1-.05-.11-.06-.1-.05-.21-.1-.24-.11a4.07 4.07 0 00-.92-.35l-5.55-1.49a5.411 5.411 0 00-3.96.45c.27-1.93-.93-3.84-2.87-4.38l-6.73-1.89c-4.16-1.17-8.51 1.27-9.69 5.44l-4.79 17.1c-.41 1.44-.23 2.96.51 4.27.73 1.3 1.93 2.25 3.38 2.65l11.33 3.19-3.56 13.32-6.03 6.67c-.81.9-1.23 2.05-1.17 3.26a4.48 4.48 0 001.49 3.13c.84.76 1.9 1.17 3.03 1.17h.24c1.21-.07 2.31-.59 3.11-1.49l7.38-8.15c.08-.09.14-.19.17-.31l3.53-13.19 5.32 3.93c-.16.14-.28.34-.28.57v14.72c0 .41.34.75.75.75s.75-.34.75-.75v-14.4l3.29 2.43 4.13 12.36c.43 1.3 1.42 2.33 2.7 2.81 1.28.48 2.7.35 3.89-.34 1.83-1.06 2.65-3.35 1.96-5.44l-4.9-14.68a.723.723 0 00-.39-.43l-8.14-6.27 2.87-10.7 4.35 6.34c.11.16.27.27.45.31.11.1.24.17.38.19.2.04.4 0 .56-.12l11.12-7.62 19.63 35.91c.13.25.39.4.66.4.12 0 .24-.03.35-.1.37-.2.5-.65.3-1.01l.01.01z" fill="#F2F1E3"/><path d="M103.235 65.022a.49.49 0 01-.44.26h-57.18c-.63-2-1.33-3.64-1.99-4.94l4.93-8.53 1.79-3.11c.1-.15.27-.25.45-.25h3.38l1-1.88 1.12-2.11 3.6-6.77 4.65-8.77c.03-.06.06-.11.11-.16 0-.01.02-.02.03-.03.02-.03.05-.05.08-.06a.83.83 0 01.21-.06h.07s.07 0 .1.02c.03 0 .05.01.06.02.06.02.11.05.16.1.03.02.05.05.07.07.02.02.03.05.04.08l6.8 13.73.27.56h3.19c.19 0 .35.1.45.25l1.11 1.87 2.98-4.31 2.25-3.26s.02-.03.04-.04c.03-.05.08-.09.13-.12.05-.02.09-.03.13-.05.02 0 .05-.01.08-.01h.03s.04 0 .05.01h.08s.06.02.08.04c.05.01.09.04.12.07.03.02.07.06.09.1.01 0 .03.03.03.04l10.99 19.57.53-4.75a.51.51 0 01.4-.44c.21-.05.43.05.55.23l7.37 12.12c.1.16.1.36 0 .52l.01-.01z" fill="#F2F1E3"/><path d="M71.505 43.732l-1.52-2.56h-3.51s-1.2-2.43-2.63-5.31m-1.89-3.83l-2.69-5.45-10.54 19.85h-3.69l-2.62 4.53m2.6 11.29h52.02s-.93-1.53-2.14-3.51m-2.44-4.01c-1.51-2.47-2.8-4.61-2.8-4.61l-.7 6.32s-3.4-6.06-6.55-11.66m-.06-.09c-2.68-4.78-5.16-9.19-5.16-9.19s-7.23 10.48-12.64 18.33m-3.42 4.95l-2.39 3.47" stroke="#CAA57B" stroke-width="1.5" stroke-linecap="round" stroke-linejoin="round"/><path d="M44.315 57.512l4.03-6.04 3.11 5.39 2.51-2.05v7.44m5.3-35.66l.91 16.16-4.86 4.45-1.35-5.86-3.01.9m26.23-6.74l.6 8.1m.25 3.47l.23 3.18-4.74 3.16-2.11-4.74-3.93.93m-33.21-34.48a6.28 6.28 0 100-12.56 6.28 6.28 0 000 12.56z" stroke="#CAA57B" stroke-width="1.5" stroke-linecap="round" stroke-linejoin="round"/><path d="M53.365 31.222c-.15.17-.34.34-.53.47l-11.23 7.7-.2-.29-.15.1-5.27-7.69-3.43 12.76 8.65 6.66h.02l3.78 11.31 1.12 3.36c.57 1.7-.06 3.65-1.62 4.55a3.762 3.762 0 01-5.5-2.05l-4.2-12.58-10.92-8.06-3.82 14.25-7.37 8.15a3.768 3.768 0 01-5.33.27 3.768 3.768 0 01-.27-5.33l6.15-6.81 3.35-12.49 1.75-6.53 5.28-18.8a4.678 4.678 0 015.14-1.97l5.55 1.48c.27.07.52.16.76.29.12.05.22.1.34.16.88.5 1.56 1.26 1.97 2.16.64 1.41 1.4 2.77 2.28 4.05l3.33 4.87 6.48-4.45c.37-.25.8-.42 1.22-.49 1.1-.17 2.25.29 2.92 1.26.79 1.16.65 2.66-.24 3.66l-.01.03zm20.07 36.72l-20.07-36.72m-2.67-4.92l-3.93-7.18m-16.64 34.1v14.72" stroke="#CAA57B" stroke-width="1.5" stroke-linecap="round" stroke-linejoin="round"/><path d="M24.165 18.252l-.54 1.92-5.28 18.8-1.34 4.79-11.99-3.37c-2.59-.73-4.1-3.42-3.37-6l4.79-17.1c1.07-3.77 4.98-5.99 8.76-4.92l6.73 1.89c1.73.49 2.72 2.27 2.25 3.98l-.01.01z" stroke="#CAA57B" stroke-width="1.5" stroke-linecap="round" stroke-linejoin="round"/></g><defs><clipPath id="clip0_129_592"><path fill="#fff" transform="translate(.705 .832)" d="M0 0h102.59v71.03H0z"/></clipPath></defs></svg>