<svg width="98" height="81" viewBox="0 0 98 81" fill="none" xmlns="http://www.w3.org/2000/svg"><g clip-path="url(#clip0_61_950)"><path d="M97.188 79.375h-2.253a10.14 10.14 0 00.423-2.913c0-5.763-4.69-10.453-10.451-10.453-.802 0-1.57.087-2.318.26a7.758 7.758 0 00-5.068-2.513c.065-.325.097-.65.097-.986a4.858 4.858 0 00-4.852-4.853c-.335 0-.671.044-.985.12v-46.61h-5.62V5.265a.818.818 0 00-.813-.812H46.99a.818.818 0 00-.812.812v6.164H22.72v33.567h-9.638a.818.818 0 00-.813.813v33.567H8.263a.818.818 0 00-.812.813c0 .444.368.812.812.812h14.458a.811.811 0 00.813-.812h4.288a.81.81 0 00.812.812h36.714a.811.811 0 00.812-.812h4.809a.81.81 0 00.812.812h25.407a.811.811 0 100-1.625z" fill="#F2F1E3"/><path d="M89.737 75.736h-3.39m-28.45 0H21.183m-5.913 0H.812M15.27 59.748v15.988h5.913v-17.19h36.714v17.19h6.433V62.239h-.033a.16.16 0 01.033-.043V6.976H15.27v11.276m0 7.3v25.866m21.378 2.492H21.183V38.442h15.465V53.91zm0-24.047H21.183V14.395h15.465v15.468zM57.897 53.91H42.432V38.442h15.465V53.91zm0-24.047H42.432V14.395h15.465v15.468z" stroke="#CAA57B" stroke-width="1.5" stroke-linecap="round" stroke-linejoin="round"/><path d="M36.648 14.396H21.183v15.467h15.465V14.396zm0 24.046H21.183V53.91h15.465V38.442zm21.249-24.046H42.432v15.467h15.465V14.396zm0 24.046H42.432V53.91h15.465V38.442zm0 20.104H21.183v17.19h36.714v-17.19zm6.433 3.65v.043h-.033a.15.15 0 01.032-.043zM5.632 51.256v-9.9h9.638v34.38H5.632V59.304" stroke="#CAA57B" stroke-width="1.5" stroke-linecap="round" stroke-linejoin="round"/><path d="M36.648 14.396H21.183v15.467h15.465V14.396zm-5.176 0v15.467m26.425-15.467H42.432v15.467h15.465V14.396zm-5.177 0v15.467m-16.072 8.579H21.183V53.91h15.465V38.442zm-5.176 0V53.91m26.425-15.468H42.432V53.91h15.465V38.442zm-5.177 0V53.91m5.177 4.636H21.183v17.19h36.714v-17.19zM49.222.813h8.675v6.163H39.54V.813h4.852M85.99 67.525a9.64 9.64 0 011.104 4.485c0 1.321-.27 2.578-.747 3.726H64.33V54.408c.314-.087.65-.13.985-.13a4.04 4.04 0 014.04 4.04c0 .64-.152 1.246-.412 1.788.13-.022.271-.022.412-.022a7.013 7.013 0 015.501 2.643 9.357 9.357 0 012.6-.358 9.67 9.67 0 014.559 1.138M64.33 62.196v.043h-.033a.15.15 0 01.032-.043z" stroke="#CAA57B" stroke-width="1.5" stroke-linecap="round" stroke-linejoin="round"/><path d="M64.33 62.196v.043h-.033a.15.15 0 01.032-.043z" stroke="#CAA57B" stroke-width="1.5" stroke-linecap="round" stroke-linejoin="round"/></g><defs><clipPath id="clip0_61_950"><path fill="#fff" d="M0 0h98v81H0z"/></clipPath></defs></svg>