<svg width="96" height="68" viewBox="0 0 96 68" fill="none" xmlns="http://www.w3.org/2000/svg"><g clip-path="url(#clip0_65_1105)"><path d="M95.97 53.21L85.93 5.42a.702.702 0 00-.84-.55L65.15 8.84h-.02l-26.12 5.49-6.53 1.36a18.617 18.617 0 00-7.46-1.53c-10.45 0-18.96 8.5-18.96 18.96s8.51 18.95 18.96 18.95c1.15 0 2.28-.1 3.4-.32l3.1 14.77c.04.18.14.35.3.44.11.08.25.12.39.12.05 0 .09 0 .14-.02l44.31-9.31h.04l18.72-3.71a.717.717 0 00.55-.84v.01z" fill="#F2F1E3"/><path d="M34.58 37.83a18.14 18.14 0 002.68-9.52c0-7.46-4.46-13.86-10.85-16.69l6.8-1.43 26.08-5.47 9.38-1.87" stroke="#CAA57B" stroke-width="1.5" stroke-linecap="round" stroke-linejoin="round"/><path d="M73.45 1.9L79.22.75l2.15 10.27 3.06 14.59 4.82 22.93-18.76 3.73-44.31 9.31-1.28-6.11-1.96-9.34c2.74-.6 5.24-1.82 7.37-3.5m-5.39 12.83c14.53-1.11 24.27-3.3 30.61-6.09" stroke="#CAA57B" stroke-width="1.5" stroke-linecap="round" stroke-linejoin="round"/><path d="M61.15 46.13c2.51-1.95 3.93-4.06 4.6-6.23 2.25-7.36-4.49-14.7-.51-21.8.75-1.34 1.58-2.42 2.51-3.29m4.61-2.59c2.4-.74 5.34-1.03 9.02-1.21M70.51 52.26c-.35-5.47.6-10.67 2.83-15.1m3.88-5.83c2.38-3.12 3.92-4.51 7.22-5.73M59.29 4.72c.07 2.71-.02 5.26-.25 7.56m-1.07 5.83c-1.06 3.76-2.72 6.3-4.9 7.09-2.66.97-6.47-.52-10.65-4.13M39.27 18c-2.01-2.17-4.06-4.78-6.07-7.8m-2.81 32.37a18.176 18.176 0 01-7.43 3.55c-1.27.28-2.59.43-3.95.43C8.92 46.56.75 38.39.75 28.31c0-7.53 4.56-14 11.06-16.79m7.89-1.45c2.38.09 4.64.63 6.71 1.56 6.39 2.83 10.85 9.23 10.85 16.69 0 3.03-.74 5.9-2.05 8.41" stroke="#CAA57B" stroke-width="1.5" stroke-linecap="round" stroke-linejoin="round"/><path d="M14.67 32.64l-3.33-12 12 3.33-8.67 8.67zm0 0l12 3.33-3.33-12-8.67 8.67z" stroke="#CAA57B" stroke-width="1.5" stroke-linecap="round" stroke-linejoin="round"/></g><defs><clipPath id="clip0_65_1105"><path fill="#fff" d="M0 0h95.98v67.09H0z"/></clipPath></defs></svg>