<svg width="77" height="77" viewBox="0 0 77 77" fill="none" xmlns="http://www.w3.org/2000/svg"><g clip-path="url(#clip0_61_984)"><path d="M67.09 17.46c-6.56-7.41-16-11.75-25.86-11.93-.12-.01-.23-.01-.35-.01h-.04c-.1-.01-.2-.01-.3-.01-.1 0-.2 0-.3.01-.02 0-.03 0-.04.01-.12-.01-.24-.01-.35 0-9.87.19-19.29 4.53-25.85 11.93-.03.04-.06.07-.09.11a35.36 35.36 0 00-8.86 23.44c0 9.1 3.44 17.75 9.68 24.35 6.6 7 15.53 10.95 25.12 11.13.24.01.47.01.7.01.23 0 .46 0 .68-.01h.02c9.6-.19 18.52-4.14 25.11-11.13a35.344 35.344 0 009.68-24.35c0-9.09-3.18-17.05-8.94-23.55h-.01z" fill="#F2F1E3"/><path d="M1.86 44.22C1.14 41.43.75 38.51.75 35.49c0-8.84 3.31-16.92 8.76-23.05C15.73 5.42 24.76.94 34.84.76c.22-.01.44-.01.66-.01.22 0 .44 0 .66.01 10.08.18 19.11 4.66 25.33 11.68 2.73 3.07 4.92 6.63 6.43 10.54m1.88 6.96c.29 1.81.44 3.67.44 5.56 0 9.23-3.6 17.62-9.47 23.84-6.19 6.56-14.92 10.71-24.61 10.89-.22.01-.44.01-.66.01-.22 0-.44 0-.66-.01-9.69-.18-18.42-4.33-24.61-10.89-2.6-2.76-4.76-5.94-6.36-9.43" stroke="#CAA57B" stroke-width="1.5" stroke-linecap="round" stroke-linejoin="round"/><path d="M61.49 12.44a34.352 34.352 0 01-4.43 4.18c-3.4 2.7-7.32 4.77-11.58 6.04-3.16.95-6.51 1.46-9.98 1.46-3.47 0-6.82-.51-9.98-1.46a34.424 34.424 0 01-11.59-6.05c-1.6-1.26-3.07-2.65-4.42-4.17C15.73 5.42 24.76.94 34.84.76c.22-.01.44-.01.66-.01.22 0 .44 0 .66.01 10.08.18 19.11 4.66 25.33 11.68zm-.72 46.89c-6.19 6.56-14.92 10.71-24.61 10.89-.22.01-.44.01-.66.01-.22 0-.44 0-.66-.01-9.69-.18-18.42-4.33-24.61-10.89a33.74 33.74 0 014.26-3.84 34.47 34.47 0 0111.23-5.67c3.1-.91 6.38-1.4 9.78-1.4 3.4 0 6.68.49 9.78 1.4 4.11 1.2 7.9 3.14 11.22 5.66 1.53 1.17 2.96 2.45 4.27 3.85z" stroke="#CAA57B" stroke-width="1.5" stroke-linecap="round" stroke-linejoin="round"/><path d="M28.48 9.2C30.36 3.93 32.82.75 35.5.75c5.93 0 10.74 15.56 10.74 34.74S41.43 70.23 35.5 70.23c-5.93 0-10.74-15.56-10.74-34.74 0-6.35.53-12.3 1.45-17.42" stroke="#CAA57B" stroke-width="1.5" stroke-linecap="round" stroke-linejoin="round"/><path d="M58.62 50.64c-.61 1.7-1.32 3.32-2.12 4.84-4.53 8.7-11.93 14.45-20.34 14.74-.22.01-.44.01-.66.01-.22 0-.44 0-.66-.01-8.41-.29-15.82-6.04-20.35-14.73-2.95-5.65-4.68-12.56-4.68-20 0-6.96 1.51-13.44 4.12-18.88C18.4 7.3 26.07 1.06 34.84.76c.22-.01.44-.01.66-.01.22 0 .44 0 .66.01 8.77.3 16.44 6.54 20.9 15.86 2.61 5.43 4.12 11.92 4.12 18.87 0 3.52-.39 6.92-1.11 10.12M.75 35.49h69.49" stroke="#CAA57B" stroke-width="1.5" stroke-linecap="round" stroke-linejoin="round"/></g><defs><clipPath id="clip0_61_984"><path fill="#fff" d="M0 0h76.03v76.5H0z"/></clipPath></defs></svg>