<svg width="89" height="80" viewBox="0 0 89 80" fill="none" xmlns="http://www.w3.org/2000/svg"><g clip-path="url(#clip0_61_917)"><path d="M88.03 78.66l-4-10.11a.748.748 0 00-.7-.48h-5.59l-2.8-6.44a.758.758 0 00-.69-.45H63.66l-4.97-52.9a.768.768 0 00-.43-.61l-10.65-5a.792.792 0 00-.64 0l-10.65 5c-.24.11-.41.35-.43.61l-4.97 52.9h-10.6c-.3 0-.57.18-.69.45l-2.8 6.44h-5.59c-.3 0-.58.19-.69.48l-4 10.11c-.1.23-.07.49.07.7.14.2.37.33.62.33h80.09c.25 0 .48-.13.62-.33a.76.76 0 00.08-.7z" fill="#F2F1E3"/><path d="M27.21 37.02l2.94-31.27 10.64-5 10.65 5 5 53.22h-31.3l1.44-15.32M40.79 58.5V43.66m0-4.25V20.95m29.97 45.27H10.83l3-6.89h53.93l3 6.89zM21.39 76.34H.75l4-10.12h72.09l4 10.12h-3.82m-5.06 0H29.08" stroke="#CAA57B" stroke-width="1.5" stroke-linecap="round" stroke-linejoin="round"/></g><defs><clipPath id="clip0_61_917"><path fill="#fff" d="M0 0h88.08v79.69H0z"/></clipPath></defs></svg>